<mxfile host="65bd71144e">
    <diagram id="xbedYwEWPybnhAX4m_5Z" name="Page-1">
        <mxGraphModel dx="1738" dy="2624" grid="1" gridSize="10" guides="1" tooltips="1" connect="1" arrows="1" fold="1" page="1" pageScale="1" pageWidth="850" pageHeight="1100" math="0" shadow="0">
            <root>
                <mxCell id="0"/>
                <mxCell id="1" parent="0"/>
                <mxCell id="134" value="" style="rounded=0;whiteSpace=wrap;html=1;" parent="1" vertex="1">
                    <mxGeometry x="110" y="940" width="600" height="390" as="geometry"/>
                </mxCell>
                <mxCell id="133" value="" style="rounded=0;whiteSpace=wrap;html=1;" parent="1" vertex="1">
                    <mxGeometry x="270" y="970" width="430" height="350" as="geometry"/>
                </mxCell>
                <mxCell id="46" value="" style="rounded=0;whiteSpace=wrap;html=1;" parent="1" vertex="1">
                    <mxGeometry x="58" y="95" width="782" height="715" as="geometry"/>
                </mxCell>
                <mxCell id="45" value="" style="rounded=0;whiteSpace=wrap;html=1;" parent="1" vertex="1">
                    <mxGeometry x="200" y="120" width="610" height="620" as="geometry"/>
                </mxCell>
                <mxCell id="44" value="" style="rounded=0;whiteSpace=wrap;html=1;" parent="1" vertex="1">
                    <mxGeometry x="240" y="599" width="310" height="110" as="geometry"/>
                </mxCell>
                <mxCell id="43" value="" style="rounded=0;whiteSpace=wrap;html=1;" parent="1" vertex="1">
                    <mxGeometry x="240" y="329" width="310" height="110" as="geometry"/>
                </mxCell>
                <mxCell id="42" value="" style="rounded=0;whiteSpace=wrap;html=1;" parent="1" vertex="1">
                    <mxGeometry x="630" y="329" width="130" height="110" as="geometry"/>
                </mxCell>
                <mxCell id="39" value="" style="rounded=0;whiteSpace=wrap;html=1;" parent="1" vertex="1">
                    <mxGeometry x="630" y="599" width="130" height="110" as="geometry"/>
                </mxCell>
                <mxCell id="21" style="edgeStyle=none;html=1;" parent="1" source="2" target="4" edge="1">
                    <mxGeometry relative="1" as="geometry"/>
                </mxCell>
                <mxCell id="2" value="Web Cllient" style="shape=image;verticalLabelPosition=bottom;labelBackgroundColor=default;verticalAlign=top;aspect=fixed;imageAspect=0;image=data:image/png,iVBORw0KGgoAAAANSUhEUgAAADAAAAAwCAYAAABXAvmHAAAAAXNSR0IArs4c6QAAAERlWElmTU0AKgAAAAgAAYdpAAQAAAABAAAAGgAAAAAAA6ABAAMAAAABAAEAAKACAAQAAAABAAAAMKADAAQAAAABAAAAMAAAAADbN2wMAAADc0lEQVRoBe1Z30tUQRQ+Z+6uoBIlUkmCreuWhOkqQj3oLkY+SARFvfUQGET0EPRQD0FF0EPRHxBR0EuFBPUYhCT4q5LAzIWlHtzU6iELxYg0d/fO6cy6s7tel1Cu7N7iDixzZ+acme8758zc2XMB3FJcC6BePtAS2kqS7gBgF/eV6X4n1Qx2jgAfbvH8ujA6OppQ2AwNsGJ7zQMGf4zbXt3nwLqUMe1fMr2LczOfhhU+TxZkyvIghembHHs1ne13zpO/KXQcEZ5IASpKbihkOQSWwyYNXviD4aNAsrHo8BFJkOydiLwcAUNOs4WBQ6lc48oloPtAgUegp8B0nVAIxZX6lradqaC3AMpLIGV5BZ5gAAX2W3QK2pREJxlJbcIUe9gDP6yL5yeQllLgJ94NXrMqFbJdFwy183q1ak1MIoFYubqluXLwX2i5BIrtJdcDrgdsWsANIZsGtK3uesC2CW1O4HrApgFtq7sesG1CmxO4HrBpQNvqrgdsm9DmBHn/UiKiVPMS0Wn+S3fI5hp21evVBIhCkpFkZCsTDfkJEDwjhEustyP9U3MUs3xZKouPlPwWDVYQeQlMRIbe1jS2V3sMI2BVKHgbk1Qan4/EXkfj/pa2VcvnEvjGo9s4+3UWBE4vS9IqhYJ3kAGL3spOf3MYQFJnan0JMxpHDgG6y5F2mdNBtzn49bgzawH3NLDcHYGBpvApKagLATOpOy3ohJoPlVkkehSLDD93Ap4NwZDrAQg0h45w9KjMryM9wHm5WROhZ3J86I1mnyFQ1xy6yLnQW3rAwbXJ6equj2PDLxTG7CYmOJ8GfZUz01PpZ4dVeICPl24kPMfALASWX1oQGx+6XiDU2NramjXgXxblz0kmD0t+D7xHKbr5uVqLr2kCLbyBteAryof5JOxay5wsu4Ag96XuNxaFotxGfb6OEsaxJvBpvGUSsDaVXncCgfLy78qY+QxqgZdt8oelBHn4hmYpRQmhaDQarwuGT/B9d7cFT94mw/5pzhsDokLutQrkEljkwVJfQ0fVVLT/q1Vwo9ux8cHH653Tv7m9KqVDtKB1MwTYN318RB02POZnfzC0pAWcVDNG9Z1YXdX6NK4MAUPIM0kp7vPAQRZ05JuYsS0QUI9Y2HRTE1i1Kfhs9iYSleqUcFyJRHpVmK9r8zuOxH8H6A9AVeg5hwgz5AAAAABJRU5ErkJggg==;" parent="1" vertex="1">
                    <mxGeometry x="10" y="302" width="48" height="48" as="geometry"/>
                </mxCell>
                <mxCell id="22" style="edgeStyle=none;html=1;entryX=0.5;entryY=0;entryDx=0;entryDy=0;" parent="1" source="4" target="5" edge="1">
                    <mxGeometry relative="1" as="geometry"/>
                </mxCell>
                <mxCell id="4" value="Route 53" style="shape=image;verticalLabelPosition=bottom;labelBackgroundColor=default;verticalAlign=top;aspect=fixed;imageAspect=0;image=data:image/png,iVBORw0KGgoAAAANSUhEUgAAAZAAAAGQCAIAAAAP3aGbAAAAAXNSR0IArs4c6QAAAERlWElmTU0AKgAAAAgAAYdpAAQAAAABAAAAGgAAAAAAA6ABAAMAAAABAAEAAKACAAQAAAABAAABkKADAAQAAAABAAABkAAAAAAbMW/MAABAAElEQVR4Ae2dB7wVxfXH59m7KAJiQelFERQREVRsoNglJiomMTH5J6YXY0zi35KeaJK/6c1Ejb13sVFFaaIIIl0FlKLYQKyR/3e4cLm89/bM3i337uye87kfuO9O2dnfzJ49c+aUhitOXmOUFAFFQBHwAYFNfBikjlERUAQUAYuAMixdB4qAIuANAsqwvJkqHagioAgow9I1oAgoAt4goAzLm6nSgSoCioAyLF0DioAi4A0CyrC8mSodqCKgCCjD0jWgCCgC3iCgDMubqdKBKgKKgDIsXQOKgCLgDQLKsLyZKh2oIqAIKMPSNaAIKALeIKAMy5up0oEqAoqAMixdA4qAIuANAsqwvJkqHagioAgow9I1oAgoAt4goAzLm6nSgSoCioAyLF0DioAi4A0CyrC8mSodqCKgCCjD0jWgCCgC3iCgDMubqdKBKgKKgDIsXQOKgCLgDQLKsLyZKh2oIqAIKMPSNaAIKALeIKAMy5up0oEqAoqAMixdA4qAIuANAsqwvJkqHagioAgow9I1oAgoAt4goAzLm6nSgSoCioAyLF0DioAi4A0CyrC8mSodqCKgCCjD0jWgCCgC3iCgDMubqdKBKgKKgDIsXQOKgCLgDQLKsLyZKh2oIqAIKMPSNaAIKALeIKAMy5up0oEqAoqAMixdA4qAIuANAsqwvJkqHagioAgow9I1oAgoAt4goAzLm6nSgSoCioAyLF0DioAi4A0CyrC8mSodqCKgCCjD0jWgCCgC3iCgDMubqdKBKgKKgDIsXQOKgCLgDQLKsLyZKh2oIqAIKMPSNaAIKALeIKAMy5up0oEqAoqAMixdA4qAIuANAsqwvJkqHagioAgow9I1oAgoAt4goAzLm6nSgSoCioAyLF0DioAi4A0CyrC8mSodqCKgCCjD0jWgCCgC3iCgDMubqdKBKgKKgDIsXQOKgCLgDQLKsLyZKh2oIqAIbKYQKAIJItDhQLPv0aZtF2PWmCVzzYxHzYIpCXavXRUdAWVYRV8Bid1/gxlwpjn4dGMa1nXZuaXp3M9MuNWMv9HyLyVFID4CyrDiYrjVdqb9AWa7lmb1W1aaePftuB162v6QM8zBn2wy9gb745o15gl4ViFp6x3s8th2J7NqhXlhqnlvVSFRSO6mlWHFwrLboWbI181mW6zr5P13zGN/M8+PjdWnj427DDD9PxU48P6fNK8tNHPGB1bIa0H3w8xRXzJbbrvu/j76wIz4vZn9eF5vtxb3tengbpfW4jp5vMb+x5shXzWbVPB8OFfn/mbLbcyLT+fxhgPuqU1Hc8oPzaYVODSu2GDQbYHJO280Lsnx34PONYefs+Flxp1usqnp0t+8u9IsnZvj+0731vSUMCK+e+xjjjh3g76mspc+J5kjv1j5Q56/s9k5+Ydm8y0d90gFqlG5IMQC6HNic/faYI78gtmjR3NF+lsIBJRhhQCpSRUUE8d/1zQEg4fwxV6grH5u0kFOfth0c3PyhWb7lqFuh2pUpknOqcEc/WXDAggilg2LhyWkFAGB4GcuQmfFaNLQYBfcdjs77rb3ceaYL+eZZ4HDsd8wbbs6cKgspjIqPxrmlhrMMeeZXsc67o8jmuO/k2scHABEL1YdVtXYDRxu9jkyVKs2nSxfeyGXhkgNZsjXTI9BoXCorNRqL7P9Lmb+5MrfcvIdRjz4q2a/Y0LdTotdrYS+aHqoylqpjIAyrDIUob6gPEbgD7/XQyHduoN9Pj/+KFT/flRaK0f0DPdkNr0jAIGP58ygdPOtzInfN5wahyc0WUvnmTeXhG+hNY1uCatYBLwVh367Cm5V6rrjQebMX5odWlVxoYxXPep/zH6DY42R5kfl6FyCyT3rV6Zj3yoxabDLacc2VbYqdnVlWGHnn3Ouky7cYFMTttnaeq32NsOvMLt1q6pRRitzNop6Lj71Hmo4+M8B7d7dTu4ue0W5FayOT/7BRqYPUXopUhvdEoadbRTMe/UOW7lpPbYMPQ43b79qXn2xaaEfv2BGxHYYRuOkNR9bXxyncn23rmbbFtY+C1N4T6nHEeakC6zlXWQCAQS0eRMid1CshsqwQs33ASeYvqeFqilU4oHvfLBV36Bq9U6lhSxwyo8MFu1uWmNG/MHMm2QdCZ3Kvl07GSSUBZMNVuB+EW8gtsacwDCtMQkB/D21Jg0HojIsN07YiA7lEDqh3TNq+K4DzbK5ZuUK96UzUmPn3c3pPzEwlzA08p9m+sNWkMRvrn0fdwuUOPDxl56xJuC+ELv7T1xq9uqV2HgR3hfPsAK4koyAMiwZH2sVefqPzRZbO6q98JSZN9EKC2EIaWXfo6wvy+KZHuyG9u5thl1qvbvD0PgbzJS71lXEAYW9Ybue7nZbb28tJJYtMG8tdVeubw3kqQHDrUkHYw5Jk+80H6w2O+0mVed12KGPmTXOfPCuVE3LlGFJawCz7GGXOJYa7d9aZm6/zNouvPuWdc136m5oQh0EN4wkeKrfeVMaQx3LYKm4NB/zFbOZy/OmNEhY1fjrNxrv4ucsrw9z2oAbJq7CwPLKLMvmskmt25tTLzJdB4SaYm6BGxn5dzPxNhungVa8qARij8kLb+bo7N6+MPiaFSnDkqAe/BXTwXVWjfLl9kvNW8ttP5jVLJtvOh0kegJXXBB91n5DrM4VtvXhexUFGfi6a2cz7GKrtArDfxnvsw+bkf9oZtzs9bhNNsJO4kJ77ms6HWyWzTOrXndWr2kFvCBxD+TMgXsJSUzoPb9aF7qDRQLvxt5YVnghzm+7s5k/KeQVilhNGVbgrHN430yApybVH/qDefGZDb++8Yr9E57FCzMM8ZRiSIkzB5sCHtSP/xumUbp1EHYO/YwNRLFNi7AXeuZBG1cniLD1p6uQKrBtdjQ9j7Zy2cszM4EG5iz9PmFOON+GUQ3Ju8Fh9ZvmtkutWqpMyNErX7XaOpnadLBtWQlKzSKgDKtZWKw//fHnuxXtT99vJt3RuId3XjdznrAaWZ69kMTmC11PjyOtsmPForptCngguxxiTvq+3auGfzgfv86M+4/jRrFr52C03X6OaqViLs0usttAK2e9/nKoJmlUQiGAqhE0MP2Vguc0uTbBv275X/P6osYFHESg+bLxo0Xae397jrzyNbFSUQsbrjjZWxuY1OYMyfzs37jli5efN7dcFCgFIKewiYjgv0Lk0mkj7KeW0aOQ73ArIcDxzntUASvy4EN/NDNHhW2C1RLqanlb1Kiv1xfbIMtoo2up2GIDiMzLJ/wrpzzs6Y/YrXGQlQb3/smfug9nELL+810bpFSpEQLKsBoBYs2OP/UzgwZHJhYTS4qFJRNcAKW185CxaSf//ciGppx6X+q7A+SIfY4wBw2r2kfE6mh+udF2uOldNP2FM0ccBkLul8vN31xqJt1uFdL//bD8Wypf8FcnjhWau6pEqtJQOOB75M+Wt8rE7vjTv3GfuqLWvOmHqd+vPNQMlirDajwpx33TIAjIxGNz84/MkjlyrXWlLdpaDUgYrXOz3aEUw2CCz5LZSdpAwJcxkmIDyO4vAj/FiOyun5nlC5odsuNHoCBCaUg7icq+2C/Pn2LmPmkwIgkSYSrrh/zODpS4N5362Y9sfCB0yGHLfZcbGGsYYlfIS9EZGuy5kTakslIlAsqwKtEwB5y4No7oRr8188fDfzJI/uGJ1zVqbDoPrxhq2jnSHJYTOLLAJt5cFiUPDfuRnXY3qHVRysCtnGFCm46h9Avck6OGOPkUUOUM/pplENEI4Q6eBRqwCRh6lJOKBtOijT3uQGEEGhG2fuWR41c09V4z7lqDUBye0BUQi8ZJo/5ppWylMgLKsMpQWJUwVldODQvapUf/uqFV+G9sMzkXjyxqVV4IWePVlyznQo+LqovkF++9Y//lg257i22sdxu5DxCd+BezCZw/WrU3u7Rzv9Urr9L0O3LN6H9Z/VoixDns4Z+L6/rLkDimePUFCwWW4iDA1sxCsdqeYBBxHwT4bLX2X5RTQAGf4t8IcmXTu4ZjPvKXiNv2Y86zRi0ywYs5bdSwWWWUlGGtg2KH1lbR7jRfxqwRRXtV79Iy1nxBt81TigMaPMU74vDrvivMioVJDhweyn65Zbsk+6xNX3DDx683zzwQfZ+O3I0C3mlVS+K46843b6819KvNrWX5KmrWYGcHHfDpl7m1zpyy33qxfXVHpzXWRhTdBFE3eVZ9Id7z7Hru/43BYiNZ4kh0xmNm8y3sKQfc3BfiPOTOn5qFz8YaL+eebGy7HeaQ9di5Y/LCUWyUnW+sAWaxsTIsOysE2Ha6vKFov+PHyZgFoYLBUGvhNLN9K0NQwIwTqqK7f24Pv1J6YOgWU1tYAF7QkXXeNcPwpWlmxJXmqXuS8UxgJbzyvPWjlBURhKABGdaMkjIsa86+/1D3SuDEOtmovlgGck6P58oOu2SUbb32knngd2birTb4SdrEJWaNtU8vCqbwFvZpj6qyf7jqg/9nHQOTNenEPgbJ3Xn+wK4Z7STW/wWnojMswtriMOgM24RFOys1DSqzLaxVMYDICHE8z7EX6uSQ5/RJDRs3cnwSeYZb7ulwFU7qimH64WQWVoUhWLKsqnzp5S+EsoDfs+e6U9FywwJ+KbTSHavu4b92679xW0V1ldKGqHLNIfbjC4KLbN0Sjq4xLzxt4M5EFyBkaB0J+w8ML5B8MTtwvk5SGifHr2gbUbFhOZE2sSUkihEBPGRC03/9BQbr/8JScRkWR93DL3crTTgpv+67hpOamhG6Z2LUYKeDSaes2khwSNgBzBhpz7yylsQFJt7rOMvH44Qhrgoo3kzs/bGzg2vX0h+I1KqcU2ODIhPc8/rvWbuNYlJBGRYv8NP+1+x9gGPSsfG58cKI9tyOrkMUs4JxZEHEIBxlSjIX72oOqhY8ZZUjkW01QtxK3CpYACB9wMcRu6rydgx/YeQptn6oFNFV1fL9VDlC9HckWMIJQSY46Z0/iW5OIXee8dKCMqzDPmv6nuqeGg7yna5h7l6SqEFSFjgXR5l8wSQiMiEyoJZCm86RPOsenZF3xGEibAsrX+xCSulII98COqkSFDApvmSBcD4lr7iTiGI69hpnrRxWKCLD6n742vSCrtkkbgyK5wwSJtropEufHXe1NtyYoVqjdv7dxu4iMfXe8Flttw/sIzAH50O0lrT9h2uJGO54xJsvQcHmkW1+CQrQKH3Y36H3sVbvYLLa+gMQhRkcMIJFuuTHDFLIt+kDv10XHTCDt5DekDZLr+ts9ow7fhgfLqSPx10xnup1gzxm+F2HdL2u1yBrc12YLx45fPJEvCZbIVC79BU4Y/L6wTeoUOSPcXES04Im6JQQeSuRR+6/oqA6giRg1j5iIYA39X2/cR9Nouo6+YcZtVmLdf9i4wIxLBS3RGJyRjVh43DXz+P534iIa6Ei4ESAXTyLkKUoE7Z7J18YJXSX3G2WSwvEsI4+z5BqWCZebvf/ttB2LjI+WlozBFCxsRSdObHxnT7qyzUbVP0vVBSGRSwqbHmcRJaqZP1vnFfUCopAEAIsxUZp05qtSc4OMpMXhArBsMgHMehz7gnF/zYl/xv3tXNUA2sDQrby8SgcRWbhZ0GyLJ1EWLGQCT6cXWW8Qv5PCTHVOeF77tAlBMMjiqZSHAQwLxh0rjV2LROmmKOu0i12GY8oX1iWWGxgUyoQtiwnXmCuP7/Wvp/CkFIqyrnzM8Y4p//E7e5AVCa8Betl35zS1NayWw40CHox9Dtm540TsuPOvd9g+7ZYkuF8zrUEKsK1bPidqTYEjRzSmkPDvfaz8T+y7LEQ4fYbNckzw8L/hqRypP+WiQWBowMRhxMhWGTXgaZdL9NyD+vcn2CuhESGl0Yn6H3xcyIV+ybNKRj4kXzOJBBFhiV1Re6JoLVYq++5n9mprXUkSIR9YPhKChJ4lhzjkMj0bMNnhdhC+jsLebZ0H3i2zdnrJAJdEdIkEUKaYE9UfhPCCp8fY5682UsPmDCA4O14yJlr01Y3uKtz4EUw+CduzK0ki89Q/08Z/CjKLusfvm/IIlFVvhIBRwLAH3OeUL6uCLUXqW3zSrmVsHjLHfEF96wRn2DCLe5qYWoceIrNnMrmqEy8D1u3N72Hmu12NsQ8yqYjSHm0VX0hqPRBp5kTv2cF2JCpgKhGHOReQ+zzTCp2uHluCHuow88xQ75uM4xUCkEsBlLyfPiueWV2AveKUTsylDNjJknLMYlINvR+AqNPqIt8MqxS5rvyiy4IK5KREFHTaeoS1Lzyd0LBsF6bfXRZwbt2srknttnBrqRYIeErL1mn76DKq35dAvfNqx4E3n+4cO97tPngPetSkwj4VQ8iuQZEgznkLHPct2wC+kpWVXkFgm0snZdM3B6CSRC1YsfWld03853ViNqL+BP5oxxuCfG/OfsKt0U7+gVOVd5NIvgv/rdnXR4qYBPBEsgDOuUeq5LwjpCqsGXrc5I7W0fIWyNuBLktiJBHaHPvCCNkoOjcP5BPVd4RbykWWyKBAG3YrCsMSZ5kQl1IHDdnZnK5kwyW5o1h8QL/1E9tIl+ZeEJu+H4yEUWIkQC3gmdVRTAsAnvOneCHVp6ANvsfb8/7CIeQOOGGgg7x6fv8UMlzGMcBAmg411gjoBCuCRbq9LZp1KrZP0mqSNgs3h8ysQ+1Kek+lGt5Vpo3hnXsN2yIYQetMff8yjKL+MQe8JQf2dCg0YgXL2aBZHB6+floHaTbit0fQbj2OcJ0OniDIjmlS6LSYkaAAtOtbKq30NaxtDgMjZxTEsv1u36WzC4Yye6kC9zBo/OX7D5XDOvAk20mYSeNvyExRfuhnzYHDXNe0F2BwMRwLhJqLZlb52DqdqwNBsUtp11dDqlDJoj3Vpk5422kp8UzMwFF285WcQ6fSiRFSIJHeP3PMIec4V5ao/9tnrrbXc2XGvlhWMQPwhqoWbV35WSQ3O3ey5N5EkIGh6y8uvM7ilICFs+fZBbPqLV6nuRaWB7i4YFU5YxpId8IEfIgDN/jELlzbMziaWbh9FrrYtjmk6KmQ1/T8cDk47fcd7mZPT4OMOvbYmZ4gVWiyYTa9I6fWCTzQTlhWMT5PuvXbrU3tgU3XWiwjolPHESe8Qt3+O3IF+L4jKC9bBWJtv7KLEMujMQJ5o7PBwoR1DG4WxJ8OT6xyX3yRvP0A7Ynct70P9M9Ke6LAsVCy7lQyrz2olVdp3G2yHkfFrC797CGGkDhfPO5hx1Qg+XHImQpxifUWCizmEGZ0BLeQK6dl+VafpTmgWFttZ3lVjx7MuF/w0lNIk8+5jAkOIkTW10eatNSGAFiC8Y1fFh5nAEhi9kjznDJuDhx324nKzfxYdjIPhiIkZuzbOPa9IpV/7LGTH/MhmkF5zIB1MBPm57EyQhhWVpuJX/hgQcEHngAwZcAQayERtgMNw02CSCWcXx4z9nwyu3svzXLysPdJZiKCT7LUuToUCa4fD5y7XjPsHgUh11s88rIhIfErf+bjG4bVfQnf+r2+MEpB7vBINscebQhS7kpy7betkeNH71vPvrQfuG55SRrw2dLq4fC1CM9kYHRLpphxlxtzUGbJWwdiVOOg056hMwFFOi/LA6gsf4D/haKzc1mW9ovPNhAUWncm/iQwJ954VoyoaFjQSZyvIDCEYdZp9UhiTbu+HFNE5fJCEQr9Z5hccCMfbmTHv5TYh4SuPvg9OOgNTZiJBsZzgEwknQuX0dvGS4m+w6+R+SadRIWj3iu5DgKClxyxqNmyt12R0kkbqdQiQNNUuGMsDg5hgTmLnrs7zb1pNfkt6U7VleEiHUapEy9L7GVwRVPvcj9in78Bssf0R2Q9e/Zh6wtDIs4Z2yLN/aIK82EW8PustkHYbWwcJrdkxLzJ0+EZDflLnPfFYYjHSb9jZetlg2DfpkwjqdV2J2s2BdeO+xz6VCmXTta679ErihfKL3SCs+39C6SWs/4KHC2JRNzOfpfcpUqSlH9OPkjp/ITb93QJ1s2DClIGsapIm9Cpy/YhpaZ/IYKafY488yDEfO1cIxw26WG3EW9jzVdD01UiVYPuJbOtVavJK9sZKwPH0cXjl2IQCykVu0NPSRCLHIODTgLEoiHhUfGa+273wxrq+2F2VlXxLohYzA2e4mQU1PAC3bE75u5FAsamYsPkdhwAO52mE2c5xeh5CbcAhGXuMeYhLbroT8aTISwSu11bFrJnGMOUmiOH/ussWbaQ8FZwdfYZYBqVdblO5eTMIZGRSxy53EhTax63ufjQr8ZFt6z7LbYpgnEmiAY4+2XhdKzCP2UijhtQVEqrDOcV/bY1+4Eg4iwUI/8xQp9pC8mchb/JnlUF3TVGL+jzJ430T6f1pIzUYLxsVvng3oL8ROXF6e8nOj1q+4M6fKFKdaKivcfGiuZOGSQuRULKRHvQobBtQirKyzL0lB5WBIxp5BvPNVSvxkWYsu8SdYKWSaURyie8KuKn3WSM3s8SOQrHvYZ6ysv2wqx9NF38GFfgGdPl/425h/HedkhLAbw0+bDJk6+l/hjRmfP57G/2bPXzodYY0gCtmSHUFGhepvzpOVTjbZ+QYPkTPbQzwQVrvud2U8kyC37a/zDwmhIefGEHL9j6PUr9v6UEIlm+OVuIywQRlK47nxrthOTMPg65w+Ot9mDV1oFc1XEATxRaNhEYGiO9tT5tqyq85CVeTKxU10E+5hhli0Ia+QVsvMqqjWYNh2soLrnPtaSsy58HPGH3NrW1P4Zq2aqlmXjdYhbq0CYPlzzjQQkLAzrzr7C2mo4KR+mWN4zLOYJ27lhl4TSg6A6uemHbmHeOfd4LGKvIBAnYv/6SnRHeTaJqLp27WJwZENJTyjLlIg9AipYTOoJ2ER0ML5U+2SmNLByt4gqqGZgXnBzTlqJiiFrAMoNI3wh4hC8CXfOpXOsMO7c9AVdghF+/s+OTAKcD465OqiDsL8jVeFuISvaS32hf0QrgtTsO+WBYTEHnOkO4+xJPCIpTRUHOvf/Ju6s4a9/7l9s+EeB0FI9dY9QXkURUiRiHc9q6V/4F7oerl7Vo4v09M7rZtXaz9vLzWuLLHvC6ToR28UqbiZeVQRPnJDhXAQv50VVMljfdufqpDDYNFt7YkXBoeDXiB6lf+MfJpRuzumEz6Wv+koCoWZOON+qQZ3Ee5qTWRZADignDIuZ4Kk+/TJ7Xu6kRAz2yF45+GvSpVBP/P0L0d/SUtfry7jlbVvYZxXOtelae26+IJLwQH74gfnvemtvjrTYDkeWF9ZfLdP/I2uwLeLg1Vq0Y9e+1tYfNBAYQQMfAIvGh+Z9uPabCZxyClggHX/xHw5fGTJ3EbYwJvU73Qwc7u4DmfG2S2rtSO8eVtQafivdK++a1yOvEZxmnIe7A86yKt6YIahYcL2Ok2Q6zo+Jz4m9UnrELSclFKQ3yNr0DDtGXMoC7XOUg1sh78wYGXekuOOwjJ3EMToPBY6ouaHmEjN5e3MIvWzUCbwrE+rtod+OHoat1Dmv7rHXyNcxfU5O15fQcXktrjkCLC1ZucmIxrBswrmsBw0fa4njvu12DmW/b7lVbKO5oGHU5fdcMSwQZO8Dz3JGaick9tFfigs4bnSymIYDijNcUdxBaPssIYB5inxCgi0bhxsx6agvOzT69I9GggchfzHd88awmCpeLHf/3H1CR0TN7ofFXDnmyZscPfQ9xVFBi/OEQN/THHcz4WZHBWdxmHWL2u7uX7i3Gs5rZbBCDhkWKCP4PPo3N9q8qWLGtCpFlROuhFFCqmFVhEtrUY0RIEipfE5NIEYWTBziYDTMzuDRvzpk/zhjqG/bfDIsMCXQB2ESZEIXcMS5chV3qVPIQjevVAQESD0pk3OpyM0pHfR5t+4Vf8/4R5DOkdSrQm4ZFoCO/IfbFwcdE9GB4xDG0LLDfaeDqrMSijMYbVsvBLAEJFeFQCwSAvLEIbwgnCpRrjLqn3EukvW2eWZYeD9gI+p0niL+X0w/mFII86CpxhoIvYNSvhHoPsgRJY1AVHGIJXrkFxwdsNTv/62Nd5pjyjPDYtowYh7peuEQ2PuAE2JNMQGw5HNJgo4q5RsBbO4EYnnEzJRzwIlu5zO2FJw45ZtyzrCYPJRZzmBYpHgL4z4atBSwWnxONFwm7B++gUp5RQBdu2yuzCLk5C4ysTiJLi0TqeFyrLoq33v+GRa3+uhfDO4pAuHSEcZuWOgBTadsDSi/gYWetSj7CDgmd40NfBiHBgx3hHv8YHWoY/E4Y8hI20IwLNJAjbvWAXiPI2JlD8W8XlapEp3OmZXAMUQtziYCDQ5dOMcycdyGCA3WY5Djzsdem0DcJMc1slFcCIYF1Lzi5Oh9pH468KRYcyIL5MQtIkCKUv4QYFplfYK8MJyA4OAl5yXDOZFgzQWhojAsXP+cqSj2GxLL/sAZNhf7BqX8IdCpn3RP6DcXBMfLllquLSMUB4lLZBp1lUMdITf3q7QoDItZIUIDAX8F2nwr03uoUO4o4lBZCOVO447iynb0rsVZRUBmWCwJp2GNcGek3WRZCkScZdmhVWjrY1GBGBbTw1ZfTsqGfUOclBDy0TUx52TPWB8XUMHHTDRB0twLJC8JoSFFLMX9RYMbgi86lbPyJbwrLRbDwkrl+bHSHNkgVjFsppy7QtkYWhqZlmUSgY59pWHZ/eAUqYJc1vMYG0pXIFIZOYMpCc19LCoWw2KGSA4uhy2Pw7DsrnCqtAzUEVpCx8MyEpQJFHM/KC9FlnFSme6FW8haUeEY1uuLbXItgTDyJHp6ZCLJikCksVLKDwINNqmPQHFiM+CAIRuj4l/hdQ5nATehqHAMCyycuSHCBPYPwlQOz8aWk4WolA8EWu7h2LIR4jEydRvoaOpcxo72fhYXkWEtmW2IdS0QWYgjEy89MtMIRDRupXwgIItXLIM4iZ3ltyYJnEmbWEAqIsNimmVXCYQgEklFJlnIkld55Itqw9ojIL975GUgj5bNoCyJO2O9yf37W1pQhvX8GId1TBwhS16pu3Xzd7XoyDdCQJ7KhTFit8viFWc7LOBiUkEZFr7Qsv2xvGLktUKiAYFatHGYAgpttSg7CGDPuWNraTgvi8tAammM/L6cP9nhzC937nVpQRkWcyZbvZPwRpbJhVnH2uvD94PLG6L3HNypltQaAWsv2hB4UYSgN6KGpqJn2cB47oTA6+a+oLgMCxsZOUSRbGIjrAwMZFYsFMptmnUl3xGQJ/G1l6L798kLD2NU2QPMd2Dl8ReXYbErlM1k5HUjwyqfQsrOHHLPWpoRBFqKb51XYVhRSV54LNo4zolRB5WVdsVlWMyAbOS5p2jELE+gzLDkl7Pcs5ZmBIFdRBdCeQHIt+BgWKJlstxzDkoLzbBkN3ciWMlxjoTpl9drZO2YcEUtqjEC8iS+9mLE4bDqtttZaisvWqllLsoKzbCwvpOl61ZRrbFki0EWpaCvzcW6yvtNNDji077+SkQEZANA9BjyuzDiVf1pVmiGRaiZV2ZLcyWvHqHl6jcNoT+CiACSW28XVKi/e4AAQRSE1HBM/eq3It6FrC7ASUOOjxTxqv40KzTDYprkHKiRGRYHhbKDzrai2O/P+inoSOVdm536NRGRkYV6eblGvKRXzYrOsOS9204xwjbIDGu7nbxaJjrYjRGQ3zcrX9u4djV/7bSbVDuybZfUqVdlRWdYcuJJ+UUqT/QqcdXKK17uWUvrjoD8vpHfVfLgrX4zmOT3a3C7/JQUnWHJryzLsIKtmeVVsFKM2RD5/FG+qJbWBgF5+latiDiKhgbHwbT8fo14Va+aFZ1hoR0XDgpRrG6zY8T5fH+V1HALMbOA1FLLMoCAnBjiPXHqheFv00LS5XNEGFmXL1zUr6KiMyxmS14E27aIOKG4UAi06RZCoRZlHYHNxOmTp164N3mx8XJVUoblcHyPnERHXrXyitd1mXEE5OmTp164tc22FArNB+9JpQUpU4blYFjyGhJWyUdCwAZjNttcaKpFWUdgU3H6ojMsUXATdBdZxyu58SnDknRY4Cy/S4WJkFetbgkF6LJfJK8K+V0l3J3c7YfvCk2LUqQMy8Gw5HepsEw++lAoVAlLAif7ZTJnkcMWCXcni/O6JQQ6ZVhmk82EJWQ+/kgqFcrwvxHov1G7FfrUopohILMkeUUJg5S7lVeU0G2eipRhmS23kSb0/dVSqVC2xdZCoUNxJrXUsgwggIWBQPLUCw0/EBfbFuJCFbrNU5EyLEeE9ciaTnnVqj7C66dI3p1F5iwp8UGvoW40eHHf0qhuTv+sj4SV2hE16pXIW5KqZhjVshCRotmusBFp2LTZkhR/5JWTeIQD+X0jv6uEW1WGJYBTKlKGZbbaXkJJXkNCS3nVRu5WuGKp6Mgvmp7HOGslUOGB35rnx1bXz4kXmPZ9qmsSv/ZNPzCJB72Tp0+eeuGO5G5JG65U9C0hnjdbBYem4s0se9gIC2jzOumwhNsRRqtFVSEgc5bIDAufHgITBREzqzyr6AxLDnT71nIT+ThP3mlGVo0Freby71tuW/6qX9JCICWGxSnh28ulMbfcQyotQlnRGZacwOb1xdHXgOw1La/46Fc1RhlWHPRCtpXfN/LUy5dYsUgql9+vUsu8lCnDkmZSXj1SS2Pk4H+yx7Xcs1yqDEvGJ5FS2Q9Znnp5API7Us4tJvecj9KiMyw5pdLrL0ecZbQYcvC/N6L27ByQ6rCcEMWvIAfS276lw1ZGGIDMsOTlKnSbm6JCMyxUmHIIbZu/NxLJ79h33zaRQyY5hyPrzpzNtUIYBN5d6ZjBnaMG135toXT91nsXXe9eaLOGvXpJAUVRMy1fIK0eoUxer/L7WejWWYRk1xDwDlq5wrwjBkF1dt6owrvVh6njxhM/50KSFcIKo8ZOafeN9L1b10aQbPiTBbBs/oY/w3+jFQqywACBDaZdTzN7fPj+8laz0AyrHQwrmBY/V7VhZLmzejEsQYE16TbzzIPlAdbny6irEr7ujm3Mmb8M7BO71vuuMCm9HtjUCwxLFrEDR2zskmPhCdZqe/UuNMMKeB0LiOaliPDHnfpJN7NwulQql8kMK7JqTL4opYIC6/13nK09q0BA4U9cGhwEfY0Z8Xszb2JaNyXzwTjHeQuflcbMohVSIkotc1FWXIbFS4x0mAItnCYUOopad5QqyGtdaukqEySs9/LFsPDXG3aJadE2EJFH/2aeHxNYGr9Afuu0bh/9CjLDYk/d/oDonfvesrgMq8fh0ty984Z5NarGfftdTItdpc7ltS61dJUJDCuyyb7rmnUox1/y1B8ZgSmMvcZMG5HuwOS3DukFBc2aPLLlLxrZbKL7ILmDPJcWlGHxYHfoK83r7MejJ+/dc1+pZ3T58tG11NhVJjCs3EhYnCoc/10jHPBPvNVMvtOFVOxyJlE2H5WXgXT9NWYWyy+YOvZ1xEQKbup9SUEZFu7BctDIat16KxfCnj0r/2r8HUfcxIMHlK9RBB3W4K9Iysen7zePX1/GI8UvaMdln2p5GcgjkzezLN3a+LfLg6xLaREZFjrL/Y+X0EbaXzpXqiCXya/WxTPk1rFKBQkrH0r3wz5r9j06EKLnRpqR/wwsTbxgkTiV2B9EJpafnDN1/xMC7VciX9SLhkVkWJ37mx1aSbMza6xUKpfRM2ftAi16TiiMWxTEsDBHkpNixL1wTdofeLLpe2rgleY8YR76Y/SNfGC/wQXyu4dlIC+z4I5tiSzj03OX/nIH+SwtIsNi3QvEfm3GSKHcUWSNUYMJrceyecHFsUu2CgjVkJ5hfewhh+1gnyPN4ecEVn5hqiE+V3p77WYvvHSe+VBM5tZuv2bbhfoRaVEINUMXB54Sqp+cVSocw+pwoNm1szSJWO7IIT6kxsZ0OUQqf3lWdGNUqd/1ZUESlu/7QdTMg78a6JaApeU9v4weCGg9eFX/jxrrlVlSqy4DpFK57K1lDiMylnEB7RsKx7AOOVNeJ2bqfY4KQjE2Mg7reVHrIfQcsihI6e41w9q9uznhe4HWkkisd/6sbhteWY2FuC3b+snTOvVeudwMOMtRIX/FxWJYWAm3EU068eTidR2ZEK9kK+QXnorcd6iGQRKWvzYNrfY2p14UeKS7YqG5/TIjJ5sJBVzUSvKEshg6ixK3fFmWouzN2qaT6XiQ3EfeSgvEsBoa3G+kp+6JNcHdDpWac/i4/AWpQvyyIIblqYSF3hpz9qCbenOpufUSQ+CEOhIMRbYglZeEc+TOBYmQxcIuDhWIYXEcvste0syy8maNkyrIZYQN2L2HVMUao6ZMQUp3HxmWdRW8LNBVkOATt15scEioO80RYydg4LrtTtHHyFmhbN+ABLrvUdH7965lURgWcVcGDnfMzoRbYh0z8S6V33VpMyyuHpT+wLtTwnWuggEeTgQUu+3iWGcjjqVQTbFslc6kdDusmu42rsu555O3bPxTk78GDA8OR9Oksu8/FIVhHTTM8MYWCPFKtnwR2tqiBtPrWKkK0Zbl2GxS43BldusUsDvwS8KSXQW5l9suMen5Y4YDe0MtojzKvla9hgTOy4Zegr9h9S7vOpHg+g0Lbp+vkkIwLKzs+pzkmLcnb44lXnHALEQO4Nppi1dcIkjXQ5FHEpbsKogh2x0/Tl0V6FgrTYplIQtH6Pb7N2kT+gcrZN3sqN3n5FhGqo7es1RcCIZ16GcCj5lKc4EuPI51O50cIPr6UKEGDCvIpoGreyRhCa6C2Ovf/QvzyuzSpGXoX+fk4kkTh1ic8nENMimLvAi0We5vkrCQzpOa0f9yWBXLKPEK3Vt8hWKtU4MtjCBhlRgWeweGulNbQwCcLba1Cq8ttzYkfCXpfClI+XsrDeqhJXONTRcUnNFTRiNOqeAqWAof+tK0ON2n1ZYtISYIQgAJJCyQl3d2wuAweR/zb3P6j4UqpttAa0K4JHvcXBp09WV5Z1gNZtC5DlQwbV8UI7govVtX6gDlUenahBCoAQkM65ivGJLlBUYKbzI4tpCEInh5pj02Xflak+J0fsDXJMhVkCd2xJUOy+90BhW2V6ZYYFgsj95DzagYjtlE9Zs/SbS6Yql/3tz4/bAD9rRezhlW98NM2y7S1PDeJthbHGIjJp8rcwCfXqDeypEL+XJkf+zKTkrfuamOfe1n4Nl2MzvlbocFY9Meqv3Fugp+NrAR5gvdD7cfOKn9IAmutGIgAoXszRfYY9IFTDETTYKvIGKRPHlTLGXimKttrHfBMrm0mYhjmhM0+Oz8nmeGtfmW7o39Mw9EF9RLs4hcIEsu0x6Mpc4Pv1ZQVydOPB4lTvHi0+bhP6UlbeHCIrgKclM2Nc7Ozdwc75uScwJHaa++2EyFmv3ESIhxKpjOsAHH6z5OrC52lKQROUBUh7GnRhDLCBNPA/wU1ngaw4zUZ9/TpDceXfKudp6/yFdGEtl/qFQFPfGzD0sVkixLU+uEku4z/2dwHU+D2naVBAfhivBTJGg2koxt2KVGDpUh9JNI0fSHHQ7YqA6Eg5EwY3DKaGgng7bVYfrPfp3cMixMGZwzB7eCZ8UhrCUwcRSIFHKosfNBPGxEUrcxXkSFXb1udu/e1jL+jF/U7YCfBIiy1TtL5YATY8HDcp3gMnGw7+ldYl0ly41zy7CcpgxWwH4g1tSg5HYcV68xk++IdYnMNW6wYZgOPTtz4yoPiNAOn/6dFEO5XDONL5OYblHOhWEJZyNhhvS0S4mBiQMbw7xSPhkW2wSnKQO6dvQOcQiVhKDnpue5E1K3bt9o/CEEH24ZBQfhDXhX//ejjVqH/wO3ASFOcfh+UqqJJHjyD9yO7mlcHat3Jl0gFowcP1JoWypiBp3HRJg4yEHfnFfJbIV8Kt2dbxgMo2Ke3GHT5LCeXxNXQVbtooENERxq1RvWJZis9OxQOEpjQ8rn/dXmw3cNCXsaMalNN7PWWFvvaN3CW+1lY+8Qz4sfnXTMedYpF+OjzNLBn7QI1MagpBIEPFKJwS0QywbdeRy3bZaubPbFnp2d+80/Ekbha1GItenbrREhSLKIQWZfY7AUjUkEApQPB+dNqvW5FfoyPlUR/MsytZXWG66kf0E8IaoXW91d2kk9oe0+6n/Mtd+KZXBbeQF8bkq81bJXGOuHaz8fmY8/MpttabkqH1QzLfesQj1/xBfM26/aU7NaEibpssEUy4bF88ifYw2KBXz2FZIykUeAE5IFU2JdJYON88awONo/zOWjMHNUXKsiEpH3PNoxm7xpfSS2ihxrznjMHlkgpKAQCSKEsq4DYwXkKfc84VYTEi6kP8DnNLDHEYbIKjIRKeH475irzoslzsiXaLaUwxw5rh6Lh0BXsst0sz2Xf8SY47lRBuM1gdhnEOq+xnHuhfEkUpQ3HRbmeSxogdDgPH6dUB6qCJ4oGz3Nn2ztg/wlFCUTbzN3/rTxFrLRHRE9TrBjbFRZ+lNUVFc2RCTE3gpDVoS7677r9issiTOVPdTgO1MvizZhXqvOcWLSJdtbIY3uK3I05yUyWCFXDIuH5+DTHSCTE3jV6446cjHCtvz+ZMs57j9yH36U4g6CQ4xABKhIyTJLuGi5CL5w44XW3wXABbLvsN2F8lSKxl3rGJVTceEc1qoVZoorwTUycjJvFOdoalUhVwxrnyPMDq0l5GBVzjmW2qM0aDBoRmR67jFDrPF8EH4eLz4j3Yrs9S21TKRsjfX4feRPkjEBTyzHmjUmYp+Rp0smFhLLKQ5Nvsvx9uVxYO+cJ8oPw2Jd9nOJV2wGZSnaObUc57duL9UiX+n4G6UK3pWNFzO/15lhrUVz+qMG6ySBOvSNyxqEzoOKnrjBkcuHhRQz4zwnFU79Rr9P5ErIyg/DwuVNdvElXwDq9jiEpTLOwDKhTEVWzxORNt1GmwkgMG8REMg4oEUqPz9xo+S0QK6t2tsl4QvtTiEx3OEp4QTLeYLE7PBo5IZywrAQrZ3aK95FsrLDOalcgiAtAnEkb22dc0dy9j05HkZtwOBwc8aj0qXqknMUPwdMRgRiOfX/pFDuLmJJOx2qEbJi7j3d46hVjZwwLFS/coRixASOeOMQ/TsdwXjP1zFHXpy7k9suniGVy0xcaplomXww17pjohcL1xn2uiwJmTB5k5eu3JxSciOyvAWyMZr7COU+FeWEYfV2RSh+4qa4s4LpsGwCjp512kNxr5LN9nIMP/JdZ4GIONjIjr9yVPXiqsSckU9gWFSDPlc50ijfnUFHbIzJXFAeGBaH1nv3kmbDilfxUi6328/tTzv6qrwZ6ZUxlfc1ePZkgbAde/etwIHUi2FhtznqqsBRlQowcYgZGAfpEq8sgQhlgZyVA8oDwyL4rBzwBEPqOISZn9OUAW+MbIYbj3Pj5bZoiARCpZ0RWh0cyadeDAtkWBhO9yACecumyE6EHekL18ZodnaS/QreMyxMmTG/EoiE5gsmC+XuIs6eZcc6diKj/+3ux98am20ujR2f6owQjodBFJMdBHUb8neWh7BdpRMWWEwTBxY5S10grN5l71ehbXaKvGdYeOrKIfQIehXncND6dpzhmK+p9zryiTvaZ75Y3vS982ZWbkAQo4jcUEcissXT9zmuzzKLw1BY5HJ8Nx4TOYyEY3zZKPaeYeF/KxCWdfJpt9C2VES8OiLJCMSTEHPLKXSekSKBETDC1W9kZJg2Tk4QEW+nvsSWTWaaLDMWWxxiqbPgBSJOlu/kN8MiFoqsrZw52oaCikxkt+/rWkOYd+XSlKESNNKxCJQRCYuzF9KOBFHdB8kicVqls9hYcpGJpc6CF2iv3nGDygud16bIb4bV+WCH2wGHynEIiztZSsd6PqYEF2d4NWsrW/EIdvA1GyEXkt2wZcuM2oyTpSIncGax9Yvn9igveNzXOh1cm3tN6yp+M6wuoohLvCFCkUQmRPT9Bjtaj7k6loLM0Xs2ivHtaNMpcChvLYsFcmC/1RegzRSINGV1J9RMJHCWab8hDhWE3JwFL4fZklUocudZKPWYYXGa3q6nhGHMjJIHnSaFr+PC2HYRgCX3dOinJceOeWII85qBgzqZXGFBxDlmRoxOWDCySSARE1l4cUhe9jwy2TFDiXCbHjOsPXs69oPyzMlgWfFqiFQFg8Ax10gV8lGGxWyXAdKtyDkXpJbJlRE9+fBzpO7gEcRczgixbOQooDGFLDJ1C8SukAfHX/KYYcmB21EWkMgrMvU+ziFeEe1IdrmIfOnsNCT+yUkXSsPBG+mVWVKFGpShaD/1fx2BOuK8uhK/BZYN0Y0FQsjqdaxQ7ih6/WWHpkx+cBy917vYY4a1574SeHOflErlsk03d4hXeIE4DIvlCyRa2rqDOfxz9rXJyzNBokNyKct5zEb+vQoVHumt8EkgwW2CRP76Uy8ye/SQuiTBTMwMSVLvkcoIYM8SEqjXEIfjqtCWInnxe82wNpPvPLOlGDTI1ueLpkcfO4pJ2fKIHA1vL4/ef7ItgQJewIdT7ZeeNvOnGIIrkC0mMsGkBgw3+7scnhBb5LAzjQaAjgm9OLl2SN5HzHu2aUvnRd+pYblOCgbchuW8pPCFx/7WaCD1/5OTCpaQcKSDcQOLULZREG5DXvzkc2PNyO5WQuf1LfKVYdm3REMgdIQVlQNuBLZcW8B+UCCegYnxnBOFzuMUwWjQN5VUTgQRfHmW3a8tmW1WLA5lKQYLaNvZOoh0PVQyaCqNEDX2mKsjDpZ0O3wwGUGvBM8iysIrz9s8Riux7Vzj7hMnXiLSEfp1+5buyuQlZN+aQWIJEWxeEIp7HRedYbH4iXwbmPGowebBy5rUGXKOfGZYwbfIUyq7bgU3tdoQOSLdnCdiyS/CpRMs2q6l6TrAfkpE2k40enz4Aq9BFsOOEQ6FeMJn2xY2hSpby8AlvvHIeBju+lkCgVXZeu/e3X5KhJU2I0QFg3j4/jt2hIwT/bQd5DZmq+1tXi8MLMIfci2eaeT4zhvfVk3/4h7ZuAlGBhjrEpE9miDP4uddxYFJECnDCkImrd95ugSqaqvSqB9hDZVqOuPeNuowC39y6MknEeUFD8M9v6xuMxgSAcwmmVZ5ZkN2RTVeWnf+JG4I//CXi1CThSQvNjxpIgew5REQGJaclyDCvdSsia9K953aShDFSaHe7VCp5yVzYm02pa59KGM7fP9v4sZurcGNEhzq9susLJllcq4lmZ3JtyY/Av7GxvKSYfEqZssjUGQDd7pl3yFQzDQWQs/ZL2K/dtMPHCdQWbgLLE5uuTiWD2nN7kK2b0DY5Bg0GsmPAN3KPmfRLlqDVl4yLFm8IhMEGpBotCe6/GBCvpg9Pri4TiWMqgaEk9p/vm0QCiJTDcZJ3sk7fmJG/D7UIUPkG0mwIUaeMiyRd/E8AjwIgdSQiVxHgcMLLvCTYYnBXtHaRqY9RNsu/CqkRRD5qvEaIvxf801DTC45kHHki7wy29x2qXn0r3H1QSSRvvfX1ppBtvOONk4U9s88aK7+usPxJVrn6bViOckmCJEZFmOWH4Sddk/vtlLs2ctTwhYiw2LnEplkE8SM+KM1vTssmwgcPvYaG3geswa0rRjaxCSU63PGm6fudQQLD38V2+ET9oP6v8cgQyBzTmOFc/2QPePri/THNpAjRR+JRUXUlyCKw7B4EMonsE3791SN5SXDkreEkRkW+UvkWYxz+Nh0xST+CxyBHSsfktCR1YpIYXi6YvEEgwhPoFcyjMIAdfWb4dtVURPTisl32g8+gLgr8LjyXO28R1ijCq6E0SOmRpwDLpxuZO1yFcOqU1V5URHkC54ubxuDBi4/CPJDFNRn3X/3kmHJ4gPhaKMRFlhC5G82HRg3ekGEMeGYjM+k2+14iY3LuueDXQ88ovRB50q191fZh7/0IWIUKqpa7nk5xcPknY+lBrNja8u2+GBptW6c21jmizrmvXfsv4yWoJ3MwusI0SFMTNf2m/V/ls23e+2g0IMsSJalzHqC7lB+EOSHKKjPuv/uJcOSDzgi+xzI+SxZNGkoX2qwArDARB6JY/pfg0HCgHBY4SNHX6nFSGp7DRYVS0swjGJZRmNY8oMgP0S1xaCKq3mpdOf1K1Bk6xsnwxIuqkWKQGQEZH5EAMVoJD8I8kMU7Yo1aJVDhiXH4Rcw3WpboTDneXGkO9eylBFw7N2ipn2UHwRlWCnPakX3sjQrv1gqumn8dXNRcEONoqQIpIGAbDYYpN5yjkR+EOSHyNl5vSqohLUBeXllyO+rDb3oN0WgSgRkzhJZFJJXrDKsKmcpRnUZa3n6hcvKK0OefqFbLVIEZAQ4JRRIfo8KDeUHQV7tQrf1LfJSwopmluIE2rFutnJ2oBUUgSgIyLyDYD5pUEoPURpDrezTS4YlCztEWYpGsp3k9rtE61VbKQIOBGQP58gpYOUHQX6IHCOuX7GXDCslWVfOJB4mvmX95lGv7DEC8rtQXpbCbcuCm/wQCd3WtyiHDIv4mdFIlrBkB8ZoV9RWigAIyF4y8rIUAJQfBGVYAnQJF8lYE8A/GsmyN566VTnlRRuDtioaAuwH5ZDcuF5Go21EH1L5IYp2xRq08lPCEv3y8b2KRnh14T8cRDi1ycnQgxrq74qAgIBdVMHpVMjTEdmDFd9MgXDY8pG8ZFirxHcO3rPRCDUk6VsEkqMnCw21SBEIQkBeVETOkA+vg7rl95Z7CoVGfoiklnUt85JhEQJJoJZRGRZ9vviM0LHZrZtp30eqoGWKQFUIdDjQkK5RoJfEBSk0pIj4HALJD5HQsL5FOWRYrdpHh9S5PgZ9PoGYc9HHpy1zhACBrlhOMslvULmtnH9IGZaMXpKlMtYkbZbj8AlDWUasJTHCMm+tA04QOtAiRSAsAgec6FiorPPlL4TtrVE9HoGtd2j020Z/rli00Z++/OGlhEXUJNn8V450LM3NGhsJU6ZDP2Oi9y93raWFQYDYx4d+2nG3dilGjVMoL1Een2gpWh0jTr/YS4ZFqEw5hNDuPaIj9/xos3KF1BxJ/qQLbfROJUUgGgIsnpO+79AtEAB25uho3dtW8iPA48ND5CN5ybAAWo6fiS5TCHYszxOWDU/dLVexwvapFxn2nkqKQLUIYCd42kWO/Rp9Trk7Yih32rL4eQQEkh8foWHdi3xlWLJ2HIYii8Qy7s8+ZN5cKlcxu7QzZ/5S5SwHSlrcCAGMBM/8hWnZrtHPjf8kpB+LMDKx+GUFlvz4RL5uDRr6yrBIESjLtJ37R0cPyxeS6Mn90zshleFZpKVRUgTCIEBScRaMHImbflh4D17p0NLKl5MXP/3z+HhKvjIskoYuny9h3vng6LtC+sVgb8pdUv+lMvwqzvqV2fcod02tUXAE9j3anPmrUN5d6NpfmRUdLfaDMsPiwUkp5270QYdu6SvD4gZlE5XtWpqOfUPD0FzF8TeY1xY2V7Dxb0QTHPJ1c/x3bTYtJUWgKQIsDJbHkK8F5vKqbEJO3CduqPyh6u8sezlejfzgVH292jbwmWE97YBq/+MdFeRi3Lju+pkJ6XqKg8VnrzSIdUqKQCUCLAkWhux/U66/6nVz588kh9ZyTeGLc9m/6HpwhM7rXuQxw3p5pnn7VQlAMrZH9iss9YvB1+2Xhc2BvkMra+5w2sVuJYU0aC3LCwLoqoZdvNYCplWoWyIVBYstpnkU/oMse4F4ZHhw/KVNB3e71N/Rk5iLXOcCbbKJWTBFKHcXEY0IhQJvSMyvwhCxjXoNMRxdv/qi8TSCR5jb1DoCAuzIMApFUSB781X2gCXnnT8xS+dV/hbl+4CzzK6dpIZP3WsWzZAqZLzMYwkLZGc85jjLQ9MZOdpMeeYWP2fu+rkJH46D0LSI5ef+1Qw616FNKF9Cv+QDAVjVEefaqe891GwaOqs6Swvlw+LYgg9LnQUvEOeDMx4Vyj0o8lvCen+1dXYXAjYiYW29o5n7ZNyZt/BFiwAAF0tJREFUeGupldQ6HmS2DK1ZRyLbrat1PCQLOUnD31oedwzaPrsINJi9epvDP2uOPs+G9AgpjJduB4v2Wy82S2YncHNHfUlKec8F0F5NezCBC9WxC78ZFsAhS3cdKAHYqp2ZPzms7lzoiNDasx837XqGOpku98MZM2qFHkeYHocbJK83Xo5lX1PuVr9kBAHsM/cfao77hsGTmYmu1r+C4Hy3XGR4HcYnYjMc9UUpFiCXGHeNkQMHxB9G2j14z7CwCd7nSLOlkGW+wbRoE8stqzwH6KSeH2MIlS0H7ijXr/yy1fZm7952WXMOQBLpleJxQWVD/Z5BBAg/u2dPM3C4NVZof4BhciPQ9EfNfZdb6TsROu6bjtMe1O2P/d2hQklkJKl24j3DYluOCqBTPwmlFrta0SaMUZXUy9qyjz8y8ycZjGXa9QplVtOoQzYLmDvDYXsdaxgV4iE7Am5ByQsEmD74VN9TLZ9CS8VUVrX7K98jdpsP/s5MvsOwnBIhDoX6nuboadRV0aMtO7quYXHDFSd7/7ggh5/ze4cFA++xq7+ewMawPDWoVzkG2nv/8g8Rv6CGQ7OAggz3rpA2XxGvpM2iIkDyEVRUuBMz3eGVmEFXY7pH/D7JuWZ45/zBbLVd0AXt7+wEr/6GWfOxVMeLsjwwLIDuMsCc+D0H4DCFO3/qqFNtMRkEDv+cwQIrEVqx0Cycbk+dcQyKnNwpkZFoJ3AB1OcYzWDWJAdHD48Vm7Ix/zZzngjfIlRNAofIsRno5d5fJ3/dUINLulLoo9ekL5xsfywC9JeyaolJxekPS4gEievCBw8aZrcJm20Rt2Oc+PmULJUJF0EMkKVzDEFQCTsZ3qgi7iCK2h4HGs5z23Qwu3Yxu3a2G/YEib0/G8BJdyR/5IIdg5NbkQ5qTuyD8gTRiNNVTiQsIEClPexSBxQ89tdfkMpBCUJWv9Otciq89Y1jrJXFa2zgZvjXEljYXPPqC3G9Nyr7Lux3Zorw//Cmtp3tv9bIMzjdVmSUCK/23GNm4m0Or4xo/XOAM/zXbifW2y61Cod8UH4YFvPBQQkGBDIhudzwvbS81WFbSFu89FJhW+tvjGcAnlXiX+Qlc4buWt9O/7fnaGz0ShwKbpX2NGGlCaviXCUNwqJi+OVuu+jnRlqVWW4oVwwL4wa0j7KrOjOH5fptl6QopGzf0h4h9Rxsto502l3t2sL7DP/7hdNskCN/w4ZUe9fh6zML6KHQmu/Vq0YBF99920x/xDzzgCPWdvhbaFoTVvuJH7ujVOJNzVkTXoq5oVwxLGaF/Tw6SCfV4LWDSovDZhRSsmbNOdTwFTCPQJH30jQr/+P/iN6ksAT4SFIlJoVaKo29XrPYgv/T95tZ41IH/9hvWP2DkzhlQseaJ8obw2JuwmwMqfb49WbirbWYyjYdTY9Bpvvhjqi1yQ4FbsXxOT5JWPnn6QUro8TRfoe+NsgP9gfxz0Dka1WW4gUxa6x5blSNDJ0O/qTBydlJM0fZyKU5oxwyLFbtZ/7PbL+Le6YI0TfhFne1RGpgYYhJdNdDrQwY35Yn/JA+/q/dKsK55k00PFe5JLKBYDnc+RDrOBXNkjMaLNjQLZhs5SneDeBcG+r/KXPIme5LoTi75ps5fFflkGExmezCzvhFKEv0Sbebcf9xT3+CNdA+oFIhiC2cC2OfmhEbRgIhzZ1gPSLzYaGKshL7O+QpUlrhK1MzAj32WRgKLHo2RU1os7dDTsyDXBbtNCQpwU0/qJG41+w40/sxnwwLvKwp6fmhlBdT7zV4LdSF8O1A7GL/QsyJmm1hMHdGSY8WDx8jH/VcAIU8tc8RVkVVrbNx5FkGKAIqIEm9MNVGOqsDNdjANaGyjq8x916eEzPRpjjnlmFxq0jOyM9h6NmHzaN/rafjAoEc2naxdtW7dbeH7pIvd5j7CVcH3RbSFpzrlSRim4S7ZqxahOvZ5ygbnKM2e2rwwfANsZRj5SVzDCGz60Xw5aO/bPYbHOr6T95knrgpVE0fK+WZYXE2dNIFjgwi5TnjcO3+3xgOpOtPDdaIkbiRbGxR2PMhz0WqRB5g2BY+ANncKrJxxkWBQ7GddksVBvPhewajcD4c9hH8E2PdyJniExwo9lYnnO8IfFy+HMrKe36diWGXh5Tsl1wzLGMf9U9cak+4wxB6ynt+ZQ0yM0VoZ/Blw18EEQyDbBK4pqRXRm2MpxHWQ3gyZoR2727tQtD3pXfLxPDA/8m6EMwxKxZlLnIGk37i9w2WfWGIiSMqPGw3x5RzhsXMbbG1GXZJWJ6FEfmof5ppI7I742hwkLngX+yPUN7LPvrRbgMdDWyLyF/obutCm29prUBK8VsSHwBxOzCyZRfMmwlhKstaPGIQHfGFsOb4cKs7fpz/NAL5Z1is+Kp4FvUxYHnkL5leyqXHGOGrTSers0f9DP9KVgxBg8MmETNIUgfVjHA5hk+xAUxWi4fwiCUtRw2Y1C6blzkxqim8vJaOOc/tZ1ZuWBBuxf0WgmFxn9XyLNQ6eGDFScBbXky1+cINElsOD3CYV4K6Ho4U2SeSixhhJFVCbCQEXZf+SR78MYmc68GkiNjjUQYjNsKEWgs/icXhVqzAojAsbpVHmqSBrIaQhOESFg/jr6/bzijkOJtWQ2ePFWXXATYkZlLEYw/b4mgiccLFD1bFv0kRW9rZ482c8QaG5RexFx5wtrVdCG9WVihuxWwWiGFxt1gPENwW/Uh4Iuja6H8lkHcn/BUTrMlbmhCDfJLyZ0TOIq4TMlf8sM4c1SNPwaqQrRIhjvYYGB/v+FTp9jlbGPT56oJBomd86I/1tLdIZOKq6qRYDKsETb9P2PQBVTnEIl+M/GcqgbSqmq3IldENwba6HZaMzEW83SdvtjZc0dgW4gO2VP3PqCLPqHDjRDecPc7yKX/D7BDW6sgv2L18FbTGjLvO4KdRNCoiw2KOMZUe+u3q7JvQ5qCExipv5QqPFwniDCptOFf840WMAEBjNgF/w2cFgFUdYllV/KDDHPbhb0ziGQQrfwl7hf5nmn2PrE5zh+HCA7+zzqEFpIIyLGYa/c4pP6pOAqcVp+DPPGi3RV47ErM1xgUPzkXun/DqkmYfDxIIYVeNi6KDbTXYK+J7gB1ZHEKmwyiBNwdXrKPpeZxbKLXdpoUNq937uKpdstBRkCa6Pu5B8W87dg/FZVhAh5SBx4Och7VZhGFbBJOcfJcheJ7XRIhUnF16HhPWNDHoZtFtjbs2UCWPQv2wz8bVoyHYTn/YWuTzxHpNO7S2rIq3RQTvUSJDPPa3xFIZ+ghjoRlWacK6H2bI8R3B8AfrHvQ4U+/LnHF8tQsRAy7EH5K8hnQJCOofG4Kx12z08keMhVVhKRaHMC7huBaRqmYhXOKMVmiL2TqG+7wgI1jMYRaHuysMq+CkDMsuAIJnEcIRw/FohC0i+8QaxJmMNrzwrTBD5UydJypysHO2bM+PNgQagwgy131Q9C0nXgf2fXBv6iZg4fGJVhNJitizGMRGPg8lotmIK/1WnkaDrmkrZVjrMWkwfU40A4aHiqK1vs1G/6MGtsEPRtk4JF4Tzsa9hphexxkC40Wjkr9LhC1P6XLoB6c9aJ4Z4X1yRtwPyIrCCyDyEQfeUVgCPnWvS0UYbZ48bKUMa6NJQ9QiMSoml3EIO6CZoy3z8tQgqHTvsBt0WweeUvW5RBzo0E9NuctmcMiyi5/zBjF/g0n1GFSFtXqzfbKExlydVtKdZq+Y/R+VYTUzR3vsY478YgImS0QCINwHH3/PdNC28OCRuyy8p0gzgIb4CeaOVRGM3l9FFQo7jD/5xDwJBS0WzMh/2DhcSo0QUIbVCJB1f2KHzbaIHWJkYb6yX/yHUUjzIRO9jzmcMX0ggisGtwn6+pTx4eEkG0gi1vPlPmv2hXzRBJLnVIHIsRz/xScStbEHJKIkdn9KTRFQhtUUkw2/wK3wHcFYBj/ERMiGDZht3XGJY0kQS+82PogPqNLjm32WwFyx0KrnrQ2XV8RmmfM+xHCs2BIMkoF7NlF9cNhEGaoUhIAyrCBkNvwO2+pzktn/hIQj88K8OF7EeZUP8S1XeWJAj7SFMyYmoDu22QBRtd8QOZ+40YbciubcU+3l4tfHJJ0jVDznSXjBYV8EuwRhDJgsYBzDeaiyKgGlUpEyLCdE6yoQRxyeBedKZJPY9KocjWF+uXxtiF6+ZNw8kicWlTwJ8px5thvdKbmISa2GWj3juipMamFMfFqv/TfygWmj22/0JxtA+NTT9xkyhimFQUAZVhiUNtQh5nLpyB934lSpxL8QwQiMifyVzWjrbI4wN+03zKDKcRLKu4m32+czmxthjDmIQE0ofSQp/iWSeqqEqzamG9MeynlE48QxVIYVCdIGs3cvs98Q0/GghHcHQaNhfROFbtF0e3JE7PlMEdIHii0ErqCkW+iPEalQV2XNARMrFjIV7bGv/TftN1BpypArya4Gn7KRxcI7jWdqvus6GGVYseBnQ7Tv0Tb/UphE07GuVNEYBRDLfd4Ee+aYHQfglu3MoHPM3gdUDHTt1xenmtFXG/TrGSEcv3FpIFwHHo5x1HDV3g6vGc7+YNzZFJarvZ161VeGlQDySBYcbON+gcBVm5R5pUFzrgQ7IMzIgqeykpQcXoAPClsqiJ0sx164lWSB8BXt0MfyqfZ9qgsrFHPwKKfmTzSzHrdGLWqpEBNMmivDio/hhh5wwSMMG4byHfvVlHOx0WC3COdiu+F1uK4NUCb0jdM95gI+xaYv2aM9eYAc/DEXRGrGhAWnSKWkEFCGlRSSG/VT4lwE+exwYOrq240uvMYeNc7llT62ptluNhpDBv5gr0eQws79rAa9lkQi3gVTrBGs8qmUYFeGlRKw67ttMK3bW3UJRoZ79IgSAml9R1X+T6C76VZj4nugu6puuxSYEPU/1udVhcCu6iqNKnPouXimDSsIk1r+oqrSG8GT8J/KsBIGVOiOxwnLQ7Q8JOMiK0TQmZrQQ4QibBFx0INzERo0x4TPEKcfuD2mZCXXCDq0UUiyHH2gocPuNztHH43Gmb8/lWHVZ05J6ATPslY/a21/dmqbukSAPRdsC+2vj86MQZOE/RdnHT2PtiZU6dIa88YSe4ywbK1ZHNwqm9Zk6YKQgd6VYWVgEoyNdwrzsoaLa/nXdi3TGhXxlUjYRz5nHjmvCRt0onfikg3rT4lwllpCOvv1trvo0ZXqjoAyrLpPQTMDwLyrzLz4EiF8czOdbvwTBqhP3WNPsnzx5isNH09GbEdwkML3OHFi+1xmT7imq8FU4gjH71AZVnwMU+4hTbU9BvT4yrBVzP4GpxRQEE+gZE3SETmJnFHSRpHiUK3PU17NcbtXhhUXwVq2R21PPBPOHDv0TTI0FR4zsC2MPLPpgostLsaoSFUJ+vfBmxZMtipzMlyonVQt13DMaynDiglg3ZpjatTpYJvthlQ3bJTiE9wKnvXU3YYQAhkhOJQN7DM0lHO1c8xsfhGmcGnCTs33/GzOm81rBWVY3s8svsdYchNEfM+eCXAusgoTm4nA6vWNzYR1AuHkSeFDeIyYBJ9CkiKd/bxJBsNOJa8RUIbl9fRtNHjcUAithy0SfsgxCdOHEtuq/SaRDWCJVYUJWSPfJqZn2KA9P9ab4Ijy7WgpCCjDyuEy4MifhID7HBHXipK94cTb7D6xNoaRaOjY/fU7Pfaw3zYzR1lWZZXoSvlCQBlWvuaz4m44VsOZkfSC6OnjELFPCWcMC0jPAAIdHPn7CKoVM0oPRufTRlhXvtpw2DioattoCCjDioabT61wW+l1rN0qxtEHIa2M/peNCZE4oXob9HnrcRmZ2MDOHGMDeJJXTSnfCCjDyvf8brg7dEOESCUsPaquyEQEm7HXJJYgllyHh59jDUEjE9IfujbsyPLkbxQZjSI0VIZVhFnecI/EhOI8Ea12ZIkGqyVMHybcGisYObLewaebPicb4vBEI1yLOMpk95fxZBbR7k5bBSGgDCsImZz/jvUp6m3C2kUj/OxG/9uQSz0CwTEHfc5E9pfERoG8O0S4VyogAsqwCjjpG26ZEF2k6iJKajQiAtSjfzNvLgnbukVbc/SXol/uhalmws02E61SYRFQhlXYqd9w4+Qx7n+GTbYegXBCxPRh0u2OrRlb0YOG2WT3nF1GoPmTzZM3W89kpYIjoAyr4Atgw+0TXHDg2RGjIHA89/AfDREOmiUY4uCvmV0imbNyLjnuOrNEpapmkS3ej8qwijfn4h2Tp2vgcJvxuFrCSmvqPebx6zcK/IA8RW8HnBTFZ4iIg49ftzZ/X7VD0fr5RUAZVn7nNvKdNZjuh5qBnzaka6+W3njFjLhynZoJg9Vjv2mwXaiWSLw47lqbckZJEWiEgDKsRoDon+sQQDgKn4a+EjXinU+6w/5w0GlVx63HdXHirda0Sk3VKyHV72UElGGVodAvzSBAgBcUWzYNfRIRbJq5wPqf2FE++5BNZ68BFdZDov83g4AyrGZA0Z8aIYBK66j/MW3j+SQ26rPyT3wAR/7DLF9Q+Zt+VwSaQUAZVjOg6E/NINBgwz/gSZNg2E+uQrDTMf+2noAam7gZzPWnJghE9Yxo0pH+kHME1pjnRtqkFYedY3oelURSMvaAj1jlen0jBeZ81nJ3eyph5W5K078hLLYGf9XsvEf0K63AbuvPNp66kiJQFQLKsKqCSyuvQ4Bge3gvY7yOCXtVhK8ylvEcBWrqh6pw08olBJRh6UqIjgCRto77VhX5e1Crj/i9efXF6FfUlgVHQBlWwRdA3NtHwur/Kesk2LCJ1FVJsCLKgkaDkWDSMhcCqnR3IaTlIgIwIIynFjxlhn7LEIyhWcL8/YHfGVxtlBSBmAiIr8WYfWvzwiCAc/K137Zx35sSZ4v/+Y5yq6bA6C9RENAtYRTUtE0QAu32M31PM2062PJlC2zYmTTCwAddXX/PPQK6Jcz9FNf0BgkHykdJEUgJAd0SpgSsdqsIKALJI6AMK3lMtUdFQBFICQFlWCkBq90qAopA8ggow0oeU+1REVAEUkJAGVZKwGq3ioAikDwCyrCSx1R7VAQUgZQQUIaVErDarSKgCCSPgDKs5DHVHhUBRSAlBJRhpQSsdqsIKALJI6AMK3lMtUdFQBFICQFlWCkBq90qAopA8ggow0oeU+1REVAEUkJAGVZKwGq3ioAikDwCyrCSx1R7VAQUgZQQUIaVErDarSKgCCSPgDKs5DHVHhUBRSAlBJRhpQSsdqsIKALJI6AMK3lMtUdFQBFICQFlWCkBq90qAopA8ggow0oeU+1REVAEUkJAGVZKwGq3ioAikDwCyrCSx1R7VAQUgZQQUIaVErDarSKgCCSPgDKs5DHVHhUBRSAlBJRhpQSsdqsIKALJI6AMK3lMtUdFQBFICQFlWCkBq90qAopA8ggow0oeU+1REVAEUkJAGVZKwGq3ioAikDwCyrCSx1R7VAQUgZQQUIaVErDarSKgCCSPgDKs5DHVHhUBRSAlBJRhpQSsdqsIKALJI6AMK3lMtUdFQBFICQFlWCkBq90qAopA8ggow0oeU+1REVAEUkJAGVZKwGq3ioAikDwCyrCSx1R7VAQUgZQQUIaVErDarSKgCCSPgDKs5DHVHhUBRSAlBJRhpQSsdqsIKALJI6AMK3lMtUdFQBFICQFlWCkBq90qAopA8ggow0oeU+1REVAEUkJAGVZKwGq3ioAikDwCyrCSx1R7VAQUgZQQUIaVErDarSKgCCSPgDKs5DHVHhUBRSAlBJRhpQSsdqsIKALJI6AMK3lMtUdFQBFICQFlWCkBq90qAopA8ggow0oeU+1REVAEUkJAGVZKwGq3ioAikDwCyrCSx1R7VAQUgZQQUIaVErDarSKgCCSPgDKs5DHVHhUBRSAlBJRhpQSsdqsIKALJI6AMK3lMtUdFQBFICQFlWCkBq90qAopA8gj8P34d1H2dwflqAAAAAElFTkSuQmCC;" parent="1" vertex="1">
                    <mxGeometry x="140" y="302" width="50" height="50" as="geometry"/>
                </mxCell>
                <mxCell id="47" style="edgeStyle=none;html=1;" parent="1" source="5" target="9" edge="1">
                    <mxGeometry relative="1" as="geometry">
                        <Array as="points">
                            <mxPoint x="220" y="425"/>
                            <mxPoint x="220" y="450"/>
                            <mxPoint x="220" y="510"/>
                        </Array>
                    </mxGeometry>
                </mxCell>
                <mxCell id="5" value="WAF" style="shape=image;verticalLabelPosition=bottom;labelBackgroundColor=default;verticalAlign=top;aspect=fixed;imageAspect=0;image=data:image/png,iVBORw0KGgoAAAANSUhEUgAAAEAAAABACAIAAAAlC+aJAAAAAXNSR0IArs4c6QAAAERlWElmTU0AKgAAAAgAAYdpAAQAAAABAAAAGgAAAAAAA6ABAAMAAAABAAEAAKACAAQAAAABAAAAQKADAAQAAAABAAAAQAAAAABGUUKwAAAKbklEQVRoBe1ZCXRU1Rme92ZfksmeDBE0AQELRVOCAUHEEhRKghSwQZCighYobSyeVkVcKqUcsdhWRbT2gFC7itEqUlpBpIomCoalAhUBDWQjC5lMZp950+/OjTcz772ZeZOY47En9+RM/nvvf//lLv/2uNPFZaqvc+O/zsIT2QcU+KpPcOAEBk6gjzswcIX6uIF9Xv7/fgKcTpt5z13qdGvvdqrww9fx17u1ClclOIGMH99unV9u27wuOR14XpOTZbjyCioEAHRVfAJeCiUWoXHxYyF1htW2+Ze6wiG+0583Ln8geNEuWt/T5TjDVaNM44uMJVfpRg7l1OqeqTAUCgZ9J0+7aw67qms9hz9WhUIiBNbltJqQP8C68YEECmBxQh14k8FSVmqtKNMOye9mFgoFWtsDjRcMY8gheI6e0Npy1VnpKo6jCP66evtfd3bt3CO4PN1LvvintqbYnvmF4/U99r8ounuJFQDlODpYZlyfefcSIAAt0NDsfOs9V02tp/bjkNeHEfoAzowrB8zpdYaiUaaSIvPUiRpbDkaC7fa2X/++a/fbgGmj0uuGF/o/O39+YWXIR4jEb4oUAAlZHbIfqkwpL8Ws58gJ+4tVzn/XqISoixGpQI8cPGeeXGJdNIeej+O1N1vWPklYhPeeSP95fcMP7g+2XexZEhtSqgBhIHkPkCD3sfvannqha9e+2CxizqTM/HbGysXNP1vvOXYySvplq4Ot7TGXRU8koQAWSnXgNJpQoOfBQQ7TtVfjQPznGqIZyffo8l5LT0SqHDRcnrbcaMjtdb51wDSxWDf0UtM1Y517DwgudyRi+p23ZFbeYa0oN0+7NtjShqscOSsDC0JfpAfB5BTAAqkOIY+XSRZoarVMv4436OE3LDdMNhaP8Z2pC7bEuw9ATimbKnS5GpK5OYxjcgpkP7Ay0NwaON8kOgemg2B3BOqbLKWTiKo+n/YSW+pNN3B6rfvQUVXU82YCqGCvnHvedezah1eLF5yxbKHrnQ96phNBSXhH7FPK7BvzNq6BT4UFbFy+GrtLTHu3ce9mhXvl+/QzdDq2VwXbO1Q8l3bbzbmP3Y/rHkuYoN1BbA7P5z3xIFjgccfClI4rVYC3mDMq78D69k3bVIIAgOoANQCgi6iJUe/avR+wJjuzdf0mOmieMiFrzY8YgjwgCO1Pb8MUGPFmkzyOZFSpAimzStVpqZ7a/1DhKB2ITqXHsy44UDVk51brrd/FRnqPfwIE7RCb8+1q9o6xr/B6EgGiBuDUwALvJ2XWtKiJ2B1lCvBc6vdI+Qi3QpYUbyEbpsnNggnKXffTkNePLqclZ+LcX41fhFL4zVy1lDPoAcRpHX8gLFIrynD34qCxKUUKGIuv1ObnwbS7DhxkKyMBhGg0OBM6u8ylk7If+QlmBSexsPQEvCc+dR88ijOknjtyrQgGC/+5RrAzjh0jmpLtKlLANOFbWIzXGSuEDHZ0+s83Aad1w2bB4dQOtgH2na3DrxA2srzJ6Kjaja5l2iT9qOFQI+abFkLOve8C0xhmCiB+U6QAImRQcVfXxqFFnT/syYUHf0XRPAePAuCNBvwKnQ5ESvDZ+tEjcx5dhSAq9/HVsTIEcp4qlSnMlJKK85tYAZgX3bDLwBtRcRxCgpsExrxehztg/9PfvSdOuT88ghGYdvzCe8DeB5paEOvTqNs0aZx1wU2yBD1HjiN50A0rALIsQuRgYgXwNGHsiQRxkww4VNDFCeAXQXL991fRWJ/mZQiwMY4MgfLGgQBIWzxPVkQwCja34hFrcrMpfpxfBQrkkdg90NDNW5YWrrhu5DC8EGY0KZp+5FD9FcMQL3mO/RcjnKY7TevY9jKeNd608WpyOaXN39CMQY0tsQIJzoil5MZxY+SD+zDz1Ipy5GW4PHjNkdKk3jwTXUT8NDXhU1PQFbqcSLhg7KEbLpjIsjGOwLQ9sw6/NB8CINsSn4DssshBpFr0NttffCVyHM4b8RxSnM4vkkMunNe3/XYLcmt/HYm3tYPI8falJTgBaI9Ttm1aixfZuGKNLCdjSREug7++CZY+EsEyYwrcFpJMTNHxCw8/ocnJdO6vQTcUTupD0Rkcxul+Y+9x5uBILUEkWRGcQAFg05dHs1jRYtrVf+NyABBUNEvDAcer/2LjuPf4o11qXkM+4rOljd5+WC3plGgk8RWC/cF2wSBIKyWUFo0jcLMjScP46ocXQD73oWOR4wxGSgQY5Qk2wgD4OGJ/UNpo/jIUwPtD2Ax7p//mCMYjEoDrRVcUP2ovzYefggSxKgu6yy/DKt+ps5GkKAxGYIfwKdb5RC5JfALApq4Rdz1yJYN9nxAhkGGyEQDaSwbhl5yeXFNnZehGFEI+ulaEQm2r+wPiBxM2ZQqEgwjL1Imy5FzVH8FnwVvj2fUgqAllktDItbSFs3Ehu958R5RSU1zKKH7kwqgqUgC1KuyltmAwDYrYYgqE3B77H4kBzXn0np7iXDjpgYMTIaNrnjLeumB22Ly+Jp01ji8CIzxfMJXOSkcUKYAUrPOlN7A4bdFcKQmMdGz5GxJZXAzbs+tME8hdQlyNX95KPBdr2PWMHy7O3YAwjkNm5z15mk0xIO3WOYA7d+yieR8bjwUoUwAUX/knHitOAMmhlBZCveZ717veO4Q0Mu/JR2xPr6WJizafxNVonE6HjGzQCxvTbpuHyAour2P7yxhHoQl/YRTyY77+GrAAI7Bjg/GBJApbqXNnZN23Am6hbvadstsD82e9ZVba0vnk5sBPhUu52OlwEamYT7VAFETdrRuec+4jToOWyQB0J9Y8P+TV5+FwkEl3hpOH+KLT2STKKjhxXcHg9qe24oIiqsF9EMengoCQ27FzLyJTVORppAmTgveNcAO2uGPrS3DGtGYB9rzBgGMh6k0sRraEt+Q9fgrKt2/arkR0ipPECTCitJYmeH1NKx+SNSNEOIsZaRdsa6ClDd4XyY3v7DlGgQEI6WzPhr8/nKlrRGErzvcHtiYaSFqBqEqg4hpyNNOonrTeGjWdqKP0EVM6MtIrqx3EFIPnaH0JFwx3KelvWTjqmKQlE1Lpka8M3vGcaXKJBFfRgPm6EizXjygkOiwjdb5e6KD0EUulh4yZlUuMY0dbbpysHz0C5gVfaESCIztJv2vBxef/LBpH0Tfr3uXpS+aDLF6tc9/7qK7GqreK1oq6it4AbEj+lseRPYm/naDgNfc7GSsW4cmCLswLyrSumsOkMhcO9KOSOJ5H4I2vgPjEBLsEfASwMDidVf9g33V68R4UKQBm6UvnW6ZPkf3yQ8pVc6Zb581UZ2cAEw3b6W+8AI9BIzzi4Gw5WlsOK8uh4G7f8QYqRaIUFGuT1UGpAiDNGQ0w1URAuQYvhlIUSmAw/CSWlms4QHdNLT6zut//KPK7jgg3KR2SUEDEJk4X1xpbrsnLzvvNw0BruvvnOA24v1hOQ0qK6YCPrW0bfydFYCP9ogCjHvUG2KgyADqk3V4Bxx8/relfBZSJ2iesJPxAn/j02+IBBfptaxUSHjgBhRvVb2gDJ9BvW6uQ8MAJKNyofkP7H+c63mGEFKgTAAAAAElFTkSuQmCC;" parent="1" vertex="1">
                    <mxGeometry x="140" y="400" width="50" height="50" as="geometry"/>
                </mxCell>
                <mxCell id="8" value="NAT Gateway" style="shape=image;verticalLabelPosition=bottom;labelBackgroundColor=default;verticalAlign=top;aspect=fixed;imageAspect=0;image=data:image/png,iVBORw0KGgoAAAANSUhEUgAAADAAAAAwCAYAAABXAvmHAAAAAXNSR0IArs4c6QAAAERlWElmTU0AKgAAAAgAAYdpAAQAAAABAAAAGgAAAAAAA6ABAAMAAAABAAEAAKACAAQAAAABAAAAMKADAAQAAAABAAAAMAAAAADbN2wMAAAIq0lEQVRoBe1aa2xURRQ+s33wsMTEB68YaRAfMZL4Bh+gQSNBpC2FovwwYojiA0XaLoREjBJ/ILstEOszJjYxGrUouwVEjWgCxiBBjVHjE5+xRVETlUpb2h2/bzr3cvfuvdvbbkF/MMm9M/fMmTPfmTkzZ+bsihxP/+0IqKHoXotWyUq5VLTMjik5Q4uMh1znYRdtfNBZW0bLPlGyrT4te5QosBaWClKgoUpfA0A1EFIBGOMGCKUd6FuhcEtdSu0YYFuXfVAKJCr1FDRcBynTXUlavsXIpgFqL/I2AGvr6ZX2smGiO3tkPBQdjxkaj7qLVEaqkE9024rsRLsV8bR630OLVByQAuurdHmvlgQkz6d0reWAUtIUE9lcm1afROrRMjVW6skZkbmQsRQyTrXkTUVK4stT6vuosiIrkJijZ6iYtEDwSXg60HEjACRWtqq/o3YWxPdIhR6FAYhDiVrUn4DnD52RmvgW9XYQv58WSYFkpb4LDTfiKcaTKiqSu5a/qtr9wgr5Xne9HhsrkScgowpPD55l9Wn1eH8y+1UgUaUbsFdwdAR2+3BdSh4Yit0jCBh3s4YqWYO1cj/rtZLGeErVBfE6NMxeeOLIW/Cd0PSm+pRa/egsGRXeorAaDgz7YF+Q1Mm+7eyHCg6dAWvzb6BlMQXWpdVLDZX6cuwWu0DbWtotN9+7Xf0VKrnACvR1I/p6EWJ6sCZmhq2JwBngbmMXbLExG4AnHizcM5GxTUV3qexJztHnkH40EgeMfUN2MbEQU1A/gQrYrZK7TYo27zSEIO+MnQ1V9mCmKp36oc5t3ynIPcliyunCC8hUWie1Gx8dmcMyacVrar/TKlmhb4EKzXhasNB6QaetathqfaZTnlIjpMnh9ecwhy44s/XYdr/01+X7trvTN+A5ATKm+p0dt8WsBI3oYWkujV7wWUwi//SUyrLibpkKejl2i3t6SuTZEpFFPj73kyMF78x0h3lHfBFDokI3wk9wcRPbVd6mWQrwbAPg0/EcoJPyMnrLGPGJAE+3X46Hjmdx10jpKD0st3r53HJGroSSiwFiuEsbQIFYikSWoMl0YvSenbIUsAczQUdNK9PhHhZTOc30r+VjKDsXO8R3Fk+zzbMymB6ayOIs4gA+6O0BvAlS1mCwFqCpe/hzFzGdCKaIp0puM5sjyH/xoJbLPeAjNBk8S0ZZTEoqiNWR5CrQOEemgDgOi/PbsINZUYnswlDuBV8t3PzCB7eofxxB+XLf7pWPNbQuvll9SmxgGGuxGl7XhHSRzAaD6Jhw2wpMy19RFHBJYOUQEOF1z8XYXjahRJoXtCjuclmJ2OidDVYR7pTGKRkmLkxT0PKByQNea2v0idhmE9xqA6oLJ2lJAsczP3bJcy/XAKY/WWwuVtS7JoTB5xWQBzZe/wJTUbfMhvHV49kJV89dIVLCwuMi7j8pGWGYlCwMVMJic7GC2VUAZaMAb1JhPUFzbPUmlULIk1Di6QdrdGkYf0H0ACU82PoGGx24awBlQxxenEcBHCXMhqjka4zpaVDitrJumYxLybwRh+X37hEyNhB0Rk4x60tLWbJaTwjkIbHX9ROr8LUK1sCZEJjTzVwTxHao27QOVMDURHy9h9nYiAW3FfxTcQ3c1jVMlmPZvZOvPUxvHkDOy8fDOsjdHeuVmbCPHSgv/KlbPgQ5GdTOOwM0nbN4AUf+VRBzFk0hjCIY2b70BTrsxC7xQxbPkY8yFE/G04HntyPknBJncBipkHUhspGm3Ld9isVGkmvmOQqY6EGIAmYxYhhhDtUwn1soCWn96aUSt9teuaH4Xp5D4CZcWBb5qt1PbKOcwasxu9wgeFCEFcnSulb1KsvExu6RchVARRtAEZxrX/wMSbyVHQLvbfWt6vkQnkLIR8Cn1WOOIGAcZ8pa2h2auwvB1uikqPJFTmVOHpM/Le0HjNIVUcEPxhObkfeAZ78Y4ItN/zFE92xyFcAC3EaaCTo5tb4cF4w0dqEbsGjPx7R+5Ksu+JNWACEYS5iNDzyFY9DM5cnBSpqrQO0WczzejxmYmJirz2OlPyUrZDJOfM2wxYeeul07PsHPNujvzCG5vahYJgWBt5jOgPD9Fqvpx1XAhEq0tJKKWag2tb4XRuYCkE7BVN578BfZsaFCj/GxBH5G9cTxN1WHPW/lyInh2G6IwOgN67gKsBK2+rJteTcjZrYcmEGJaT1K9uJif9QOd07HxALTXcpvD0ZTnaWAvensRM1oVMQNh+flLkYt27Gi3kXVaTDCXckqvdDDllN02+XURCNYLKPBvdN7G2Nrrx8w0jCyK2Aqu2HrtbhQPx54L47Jrwd7ZX6Zks/QqByLa23iOt0adqmHCU3ihj6YxEs9sbAtsfll5CjAWz8cyiYwzmesErefaq/NGQEZGY2I7OsQWI7vLtxZV+FSXxp6qbfgYQYHTPuILxNq7IuXMui7yR+RoJgcBUhkiBtxmBkoVplYZUpWk+4mJbMAnulnnBCra1NqD0+loZd6MIK/K5MxZyfTMMrLxkkZ7P2DmILahE5sUGjRPRJQEtYAtJ9/X6v6JUhwoTQElRfANBkRzBtaDFWAAHDevxsjx2AVg7uLsP9/DnvcgfILZWOkfsnT6jD5hjrZuGgz5A5HX4FOzekzrwJkOtbhdTjLhzBIxmThkvsNr/erAJWwM7EBRa6ZFEKOdwbuTmQeZPL/wAFg9wV5ZL/4SAqwkf8nJpAasNCTQ/ETExZoPeTxh4yj8xMTBJvk/5EPxF8x3U0MOpm4jeWLkvFsw+OB9bB0UkxH70e+Pvl978CfWUX2wWbTmNK9vHxj8bc792vepEAfxwsJ6BfbUyUPZk46Nj+zOr05ORS5FmBq4GUZkgy+0DvMufl+bMWtULoFDuqt3OpolMhrIJ84ekyG+0zELNP3VwOYFm9Pfbc7Je04Tpi/GuDstI/neR6Jczx8vk6O1/1PR+BfJBwjTOVOgK4AAAAASUVORK5CYII=;" parent="1" vertex="1">
                    <mxGeometry x="270" y="630" width="48" height="48" as="geometry"/>
                </mxCell>
                <mxCell id="49" style="edgeStyle=none;html=1;entryX=0;entryY=0.5;entryDx=0;entryDy=0;" parent="1" source="9" target="29" edge="1">
                    <mxGeometry relative="1" as="geometry">
                        <Array as="points">
                            <mxPoint x="380" y="480"/>
                            <mxPoint x="380" y="380"/>
                        </Array>
                    </mxGeometry>
                </mxCell>
                <mxCell id="50" style="edgeStyle=none;html=1;" parent="1" source="9" target="18" edge="1">
                    <mxGeometry relative="1" as="geometry">
                        <Array as="points">
                            <mxPoint x="390" y="530"/>
                            <mxPoint x="390" y="654"/>
                        </Array>
                    </mxGeometry>
                </mxCell>
                <mxCell id="9" value="" style="shape=image;verticalLabelPosition=bottom;labelBackgroundColor=default;verticalAlign=top;aspect=fixed;imageAspect=0;image=data:image/png,iVBORw0KGgoAAAANSUhEUgAAADAAAAAwCAYAAABXAvmHAAAAAXNSR0IArs4c6QAAAERlWElmTU0AKgAAAAgAAYdpAAQAAAABAAAAGgAAAAAAA6ABAAMAAAABAAEAAKACAAQAAAABAAAAMKADAAQAAAABAAAAMAAAAADbN2wMAAAHZElEQVRoBe1aXWxURRQ+s9uWmgIPhEaof0QTQ1SUgIEHEbU8YMC2i6HoG7yYKBAJ/QEfREF50P4ZEsQXE/tkMCWyC4LwACLBBKIYf8KLEaQmtiYYEjDEQrs7ft/dmeHu3Xu3d21rIWHCdH7OOTPfmTn3zMxZRO6kyV0BNR7Ta9Gqq0kWiZaVCSUPaZE6jMs8G5lzDDCjMpDTcj6h5XDLQTmjRIF1bGlMCnSn9DIAasYgjYBBsOWkQaA/AIX7WtPqWDmCft7/pEBPSi8C8E4MtNQNpuUC1joDUN+hHACwgZGsDE6dInpoROrAX4cdqgNtocpJCuWDTlbkJOS2tGfUGV9frGpZCnyQ0nOyIh0A0szRtZZLSsnuhMj+loz6OdaMhqmnSc/LiazCGBsxRq3p3pdU0r45rS7GHSu2Ap0Nul4lpA8Dz0C+hol7AKBz6wH1d9zJwvjeb9TTsADtUKIF9Brkyzonze0H1fEw/mBfLAW6mvR6CO5CrkBOJ5OyfvPnajA42FjaHSv0rESlfIQxUsgjyJvaMmrPaGOOqkBnSnfDV3B16E92tqblrfHwHmHA6M26U/IOTPRN0rWSnva0ag3jtX0lFTAr/yGYh8C4rjWjPrOCtgTPF6ivtO1ySny4h/HhFsl2N+mXQOvFWNXIG0rtBMwvPNHmQaHZYOHDwRvJIgCmf9QC464IY+JCcU5D22WwhLESW3HyvI2Ws6DMoNm0pdW2Yq58D3YAiyWCVQodayxyXSn9rjGny/BOC8O8U+gOZPM+nt4mTZuPAjHR/WbuNOaZYTAVTVmkQGeTXgyu1cjXcsPy2kR9sEVIQjo4NzEQC/Jqg62As0gB2EEHOejntxxWfxZwT0KDGIiFU1tsfhgFCvBuA+JSCFziIeVnnMw6sRATsRmMDg4PJpfMxUx4PdiaKe+E5YfvBopRgU3HTjzt4Sx2Q2AHTuk1KN3lzyngHSL5W6VgW/bHHh3WBl4FQL+VIVM2KzFhJ3bAjhqA9VX7bToT6mkQfryzAedCmRczHv8XkftDMrq8FEbrh1lQNlbyMPHGC4wGqyfndiCnZAU+EtEJoduKneD/N0Qx+86IOVE85fQTG681xAq505R1O8CXlDdY/gDzqrfcH4PNYQVAtwMwZD4B6av4/IudsMpvwBSeLyXQ2ahPhNHhLI5gB98Lo4X2ERuAOqxgcgqg7inAl1SocHTnTgBJRpOxJkqeiaAvQX9sBYgNi8WUX2xUihSorihbAQ88rr7PeUPH/ANb/gqsJRUPDkVs/9zwekMVCPKX1ca9/UQ5AjC9ctgjef07QNN5mA9wlL9ESWxv1lVTr8sLeF5OJ4/ZUsEJuS6XkyH46kNRz0zzfFyZSEi1X84bJydXq4bl0OtfqutRcxtsJDszL1LAix6UUGDaDXkF5rLbArCTof0JbJ1urQt97bbfX8KG8ZqTNr8s5TweEIarZCPqfECFJmIDG1OxAiAMeJvK0EeppGUmb1VwBT8C7Q+ONQc3rGQJlKh1fYEKxGayC+U3WIRfHVnLE6jPh3+PlPV4DTZitbJuB6Ddea4g/j0J4qeWIarkoQK7327pXY16Ler0KqMnJR/jkdRrGbsb9dtQaL5tR5Z41NCHEqvluXmQIdzndWppssRbrfQCYgDF0KTFhgXPJ+8y1yR/oDUbWj0evA/heXcM2tdbfpYQ/j07LIsTFXIEDZqBS6RdT8gCdkzJyfdYuPsdkRWYYLJSXsyOyCm0CsOSSo5jh5b5+U0g7Cf0DbZm5J6iyxw7MMkBCsGTrCoQbtZ3BcGTTlDJKpzCAfCWVqllXrXIY0XgyQAZKN+AWiH4vHD99mc1RG8mi4kYLXhSnQl5DQRaWUKTjXR5rAfSEB/v5gF/IkDrL0HjmF/76Bf9svj2Mj7akJ/GOrEQE+vwZB5G1pkKFDBR4pP0JCA4V3j1Ehd78hKxGO92MhjJdl7IwgPSLbDf0xBoQbhvD9+k02tF5W54HJX4Fnq9mpa5VsaUM0vQeB+a66N77tTKY3UX+GiVtp8lQ47EwjqxsfSngh0gwYS496Faw1glP+57RQj/CnISo6z1ssgstBn+oz8fRq4J0pJZvGNH5C/yId3to09FexiA7Flwn4/G+9GVR2pJ18rES2vQty8s/F60A2AUhrjxRKxHNcVYZVuf2gYv8DTALiTdpZz0t+5Xp7oa9FMqKY+6flZAazmozrEKP18PY32AdZt0Vs4hAv1tR0ovB+KCwxMXvbNr+lQWu8LAVgoyDGw5k7ZjsHRu1N/JugmnH0W1Akwvh8VFgzLj2Tbx0b0YcwQP+eVR4fYiE7IgjMAmtrHVvRzQ0ia69AV3OdWmKPAkRipAIlzbHqDvRrUaSuzlltIuSZuIxLHzcwhXvhoz9XgYSkwWCwzu7gU/cDDcN95Ruwn7gcMqf1v/xGSVMGH3TrRXsw/++/b5kc8qwZJRYtgeg8BLXX/Iz6z2fX3L/MzqwJrKbftDd1AReg+G+xgxw2XL/18N7AHFF9SE/FeDIJY77f97Bf4Fv1vzKjbpTWYAAAAASUVORK5CYII=;" parent="1" vertex="1">
                    <mxGeometry x="281" y="489" width="48" height="48" as="geometry"/>
                </mxCell>
                <mxCell id="12" value="" style="shape=image;verticalLabelPosition=bottom;labelBackgroundColor=default;verticalAlign=top;aspect=fixed;imageAspect=0;image=data:image/png,iVBORw0KGgoAAAANSUhEUgAAACgAAAAoCAIAAAADnC86AAAAAXNSR0IArs4c6QAAAERlWElmTU0AKgAAAAgAAYdpAAQAAAABAAAAGgAAAAAAA6ABAAMAAAABAAEAAKACAAQAAAABAAAAKKADAAQAAAABAAAAKAAAAAB65masAAACe0lEQVRYCWOsWijGMBCAaSAsBdk5ajHdQn7AgpqFVC+KC2jY6+QpSlhxc4h8+/nuwcsTh69Offr2IqnmkGAxIyOTnXaOlVbaoStTjt2Y9frjHWFeJXkxsxjHRWfvLNt3sfff/z/EW89IfD621c7WkvNcfjDl07cXyBZwcwiH28549PrsngsdyOL42cTGsSi/qo125oqDaWi2Ak3/+uPtikPpxiqR0sIG+C1DliXWYhvtrGPXZ3/89gxZM5wNjOyDlyfa6eTARQgyiLVYUczi4atTeIx7+OqkgrgFHgVoUsRazMMp+vL9dTTNyNyXH25ysQsxMjAiC+JhE2sxIyPz33+/8BgESdLAlI9HDbIUseqQ9VCFPfIsxleA1ITf5GQXIC9gv//60LpC4z/Df1za8RWZQFurF4nj0olfvDn2GTCh/f//F5eykRfH+IIaVygBy21PkwYpId1XH27tONv47N1lTJUESxKSg5qTTSDRddX1xzumbnE9e3d5vMtyPi4JTIsJipBssZqM86NXp0/fWvz5+8uL99ZefbhVW96XoDWYCki2mJWJ/fffH3CD/vz9ycLEBucSzyDZ4ptP92jIuKpLuwBzi6K4lYFSyLVH24i3D66S5MT1+furJfvj/cw7Y5wWvv10f/WRrLef78ONI55Bso+BRgMr5smbHRkYGCdtsr/97ADxliGrJMdiZP242HgKS4gWWlmMy0FwcfIt3n+x9///f3CD0BgECxCSExfcgn2XeuFsTMbgDWp8Pv7x6yOwdsP0DTEiv35/xRMRQBPwNQSA8UR84w3NNUBb8Yc2Ph8DdeKpydFsIpVLfqom1SY09aMWowUI7bgAIgfJCsZyc3UAAAAASUVORK5CYII=;" parent="1" vertex="1">
                    <mxGeometry x="240" y="600" width="30" height="30" as="geometry"/>
                </mxCell>
                <mxCell id="14" value="VPC" style="shape=image;verticalLabelPosition=bottom;labelBackgroundColor=default;verticalAlign=top;aspect=fixed;imageAspect=0;image=data:image/png,iVBORw0KGgoAAAANSUhEUgAAACgAAAAoCAIAAAADnC86AAAAAXNSR0IArs4c6QAAAERlWElmTU0AKgAAAAgAAYdpAAQAAAABAAAAGgAAAAAAA6ABAAMAAAABAAEAAKACAAQAAAABAAAAKKADAAQAAAABAAAAKAAAAAB65masAAADwUlEQVRYCe2WWWyNURDHf7dqaXWhqipCqRJ7W1vqwU6CoqGCByG22MKDByH2EBKpChERhNhjjV3tgibW0Apa0qrGvhSt202r5iit+33nfr3JVX1g8j2cM9v/mzlzzowtLqaEqiCPqgBVmP+B/1rm/71Ue7qY29p1aRFFSATBLagmRjY+ZJJxj4cXyfngog8HNZsr9zgymm6jSLtJxl1epPA1X7kIDqNZR1r34tou7p9zcOrKpuKIuwyjVXf2zuXjSweHz5KQL/kcQ+dQw4s7xxykFW4qKC5JbORgDi8zopb5zXrO4eV0HU79ptT0pkEYfvXLhFaLCiLuHMPNQ9g/WrnIfsv1A8TMU3HnvMe7Dm/TORVPQa6VlRWwzUZoF86st7IvlckZ12vM7SN8eo3Ng/7T6DuFU2usDK1S7RtIXvbPUrLyAUWFnN+oUIVKvnFpC0064BdkZWQFXDuA/C9Wxs5kXwt4/oDWPale05mKkybhWYMe4xi+kFepTi21AjkdqTLJdspV2vVl6jba9tEqojljQY1dTO5nts/iS5bezMyt5UO7fkQMxKMa34q5e5Kds/ELZMRSVWvvMowWGuDwARTmcXyVUdXZPiiUyEGERZF+ixNxvH6iXrdOQ4kayYNLXNhE9juNqQa4TW8ubNSoalmxSwhoRFICW6erSpRLLP8tD9zJ1fjWIyJaVXj6bRLWGa01wHUb8j7TqKfdy4k2DSc+VlVySDgRg2jUBi8f8u2quCTbV3dw4yAzdmqANVUtd0OO2UWSgU1Qx8TRczxP77B5MsXFbJmi1r0nMWoFRQV6T5qIXz2mYUvSbukNNFwbQc2JH1YuEbDks+qAZ+4pZxpWmohTr6m6kDRWKmmAH14mL4chc9SrW3mkSbWAHV2hgp64AfsndaHNJOe6b76Z7cixHNj1wMVFJO4hcS9S4d7+ju7+0E4P/NN5iWrDhv7/O25pSB6a4yrXkodM0mMmSyOzuoFTgj0LnwAK7Hj5GmSqRHKz8W+gf7ncAwa5e43bq3EsfKARWN7ttBvqYXmZYhTJ3l3g1ETVGxJ303GIakSSWOXUUz2c0p1kMhFpyhUNsEtTpsbuF0s64OiVPLpMZvKPG+ivilFu4+c3qmHIr8gwKiObmSyLy6xu4kjhJKxVbTQwhP0LkNlBJnCZvApz6TVBMQ8sMtn8YLgbcanX6rXoMVbN2FJlglonWGU76TTX9yM3U0t/BrjMtYxp0hll+LIeTEXf3VSXQZYuJFz5XCF3q9oVDK3Of2BtWiqDWWWp/g6ffx+cr3WDNAAAAABJRU5ErkJggg==;" parent="1" vertex="1">
                    <mxGeometry x="200" y="120" width="30" height="30" as="geometry"/>
                </mxCell>
                <mxCell id="53" style="edgeStyle=none;html=1;" parent="1" source="17" target="33" edge="1">
                    <mxGeometry relative="1" as="geometry"/>
                </mxCell>
                <mxCell id="17" value="RDS" style="shape=image;verticalLabelPosition=bottom;labelBackgroundColor=default;verticalAlign=top;aspect=fixed;imageAspect=0;image=data:image/png,iVBORw0KGgoAAAANSUhEUgAAAEAAAABACAIAAAAlC+aJAAAAAXNSR0IArs4c6QAAAERlWElmTU0AKgAAAAgAAYdpAAQAAAABAAAAGgAAAAAAA6ABAAMAAAABAAEAAKACAAQAAAABAAAAQKADAAQAAAABAAAAQAAAAABGUUKwAAAHoUlEQVRoBe1ZeWwUZRTf7e7s3T27XballN4tR0ES8YgXonglRoPGBMJfokZj/EcxHiAJmngnHiGGGDRG/UOMhATReBKiMYBGbUGgaC2U7bbLttvt3t2j62/2K9Ppzu7M19mW2mQnk91v3vfem/f73vG9mVEea+lSLOSjYiEbz9peBjDfHix7oOyBElegHEIlLmDJ4gveA2rxJWh9v8F6Y2VBnuOt3QXp8oirDrdrazVC2eCR8NmH+oR0jiLhgWLWc/JzPZA0QMIDnH3xvxOnt/ybDqQ5yuwOutad4RSq7eqOjxv1LTqOIjKQ8ACRhPVQB6VQLaJrVqY463FTGoVUALD2lwcD33rcdNYAIHIuA4Y86ynDlcoDWIm5xiDPehhGC2BOMci2XhrA+EASJ/jIwfeD/Q7LJXKp/1CFIiGv0CllPFIyDrXtdsvFT0dKNZwnX73ZEfh6jDLueXIKOQD48vxxha5C36oztOkM7TqNW6O2qkABw0RiIh3MJAeTsTOJWE8ifjYBCl+wlPHs1HVYXPOoy7quklgsbhCsDx4Oe9/zAY84J83sLHjAcbe16bUlbDnIKrDA0ZOx2OlEaiSdiWQy4QyIqkoVTgSeoUNnXK43tOsVSvhF0butf+RgkMZKER6ZHtA3ace9qYk4Gwl1T7lhve+TkaEP/OOeqYwvdlc0bYu2Ol2bHXXb3ASA7RYztMVOxYuJiNBnUEaJlsorja17lq78qs22YbIKaRYxmNI3ahFIFVqsrdhRoa8wrjIYO/RgIoLwRv0LtSsOtCzf32K/zcI6ZybHDDyABG3Ytdi0xgD9WHuVaRp487UmnNlMNt47Hj8dTwXY+GFDSEFCqIJxMECoa9IqVdNsRNoEfww57rEZV+ib362P/hU/t8MTPUnrDdocqN7kqN9eo1QrU/700Ed+/2eB9BhrHI61Zzvxe/4lr+Muq7FTn2dfjmXqBwij3fGRQ0FoA5V7qFCZVFX32twPOzUuBjyeN4YG9/qnxIqPqADUPu6qfcIFJQjZ87sGONOJWgKAmILlZJd5qZZxMWoLr4yOZVK+VOLcOCoPqaF8Kc485PqSZ9zO++2gAMCFVwe5qWID6RBCrLPWZxV9z13wfzFaTBGhw7jInzGc4mzFZhFyfc97godDzW/Vux90xnsSwwck7jgtjoV6EQ/E1553fOLWa2rYVKY8xJlHvw/1bfdA1ZJn3UrNtIQR6pcAUHmVEbUCeend7RMK8ymoS/U7ay3XVSJy+HT+GBGCRK/fUbPyUBufLhxj4ZHHapvaen3hJ3JORCKE9A1asIaPRTiBYgOVoQKlHSeCbfxCMulPZcYy6dBkFQIqpkqtq9fSV8nw8Qjqki5nQLGbgi4BIBNjtyp0NSIqyFT3hp6qjTbLNSbDMr12iQanUATlBbtV6JeIf/9o5zcSTlBZWNuIAUJVHEUCQPjXKFbUus6scTPJwRQnJhygwnjeHPIoFIhaLDZjU6PLx6lUKlKBNNpM/KaG09lkVigrpMBj9g1m0MO/RYWzfIoEALQGgW/HsEG27mk49cA/pHfgywvHMDHpTeEUTlFSsNs0vl6HhBn7OYzWVVxKIokh3P+iNzmUQnVv/7BRu7hAYJAbYBcTvxN/1n5nUWZsZOzbtJvMcNq5HQN8qYJjqo1M36xr29uAKEJEYnPx7wsgmjl1ZEvCJaIITUGkKxY9EU/5UxPjUzzokZgqBkmJRsh2s1nXyNYGHNxOzF4oFc777NjIsPYItp6tfTTtHRUAKEdYN75SZ7mBLWpIBt/Hwxf3BTK5IkMAINjy/INYyu3ZWZVZndfk4TGVvEgkAFRmlXOjHRWMpH74eLT3yf6kjyoIJXKAXZjcQZYED681j1SjztQ97WacTP/L3kvziq71Z8xr2X7OtNqArYPNYLOKceb0ZxVAkh5NIxSxSaMKhY5F1vawHRQO1N/VRzpURjaYAWzgbZ/k7puTm/yhBUDY8diK03y1yb3VOXJw+iafVcAsnJx27OJs/VUq0qMZfshxDGSAsIyeiIEZLg18GRThzBMklzMDQGRCRyM4OXWZ6ATWz7jSADs4IgYwBc9lfAo3NnayPTkECQXvn/kJw7HRDOQAyNM7vD/g2lK1/PPm4E/h4A+hSHcMTZhwIbHG+jadqdNgXW+25nIJgkSVbOshTpvEeUbzL1G2ax6rRvOIpy1CR/qmgmmulUAyqNBK2NRKZrIzw36Cbtm7+6IQJ18zzXgWAJDboJLYbzWb1hhNVxj0TboCPU9WEe9NRP6IRX6PBr4LkQpGY6I4jxwAqDAoRyIvtlA01VY1IGHtcXu0dDA3HUyLhIrsF1sSOSB8boL13NeHYhhgKFvF6Qo5EML6pTtrXZsced9Q8N0Js/xvH0JvSLcSfBnOerzHRD3lT5UyhqqC3x+w2RX8cMa/1wwA8K3PWyq+Rhlj/jvjmX4HogUwd9YTwLIxUAGYa+tLwUAFgGStvPf3M4qoPD/QyFIBkP31gcaCPB4+hrypgpcSZZSTAYY1R5dxl2gbxasbx0k54B4qKPk5NgkP4Es/xzovA0kD5OzE84Kk2E0lPFBM7P9DLwOYb1+UPVD2QIkrUA6hEhewZPEF74H/AEtvm5eo1bKjAAAAAElFTkSuQmCC;" parent="1" vertex="1">
                    <mxGeometry x="680" y="340" width="50" height="50" as="geometry"/>
                </mxCell>
                <mxCell id="52" style="edgeStyle=none;html=1;" parent="1" source="18" target="17" edge="1">
                    <mxGeometry relative="1" as="geometry">
                        <Array as="points">
                            <mxPoint x="570" y="654"/>
                            <mxPoint x="570" y="360"/>
                        </Array>
                    </mxGeometry>
                </mxCell>
                <mxCell id="72" style="edgeStyle=none;html=1;" parent="1" source="18" target="73" edge="1">
                    <mxGeometry relative="1" as="geometry">
                        <mxPoint x="484" y="270" as="targetPoint"/>
                    </mxGeometry>
                </mxCell>
                <mxCell id="18" value="EC2 Instances" style="shape=image;verticalLabelPosition=bottom;labelBackgroundColor=default;verticalAlign=top;aspect=fixed;imageAspect=0;image=data:image/png,iVBORw0KGgoAAAANSUhEUgAAADAAAAAwCAYAAABXAvmHAAAAAXNSR0IArs4c6QAAAERlWElmTU0AKgAAAAgAAYdpAAQAAAABAAAAGgAAAAAAA6ABAAMAAAABAAEAAKACAAQAAAABAAAAMKADAAQAAAABAAAAMAAAAADbN2wMAAADPklEQVRoBe1Yv08UQRT+5vYOoxiISNSQaDSoCVTaGUKsbGgsbIxWVppYwCn2UtnJRa0w0f/A0mhs7TRiCTGh0AQj5EAjRn7t3fg92L0sc7sLuzcHrLmXbGbmvZn33vfe7PwCWrS3EVC++cVRDOoqXrB93udZKKc0cKu7hA8WdIWqyPncJjgvqvsYoQnfRjPKfEDpRuS7OuGoMVQD/FTV+bs47BzAEgfbzGidL7UM+BIbzosu1208CL5PcWUdgLjO+1HWArDXWcl8BoKrkNVgrvag2vYLMyqHZauKDWVNA3BmDCu0ddawZ72ZGMDPIk7rHK5Do8OGN9xwlh2F10fG8TmNvkQA5kZwvKrwic53pTEWNkbOMlWNh+URDHQ/wcewPnG8RAAKCld4tumi0UlG7lWc4p3KqGuQfYeQwzWWzQVA5w+KY1phsnscj6TeKJXvY1hpDBHIoTS6Mr+MtgCkSbvNMa0M2IxmGl2JltE0BrYbU3XxxsljjlPhy3Z9w+R1AOQmFXYZ6XmOv2EKdsL7fjt6iXRXMOsCs6Inrp/IK+3QJ0tbz1ZBAFPs0yfXQH4mVcgI9jXloe3FIoa4Z7yk8ERohxTMchEzPAnc8HftmlPyesDNRC7gYXdYAZCYAs7LiZQmGqacUuiFwjNquiTaagC8p4+LDZvwFHjTQSK/fLQUPYWS2PvxAMcKFcxxTK8/bjeWURuR9/2tK3cDQJ3RtAy1zsljUKYAGL5vNDMFQLVlPAPZn0L/YwZq+0DYD2LyuIn82VgTNQYWiiiZcr+tHUysLeGb37ZVKpf/gOGx0Yw35QDvvHNLP1X1R/WmobeUWQeAAq0au0oiAJ0lLP4exYX1Cq7yEh75rJLLYzoKXCN8VYHik84WSgRARnY8RpmFHNBiabuTZezgCKHKEwCfQ4Jk4AmK9mGdGTC9yhQAyUCmASDrGeASmu0MrMk+YFCm/oGwKZR4GTUCENmUC7gnzM0P4xwc6LY8eS4/1rWUQl6du7fGOvnsowusr22W2ivbV6FX1earOAf6uutT4hm1Uizcw1cqOmVF2VYl73lNvSyspmVAlPPV+SZD9JThsgJCIs+fYFpr3BH9LdoPEfgHUrfEVIngvg0AAAAASUVORK5CYII=;" parent="1" vertex="1">
                    <mxGeometry x="460" y="630" width="48" height="48" as="geometry"/>
                </mxCell>
                <mxCell id="19" value="" style="shape=image;verticalLabelPosition=bottom;labelBackgroundColor=default;verticalAlign=top;aspect=fixed;imageAspect=0;image=data:image/png,iVBORw0KGgoAAAANSUhEUgAAADAAAAAwCAYAAABXAvmHAAAAAXNSR0IArs4c6QAAAERlWElmTU0AKgAAAAgAAYdpAAQAAAABAAAAGgAAAAAAA6ABAAMAAAABAAEAAKACAAQAAAABAAAAMKADAAQAAAABAAAAMAAAAADbN2wMAAAFwElEQVRoBe1Za2hcRRT+7t2maRMbs8mmPgNVDKngg/pDxYqutmBpBaOlolRRCY0/SkyyhRJRNAqVWm02YIVa8YH6q/0TfxQqtlRQfOGj0qqR1oKolZJ9tSS0ySY7fufuvfHm7r2b3WS2UsjA7MycOXPm+2bOzD33LjCf/t8VMCo1/fBWXGlOYNBQGDGrsb5+O9KVmKsiBCzwWXxGwC0CmpP8QBKrK0FCOwEveCEgqVIkzLx5Pb/TwBs4ZlvNsjyugFtyYziY6UVYz2x5K9oIuMHLaiuFNTbQiVwVoqxXhIQWAqe7cJlp+7zjKuOj/x3aph045SWR7ESdTXBOhRYCS8NI00WGHPB+h9VNAgrHGhoxMifk9mDOqSepPizMZFATHkBGLJ7qQE11LUZZPdcYR40zy9ktiCxZgpTRh5wjm0u5YC6D3WMJaJxtyUVT3U4kiiqU2anFhcqcU6v6RU9Amwt5l/UKIJsCXuMhk+fAfApaAS23UKILt8HE84wXvo70Y1uyG3Fl4DpeMz0M5uoMAy8xf9/Yj75kD3bwyr2eV+nWyAB+DQJWqlzPGTBxOVfifoJdaYUKBqJW20AzJ7hW6gR8px1G3G31mXpCCtoKTnK329ejr1JiC5aHJrEoZ+BZKjzsqxQkVHiL5HZnDYwsjeNEoNoMGAJ3YLgLrakz+I1b7sQ0BXNwxfcR/I/sEPCTzBLzl5IV3e1pGctbZA/H+KZUNx4lhqMMO672VaAw8BYyQ9jIbV9Gfx0kiTY+TQ8UGFEYoqyKuZX5KHVWFOj4CGjvL4qvYv6Z9n1XX8DzHH1InZBagDaWu5gLUuAO8MC9wIP3Bn2s2iZRsBMEvMFUeKTAaokC2r2PNjq86m7w7HsxEvcHL+MCCUhnQz+eKUaCK9lPN3hddGeTuDh7kjH0ucd6wZPgy+5+b70oAVGegcRqqqzyGi2jvZbn6C5Hv1zwMm7qDHA1hx1D3pIvJ1Zy3CndjdsZdR6hOEbZzeyc3S4YdJ/8OcJwDPdwHsvn7fk7ianTrnuLJHdmuQinCLAe8Wr5tYUEr5tl7DvCwScn8g8qP9UZZbkcjocU/hBFli1ckJBrUEl4pghUmWhyDZ5WzSo8yJXaTSHPLF7lE3RQFCYNfExCN0xTLqNhGjjM6/Qwh9wbjuPtVA9uZb2dOUv5xqp8X6HF80RjpykCQXF6ohttPMhvUj8PPo5eZzD993daqmX7GkdWTknyJ+g21g6wrlQcm0hCUjshvj+Ww7qmAevzTKDZoofYBr+Xo6uslXeBF4sNcbSR1UOB1mfoYKwUbRzAU46akKDNTWy/w1zDHdo/3I2o0+9XBhKYCbwYS/RgO6/RV/wMlyIjwF2JGJ5z65ZLYsqF3EakTuM1XPUCt3Hr0bXWcaudM9DCW+MLd3+RunXe6D5tXMFLqbfNret2J2J4jCd7sbvfXaducErHsCLcb8U6vkqpGNaSQD0n2UyFO3yVgoQGPuEZ+oA7eJoh+CE/Ndo1MjHcRAw/+fWLrCiBoEFeOV3pARqSm+lzWuwlqXdZb2XZzmd9PcudbH/DvhjrcpvdyPpKhitfsj6nFHgGyrQqn09OEtwvAopkhqRt5PCtOYnvrD7k+1i3+vgMOM/6fNLiQn7LqDYglGzG49ziCcZTH/np6JDpcqECLP+EUc1D+h5vmsAXloJBsxBUjMAssMxqyDwB97LxI0Dgg9HRK0XH0S2l1LYD8naWPot9qsN6R/adW75Yp8/gU4YP8hVDS9JCgK+FzUTzhIQG6Uuw14+EgF9Ui/18ukZ5uDfzpaheBwNt16iEHTmFgwTVwBhpkPvwpBq3/is4NzaKiAOe/X/zhSha7FtQOcS0EZBJ3STYPMC8his+xm3+Slaeba3gaU9PLCSGnOQh4Yil1A5ejGrdATEoyYdERcDLXBUh4JCYVAyZ+R8ZfX6VLp8X2xcs/dmDxbz3F16wCS/Gif4FuQ3tG/T2VYEAAAAASUVORK5CYII=;" parent="1" vertex="1">
                    <mxGeometry x="441" y="488" width="48" height="48" as="geometry"/>
                </mxCell>
                <mxCell id="28" value="Nat Gateway" style="shape=image;verticalLabelPosition=bottom;labelBackgroundColor=default;verticalAlign=top;aspect=fixed;imageAspect=0;image=data:image/png,iVBORw0KGgoAAAANSUhEUgAAADAAAAAwCAYAAABXAvmHAAAAAXNSR0IArs4c6QAAAERlWElmTU0AKgAAAAgAAYdpAAQAAAABAAAAGgAAAAAAA6ABAAMAAAABAAEAAKACAAQAAAABAAAAMKADAAQAAAABAAAAMAAAAADbN2wMAAAIq0lEQVRoBe1aa2xURRQ+s33wsMTEB68YaRAfMZL4Bh+gQSNBpC2FovwwYojiA0XaLoREjBJ/ILstEOszJjYxGrUouwVEjWgCxiBBjVHjE5+xRVETlUpb2h2/bzr3cvfuvdvbbkF/MMm9M/fMmTPfmTkzZ+bsihxP/+0IqKHoXotWyUq5VLTMjik5Q4uMh1znYRdtfNBZW0bLPlGyrT4te5QosBaWClKgoUpfA0A1EFIBGOMGCKUd6FuhcEtdSu0YYFuXfVAKJCr1FDRcBynTXUlavsXIpgFqL/I2AGvr6ZX2smGiO3tkPBQdjxkaj7qLVEaqkE9024rsRLsV8bR630OLVByQAuurdHmvlgQkz6d0reWAUtIUE9lcm1afROrRMjVW6skZkbmQsRQyTrXkTUVK4stT6vuosiIrkJijZ6iYtEDwSXg60HEjACRWtqq/o3YWxPdIhR6FAYhDiVrUn4DnD52RmvgW9XYQv58WSYFkpb4LDTfiKcaTKiqSu5a/qtr9wgr5Xne9HhsrkScgowpPD55l9Wn1eH8y+1UgUaUbsFdwdAR2+3BdSh4Yit0jCBh3s4YqWYO1cj/rtZLGeErVBfE6NMxeeOLIW/Cd0PSm+pRa/egsGRXeorAaDgz7YF+Q1Mm+7eyHCg6dAWvzb6BlMQXWpdVLDZX6cuwWu0DbWtotN9+7Xf0VKrnACvR1I/p6EWJ6sCZmhq2JwBngbmMXbLExG4AnHizcM5GxTUV3qexJztHnkH40EgeMfUN2MbEQU1A/gQrYrZK7TYo27zSEIO+MnQ1V9mCmKp36oc5t3ynIPcliyunCC8hUWie1Gx8dmcMyacVrar/TKlmhb4EKzXhasNB6QaetathqfaZTnlIjpMnh9ecwhy44s/XYdr/01+X7trvTN+A5ATKm+p0dt8WsBI3oYWkujV7wWUwi//SUyrLibpkKejl2i3t6SuTZEpFFPj73kyMF78x0h3lHfBFDokI3wk9wcRPbVd6mWQrwbAPg0/EcoJPyMnrLGPGJAE+3X46Hjmdx10jpKD0st3r53HJGroSSiwFiuEsbQIFYikSWoMl0YvSenbIUsAczQUdNK9PhHhZTOc30r+VjKDsXO8R3Fk+zzbMymB6ayOIs4gA+6O0BvAlS1mCwFqCpe/hzFzGdCKaIp0puM5sjyH/xoJbLPeAjNBk8S0ZZTEoqiNWR5CrQOEemgDgOi/PbsINZUYnswlDuBV8t3PzCB7eofxxB+XLf7pWPNbQuvll9SmxgGGuxGl7XhHSRzAaD6Jhw2wpMy19RFHBJYOUQEOF1z8XYXjahRJoXtCjuclmJ2OidDVYR7pTGKRkmLkxT0PKByQNea2v0idhmE9xqA6oLJ2lJAsczP3bJcy/XAKY/WWwuVtS7JoTB5xWQBzZe/wJTUbfMhvHV49kJV89dIVLCwuMi7j8pGWGYlCwMVMJic7GC2VUAZaMAb1JhPUFzbPUmlULIk1Di6QdrdGkYf0H0ACU82PoGGx24awBlQxxenEcBHCXMhqjka4zpaVDitrJumYxLybwRh+X37hEyNhB0Rk4x60tLWbJaTwjkIbHX9ROr8LUK1sCZEJjTzVwTxHao27QOVMDURHy9h9nYiAW3FfxTcQ3c1jVMlmPZvZOvPUxvHkDOy8fDOsjdHeuVmbCPHSgv/KlbPgQ5GdTOOwM0nbN4AUf+VRBzFk0hjCIY2b70BTrsxC7xQxbPkY8yFE/G04HntyPknBJncBipkHUhspGm3Ld9isVGkmvmOQqY6EGIAmYxYhhhDtUwn1soCWn96aUSt9teuaH4Xp5D4CZcWBb5qt1PbKOcwasxu9wgeFCEFcnSulb1KsvExu6RchVARRtAEZxrX/wMSbyVHQLvbfWt6vkQnkLIR8Cn1WOOIGAcZ8pa2h2auwvB1uikqPJFTmVOHpM/Le0HjNIVUcEPxhObkfeAZ78Y4ItN/zFE92xyFcAC3EaaCTo5tb4cF4w0dqEbsGjPx7R+5Ksu+JNWACEYS5iNDzyFY9DM5cnBSpqrQO0WczzejxmYmJirz2OlPyUrZDJOfM2wxYeeul07PsHPNujvzCG5vahYJgWBt5jOgPD9Fqvpx1XAhEq0tJKKWag2tb4XRuYCkE7BVN578BfZsaFCj/GxBH5G9cTxN1WHPW/lyInh2G6IwOgN67gKsBK2+rJteTcjZrYcmEGJaT1K9uJif9QOd07HxALTXcpvD0ZTnaWAvensRM1oVMQNh+flLkYt27Gi3kXVaTDCXckqvdDDllN02+XURCNYLKPBvdN7G2Nrrx8w0jCyK2Aqu2HrtbhQPx54L47Jrwd7ZX6Zks/QqByLa23iOt0adqmHCU3ihj6YxEs9sbAtsfll5CjAWz8cyiYwzmesErefaq/NGQEZGY2I7OsQWI7vLtxZV+FSXxp6qbfgYQYHTPuILxNq7IuXMui7yR+RoJgcBUhkiBtxmBkoVplYZUpWk+4mJbMAnulnnBCra1NqD0+loZd6MIK/K5MxZyfTMMrLxkkZ7P2DmILahE5sUGjRPRJQEtYAtJ9/X6v6JUhwoTQElRfANBkRzBtaDFWAAHDevxsjx2AVg7uLsP9/DnvcgfILZWOkfsnT6jD5hjrZuGgz5A5HX4FOzekzrwJkOtbhdTjLhzBIxmThkvsNr/erAJWwM7EBRa6ZFEKOdwbuTmQeZPL/wAFg9wV5ZL/4SAqwkf8nJpAasNCTQ/ETExZoPeTxh4yj8xMTBJvk/5EPxF8x3U0MOpm4jeWLkvFsw+OB9bB0UkxH70e+Pvl978CfWUX2wWbTmNK9vHxj8bc792vepEAfxwsJ6BfbUyUPZk46Nj+zOr05ORS5FmBq4GUZkgy+0DvMufl+bMWtULoFDuqt3OpolMhrIJ84ekyG+0zELNP3VwOYFm9Pfbc7Je04Tpi/GuDstI/neR6Jczx8vk6O1/1PR+BfJBwjTOVOgK4AAAAASUVORK5CYII=;" parent="1" vertex="1">
                    <mxGeometry x="270" y="360" width="48" height="48" as="geometry"/>
                </mxCell>
                <mxCell id="51" style="edgeStyle=none;html=1;entryX=0;entryY=0.75;entryDx=0;entryDy=0;" parent="1" source="29" target="17" edge="1">
                    <mxGeometry relative="1" as="geometry"/>
                </mxCell>
                <mxCell id="71" style="edgeStyle=none;html=1;" parent="1" source="29" target="73" edge="1">
                    <mxGeometry relative="1" as="geometry">
                        <Array as="points">
                            <mxPoint x="520" y="370"/>
                            <mxPoint x="540" y="248"/>
                        </Array>
                    </mxGeometry>
                </mxCell>
                <mxCell id="29" value="EC2 Instances" style="shape=image;verticalLabelPosition=bottom;labelBackgroundColor=default;verticalAlign=top;aspect=fixed;imageAspect=0;image=data:image/png,iVBORw0KGgoAAAANSUhEUgAAADAAAAAwCAYAAABXAvmHAAAAAXNSR0IArs4c6QAAAERlWElmTU0AKgAAAAgAAYdpAAQAAAABAAAAGgAAAAAAA6ABAAMAAAABAAEAAKACAAQAAAABAAAAMKADAAQAAAABAAAAMAAAAADbN2wMAAADPklEQVRoBe1Yv08UQRT+5vYOoxiISNSQaDSoCVTaGUKsbGgsbIxWVppYwCn2UtnJRa0w0f/A0mhs7TRiCTGh0AQj5EAjRn7t3fg92L0sc7sLuzcHrLmXbGbmvZn33vfe7PwCWrS3EVC++cVRDOoqXrB93udZKKc0cKu7hA8WdIWqyPncJjgvqvsYoQnfRjPKfEDpRuS7OuGoMVQD/FTV+bs47BzAEgfbzGidL7UM+BIbzosu1208CL5PcWUdgLjO+1HWArDXWcl8BoKrkNVgrvag2vYLMyqHZauKDWVNA3BmDCu0ddawZ72ZGMDPIk7rHK5Do8OGN9xwlh2F10fG8TmNvkQA5kZwvKrwic53pTEWNkbOMlWNh+URDHQ/wcewPnG8RAAKCld4tumi0UlG7lWc4p3KqGuQfYeQwzWWzQVA5w+KY1phsnscj6TeKJXvY1hpDBHIoTS6Mr+MtgCkSbvNMa0M2IxmGl2JltE0BrYbU3XxxsljjlPhy3Z9w+R1AOQmFXYZ6XmOv2EKdsL7fjt6iXRXMOsCs6Inrp/IK+3QJ0tbz1ZBAFPs0yfXQH4mVcgI9jXloe3FIoa4Z7yk8ERohxTMchEzPAnc8HftmlPyesDNRC7gYXdYAZCYAs7LiZQmGqacUuiFwjNquiTaagC8p4+LDZvwFHjTQSK/fLQUPYWS2PvxAMcKFcxxTK8/bjeWURuR9/2tK3cDQJ3RtAy1zsljUKYAGL5vNDMFQLVlPAPZn0L/YwZq+0DYD2LyuIn82VgTNQYWiiiZcr+tHUysLeGb37ZVKpf/gOGx0Yw35QDvvHNLP1X1R/WmobeUWQeAAq0au0oiAJ0lLP4exYX1Cq7yEh75rJLLYzoKXCN8VYHik84WSgRARnY8RpmFHNBiabuTZezgCKHKEwCfQ4Jk4AmK9mGdGTC9yhQAyUCmASDrGeASmu0MrMk+YFCm/oGwKZR4GTUCENmUC7gnzM0P4xwc6LY8eS4/1rWUQl6du7fGOvnsowusr22W2ivbV6FX1earOAf6uutT4hm1Uizcw1cqOmVF2VYl73lNvSyspmVAlPPV+SZD9JThsgJCIs+fYFpr3BH9LdoPEfgHUrfEVIngvg0AAAAASUVORK5CYII=;" parent="1" vertex="1">
                    <mxGeometry x="460" y="360" width="48" height="48" as="geometry"/>
                </mxCell>
                <mxCell id="33" value="RDS standby database" style="shape=image;verticalLabelPosition=bottom;labelBackgroundColor=default;verticalAlign=top;aspect=fixed;imageAspect=0;image=data:image/png,iVBORw0KGgoAAAANSUhEUgAAAEAAAABACAIAAAAlC+aJAAAAAXNSR0IArs4c6QAAAERlWElmTU0AKgAAAAgAAYdpAAQAAAABAAAAGgAAAAAAA6ABAAMAAAABAAEAAKACAAQAAAABAAAAQKADAAQAAAABAAAAQAAAAABGUUKwAAAHoUlEQVRoBe1ZeWwUZRTf7e7s3T27XballN4tR0ES8YgXonglRoPGBMJfokZj/EcxHiAJmngnHiGGGDRG/UOMhATReBKiMYBGbUGgaC2U7bbLttvt3t2j62/2K9Ppzu7M19mW2mQnk91v3vfem/f73vG9mVEea+lSLOSjYiEbz9peBjDfHix7oOyBElegHEIlLmDJ4gveA2rxJWh9v8F6Y2VBnuOt3QXp8oirDrdrazVC2eCR8NmH+oR0jiLhgWLWc/JzPZA0QMIDnH3xvxOnt/ybDqQ5yuwOutad4RSq7eqOjxv1LTqOIjKQ8ACRhPVQB6VQLaJrVqY463FTGoVUALD2lwcD33rcdNYAIHIuA4Y86ynDlcoDWIm5xiDPehhGC2BOMci2XhrA+EASJ/jIwfeD/Q7LJXKp/1CFIiGv0CllPFIyDrXtdsvFT0dKNZwnX73ZEfh6jDLueXIKOQD48vxxha5C36oztOkM7TqNW6O2qkABw0RiIh3MJAeTsTOJWE8ifjYBCl+wlPHs1HVYXPOoy7quklgsbhCsDx4Oe9/zAY84J83sLHjAcbe16bUlbDnIKrDA0ZOx2OlEaiSdiWQy4QyIqkoVTgSeoUNnXK43tOsVSvhF0butf+RgkMZKER6ZHtA3ace9qYk4Gwl1T7lhve+TkaEP/OOeqYwvdlc0bYu2Ol2bHXXb3ASA7RYztMVOxYuJiNBnUEaJlsorja17lq78qs22YbIKaRYxmNI3ahFIFVqsrdhRoa8wrjIYO/RgIoLwRv0LtSsOtCzf32K/zcI6ZybHDDyABG3Ytdi0xgD9WHuVaRp487UmnNlMNt47Hj8dTwXY+GFDSEFCqIJxMECoa9IqVdNsRNoEfww57rEZV+ib362P/hU/t8MTPUnrDdocqN7kqN9eo1QrU/700Ed+/2eB9BhrHI61Zzvxe/4lr+Muq7FTn2dfjmXqBwij3fGRQ0FoA5V7qFCZVFX32twPOzUuBjyeN4YG9/qnxIqPqADUPu6qfcIFJQjZ87sGONOJWgKAmILlZJd5qZZxMWoLr4yOZVK+VOLcOCoPqaF8Kc485PqSZ9zO++2gAMCFVwe5qWID6RBCrLPWZxV9z13wfzFaTBGhw7jInzGc4mzFZhFyfc97godDzW/Vux90xnsSwwck7jgtjoV6EQ/E1553fOLWa2rYVKY8xJlHvw/1bfdA1ZJn3UrNtIQR6pcAUHmVEbUCeend7RMK8ymoS/U7ay3XVSJy+HT+GBGCRK/fUbPyUBufLhxj4ZHHapvaen3hJ3JORCKE9A1asIaPRTiBYgOVoQKlHSeCbfxCMulPZcYy6dBkFQIqpkqtq9fSV8nw8Qjqki5nQLGbgi4BIBNjtyp0NSIqyFT3hp6qjTbLNSbDMr12iQanUATlBbtV6JeIf/9o5zcSTlBZWNuIAUJVHEUCQPjXKFbUus6scTPJwRQnJhygwnjeHPIoFIhaLDZjU6PLx6lUKlKBNNpM/KaG09lkVigrpMBj9g1m0MO/RYWzfIoEALQGgW/HsEG27mk49cA/pHfgywvHMDHpTeEUTlFSsNs0vl6HhBn7OYzWVVxKIokh3P+iNzmUQnVv/7BRu7hAYJAbYBcTvxN/1n5nUWZsZOzbtJvMcNq5HQN8qYJjqo1M36xr29uAKEJEYnPx7wsgmjl1ZEvCJaIITUGkKxY9EU/5UxPjUzzokZgqBkmJRsh2s1nXyNYGHNxOzF4oFc777NjIsPYItp6tfTTtHRUAKEdYN75SZ7mBLWpIBt/Hwxf3BTK5IkMAINjy/INYyu3ZWZVZndfk4TGVvEgkAFRmlXOjHRWMpH74eLT3yf6kjyoIJXKAXZjcQZYED681j1SjztQ97WacTP/L3kvziq71Z8xr2X7OtNqArYPNYLOKceb0ZxVAkh5NIxSxSaMKhY5F1vawHRQO1N/VRzpURjaYAWzgbZ/k7puTm/yhBUDY8diK03y1yb3VOXJw+iafVcAsnJx27OJs/VUq0qMZfshxDGSAsIyeiIEZLg18GRThzBMklzMDQGRCRyM4OXWZ6ATWz7jSADs4IgYwBc9lfAo3NnayPTkECQXvn/kJw7HRDOQAyNM7vD/g2lK1/PPm4E/h4A+hSHcMTZhwIbHG+jadqdNgXW+25nIJgkSVbOshTpvEeUbzL1G2ax6rRvOIpy1CR/qmgmmulUAyqNBK2NRKZrIzw36Cbtm7+6IQJ18zzXgWAJDboJLYbzWb1hhNVxj0TboCPU9WEe9NRP6IRX6PBr4LkQpGY6I4jxwAqDAoRyIvtlA01VY1IGHtcXu0dDA3HUyLhIrsF1sSOSB8boL13NeHYhhgKFvF6Qo5EML6pTtrXZsced9Q8N0Js/xvH0JvSLcSfBnOerzHRD3lT5UyhqqC3x+w2RX8cMa/1wwA8K3PWyq+Rhlj/jvjmX4HogUwd9YTwLIxUAGYa+tLwUAFgGStvPf3M4qoPD/QyFIBkP31gcaCPB4+hrypgpcSZZSTAYY1R5dxl2gbxasbx0k54B4qKPk5NgkP4Es/xzovA0kD5OzE84Kk2E0lPFBM7P9DLwOYb1+UPVD2QIkrUA6hEhewZPEF74H/AEtvm5eo1bKjAAAAAElFTkSuQmCC;" parent="1" vertex="1">
                    <mxGeometry x="680" y="610" width="50" height="50" as="geometry"/>
                </mxCell>
                <mxCell id="35" value="" style="shape=image;verticalLabelPosition=bottom;labelBackgroundColor=default;verticalAlign=top;aspect=fixed;imageAspect=0;image=data:image/png,iVBORw0KGgoAAAANSUhEUgAAACgAAAAoCAIAAAADnC86AAAAAXNSR0IArs4c6QAAAERlWElmTU0AKgAAAAgAAYdpAAQAAAABAAAAGgAAAAAAA6ABAAMAAAABAAEAAKACAAQAAAABAAAAKKADAAQAAAABAAAAKAAAAAB65masAAACe0lEQVRYCWOsWijGMBCAaSAsBdk5ajHdQn7AgpqFVC+KC2jY6+QpSlhxc4h8+/nuwcsTh69Offr2IqnmkGAxIyOTnXaOlVbaoStTjt2Y9frjHWFeJXkxsxjHRWfvLNt3sfff/z/EW89IfD621c7WkvNcfjDl07cXyBZwcwiH28549PrsngsdyOL42cTGsSi/qo125oqDaWi2Ak3/+uPtikPpxiqR0sIG+C1DliXWYhvtrGPXZ3/89gxZM5wNjOyDlyfa6eTARQgyiLVYUczi4atTeIx7+OqkgrgFHgVoUsRazMMp+vL9dTTNyNyXH25ysQsxMjAiC+JhE2sxIyPz33+/8BgESdLAlI9HDbIUseqQ9VCFPfIsxleA1ITf5GQXIC9gv//60LpC4z/Df1za8RWZQFurF4nj0olfvDn2GTCh/f//F5eykRfH+IIaVygBy21PkwYpId1XH27tONv47N1lTJUESxKSg5qTTSDRddX1xzumbnE9e3d5vMtyPi4JTIsJipBssZqM86NXp0/fWvz5+8uL99ZefbhVW96XoDWYCki2mJWJ/fffH3CD/vz9ycLEBucSzyDZ4ptP92jIuKpLuwBzi6K4lYFSyLVH24i3D66S5MT1+furJfvj/cw7Y5wWvv10f/WRrLef78ONI55Bso+BRgMr5smbHRkYGCdtsr/97ADxliGrJMdiZP242HgKS4gWWlmMy0FwcfIt3n+x9///f3CD0BgECxCSExfcgn2XeuFsTMbgDWp8Pv7x6yOwdsP0DTEiv35/xRMRQBPwNQSA8UR84w3NNUBb8Yc2Ph8DdeKpydFsIpVLfqom1SY09aMWowUI7bgAIgfJCsZyc3UAAAAASUVORK5CYII=;" parent="1" vertex="1">
                    <mxGeometry x="240" y="330" width="30" height="30" as="geometry"/>
                </mxCell>
                <mxCell id="36" value="AWS Cloud" style="shape=image;verticalLabelPosition=bottom;labelBackgroundColor=default;verticalAlign=top;aspect=fixed;imageAspect=0;image=data:image/png,iVBORw0KGgoAAAANSUhEUgAAACgAAAAoCAIAAAADnC86AAAAAXNSR0IArs4c6QAAAERlWElmTU0AKgAAAAgAAYdpAAQAAAABAAAAGgAAAAAAA6ABAAMAAAABAAEAAKACAAQAAAABAAAAKKADAAQAAAABAAAAKAAAAAB65masAAAEgElEQVRYCWNU0bdjGAjANBCWguwctZhuIT8a1KNBTbMQGE1ckKBVlJftaq46sH3V1VN7DmxbWZybyszMrKGmsnTuRHMTA4gaHw9nINdATwvC9XB1AHL5+fmkJMSn9DSdObj58slda5fMsDI3xhpdLFhFDfV1/v//N2navC9fv9pamWUkx7x7/3H1+q1G+jr+3m4nz1wA6gr29zQzNvB0dbxw6RqQGx7kA7Ty48dPi2b2CQsJdvRP//Tps6a6qqiIMFYrsFu8btN2IIJo2LXvsK21uZW50fwlq06cPg/xATMTE9ARZ85fNjHSAypjZWU1NtRdvnoTkKGuqgR04poN24DiQL1YbQUKYrcYKAF0tbGBDg8Pz4uXr4BuFxTgBwru2X+koapQRlpSSICfjY115rylMya0cnFx6mqpc3Jw7Np76Pfv3wcOnwgN9Aa6YOvOfcdPnfvz5w9Wu7Fb7Opo29tW8+79h7v3Hwnw86ooyV+/eQdk8YEj9ZUFQE/zcHNdvnbz+Kmz//79A3rd1Fj/9Zt35y9dBaopqW7NSo3183IFxsXrN2/L6zoOHzuFaTcj1obAkV1rf/365eoX/fffP6CeDctn//37NzgmA8het2zWw4dPODjZ79572DNp1vJ5k0+dvWBlbnL95u261j64BYyMjMBk2NFY8ePnT4/AOLg4nIElHzMxMQkJ8j9++hxiq4qSgqqyIi8vD0TPnn2HLcyMTA31Tp+7CBQB2upoZ6WrowGPTmAUAMX///8PTBDAoBYXEwE6Am4fnIElqIGht+/gMVcn25kT2799+26or33m/CVg8MrJSj16/AwY2oU5KUA3AVMW0BRgCs9Kjfv0+QvQGiBXWVF+zZLpQPtev36nrCRvaqQ3Y+4SoCPg9sEZ2IOag509OjwA6NG79x9u3Lr758+fQIu37z4A0QZMO9+//9iyYy+QC8zf0WH+Dx8/PXjkJETW2sLEztpcQlwUmLX2HTp+4PBxiDgaid1iNEW04GIJampZAyxPtDRUOTk5bt99cOMWKFMgAywWG+ppX7h8DWvEIOvEzw7wcXOytwZma011FRkpST1LdzT1zEIS8mhCpkb6DVVF3759u/fgEdnW37h1F5gmgEXK/YePjQx0lqxcj2YLFotv3bl39vyl2vK8xJhQPj7et+/ev//wEU0bQa6sjFRsRFBeRuKvX78fPHwMSfPIunAmLmB2TImLSIoNA1Y4N2/fO3zs5JVrt65evwVMwLiCQUxUREdLDVhzWJgaamuq7T90rLV7SllBRk1zD6bTcVoMcR2wHI4JD0yOCxcSFICIAOurV6/efvz8+SMw8375ysbGBiw+gSW5vKw0UDFQDbCMO3T05KLl644cPw0sOhQVZO/dfwTRi0wSsBiilIWFBVgg21mbATOohpoy1pIIWFZfvHLt5OkLW3bsefP2PbIdWNlEWYysE5g9REWERISERESEuLk4P3z8/OHDxxevXj9/8QpZGUE2yRYTNJFIBVgqCSJ1Uqhs1GIKA5B47aNBTXxYUahy5AU1AD0k0AuulD18AAAAAElFTkSuQmCC;" parent="1" vertex="1">
                    <mxGeometry x="58" y="95" width="40" height="40" as="geometry"/>
                </mxCell>
                <mxCell id="40" value="" style="shape=image;verticalLabelPosition=bottom;labelBackgroundColor=default;verticalAlign=top;aspect=fixed;imageAspect=0;image=data:image/png,iVBORw0KGgoAAAANSUhEUgAAACgAAAAoCAIAAAADnC86AAAAAXNSR0IArs4c6QAAAERlWElmTU0AKgAAAAgAAYdpAAQAAAABAAAAGgAAAAAAA6ABAAMAAAABAAEAAKACAAQAAAABAAAAKKADAAQAAAABAAAAKAAAAAB65masAAACd0lEQVRYCWNkWLKMYSAA00BYCrJz1GK6hfyABTULqV7UEeCv0NZyEBMX5WB/+/Pn4Vevu65dP/vuHanmMDMEBROph4mRsVxba5qZ6ZpHj7uuXSs7f3Hn8+dAvVPNTARYWYEu+EekQWBljMTn41ItzQAZmdDDR559/45shSg7+zIbqxNv3tZevIQsjp9NbBxr8vMVa2qEHzmKZivQ9Nc/f0YeOZakrGQiLITfMmRZYi0G2jrxxs0n374ha4az3/z82XblarmWFlyEIINYi+3ExI6+foPHuCOvX9uKieJRgCZFrMXiHByXP3xA04zMvfrhowg7OyOyEF42sRYzMzL++ocv2f75/x9oETDl47UOIUmsxQgdVGKNPIvxFSBvQ4OF2NjIC9r3v34Jr14LinYcAF9ZDbSVcelyHBoJCP+JigAmtL/gFIdV6ciLY3xBjTWIgIIafHy9xoaGgoLXPn4qPXf+/Pv3mCoJZmeSg1qQjW23s+PGx0+Nt++cf/fedicHKU5OTIsJipBssZeUFLDQnnXnzvPv35c+eLDu8eMQOVmC1mAqINliDmbmH3//wg368fcfOzMznEs8g2SLtz576i0tBfQ3MLfYi4nFKCqsf/yEePvgKklOXC++/wg4eHiamclGB7s7nz/HHD0GJOHGEc8g2cdAo4++fq2/dTsw3eps2bbr+QviLUNWSY7FyPpxsfEUlhAttLIYl4Pg4uRb3HT5yj/cRTHBAoTkxAV3MtBiOBuTMXiDGp+PP/z6BazdMH1DjMiXP3/wRATQBHwNAWA8Ed94Q3MN0Fb8oY3Px0CdeGpyNJtI5ZKfqkm1CU39qMVoAUI7LgAoX8MiWl1UgAAAAABJRU5ErkJggg==;" parent="1" vertex="1">
                    <mxGeometry x="630" y="330" width="30" height="30" as="geometry"/>
                </mxCell>
                <mxCell id="41" value="" style="shape=image;verticalLabelPosition=bottom;labelBackgroundColor=default;verticalAlign=top;aspect=fixed;imageAspect=0;image=data:image/png,iVBORw0KGgoAAAANSUhEUgAAACgAAAAoCAIAAAADnC86AAAAAXNSR0IArs4c6QAAAERlWElmTU0AKgAAAAgAAYdpAAQAAAABAAAAGgAAAAAAA6ABAAMAAAABAAEAAKACAAQAAAABAAAAKKADAAQAAAABAAAAKAAAAAB65masAAACd0lEQVRYCWNkWLKMYSAA00BYCrJz1GK6hfyABTULqV7UEeCv0NZyEBMX5WB/+/Pn4Vevu65dP/vuHanmMDMEBROph4mRsVxba5qZ6ZpHj7uuXSs7f3Hn8+dAvVPNTARYWYEu+EekQWBljMTn41ItzQAZmdDDR559/45shSg7+zIbqxNv3tZevIQsjp9NbBxr8vMVa2qEHzmKZivQ9Nc/f0YeOZakrGQiLITfMmRZYi0G2jrxxs0n374ha4az3/z82XblarmWFlyEIINYi+3ExI6+foPHuCOvX9uKieJRgCZFrMXiHByXP3xA04zMvfrhowg7OyOyEF42sRYzMzL++ocv2f75/x9oETDl47UOIUmsxQgdVGKNPIvxFSBvQ4OF2NjIC9r3v34Jr14LinYcAF9ZDbSVcelyHBoJCP+JigAmtL/gFIdV6ciLY3xBjTWIgIIafHy9xoaGgoLXPn4qPXf+/Pv3mCoJZmeSg1qQjW23s+PGx0+Nt++cf/fedicHKU5OTIsJipBssZeUFLDQnnXnzvPv35c+eLDu8eMQOVmC1mAqINliDmbmH3//wg368fcfOzMznEs8g2SLtz576i0tBfQ3MLfYi4nFKCqsf/yEePvgKklOXC++/wg4eHiamclGB7s7nz/HHD0GJOHGEc8g2cdAo4++fq2/dTsw3eps2bbr+QviLUNWSY7FyPpxsfEUlhAttLIYl4Pg4uRb3HT5yj/cRTHBAoTkxAV3MtBiOBuTMXiDGp+PP/z6BazdMH1DjMiXP3/wRATQBHwNAWA8Ed94Q3MN0Fb8oY3Px0CdeGpyNJtI5ZKfqkm1CU39qMVoAUI7LgAoX8MiWl1UgAAAAABJRU5ErkJggg==;" parent="1" vertex="1">
                    <mxGeometry x="630" y="600" width="30" height="30" as="geometry"/>
                </mxCell>
                <mxCell id="55" value="" style="endArrow=none;dashed=1;html=1;exitX=0;exitY=1;exitDx=0;exitDy=0;fillColor=#FF8000;strokeColor=#FF8000;" parent="1" edge="1">
                    <mxGeometry width="50" height="50" relative="1" as="geometry">
                        <mxPoint x="549" y="709" as="sourcePoint"/>
                        <mxPoint x="549" y="329" as="targetPoint"/>
                    </mxGeometry>
                </mxCell>
                <mxCell id="60" value="" style="group" parent="1" vertex="1" connectable="0">
                    <mxGeometry x="229.99999999999994" y="550" width="570" height="170" as="geometry"/>
                </mxCell>
                <mxCell id="56" value="" style="endArrow=none;dashed=1;html=1;fillColor=#FF8000;strokeColor=#0000FF;" parent="60" edge="1">
                    <mxGeometry width="50" height="50" relative="1" as="geometry">
                        <mxPoint x="570" as="sourcePoint"/>
                        <mxPoint as="targetPoint"/>
                    </mxGeometry>
                </mxCell>
                <mxCell id="57" value="" style="endArrow=none;dashed=1;html=1;fillColor=#FF8000;strokeColor=#0000FF;" parent="60" edge="1">
                    <mxGeometry width="50" height="50" relative="1" as="geometry">
                        <mxPoint x="570" y="170" as="sourcePoint"/>
                        <mxPoint y="170" as="targetPoint"/>
                    </mxGeometry>
                </mxCell>
                <mxCell id="58" value="" style="endArrow=none;dashed=1;html=1;fillColor=#FF8000;strokeColor=#0000FF;" parent="60" edge="1">
                    <mxGeometry width="50" height="50" relative="1" as="geometry">
                        <mxPoint x="5.684341886080802e-14" as="sourcePoint"/>
                        <mxPoint x="5.684341886080802e-14" y="170" as="targetPoint"/>
                    </mxGeometry>
                </mxCell>
                <mxCell id="59" value="" style="endArrow=none;dashed=1;html=1;fillColor=#FF8000;strokeColor=#0000FF;" parent="60" edge="1">
                    <mxGeometry width="50" height="50" relative="1" as="geometry">
                        <mxPoint x="570" as="sourcePoint"/>
                        <mxPoint x="570" y="170" as="targetPoint"/>
                    </mxGeometry>
                </mxCell>
                <mxCell id="61" value="" style="group" parent="1" vertex="1" connectable="0">
                    <mxGeometry x="219.99999999999994" y="300" width="570" height="170" as="geometry"/>
                </mxCell>
                <mxCell id="62" value="" style="endArrow=none;dashed=1;html=1;fillColor=#FF8000;strokeColor=#0000FF;" parent="61" edge="1">
                    <mxGeometry width="50" height="50" relative="1" as="geometry">
                        <mxPoint x="570" as="sourcePoint"/>
                        <mxPoint as="targetPoint"/>
                    </mxGeometry>
                </mxCell>
                <mxCell id="63" value="" style="endArrow=none;dashed=1;html=1;fillColor=#FF8000;strokeColor=#0000FF;" parent="61" edge="1">
                    <mxGeometry width="50" height="50" relative="1" as="geometry">
                        <mxPoint x="570" y="170" as="sourcePoint"/>
                        <mxPoint y="170" as="targetPoint"/>
                    </mxGeometry>
                </mxCell>
                <mxCell id="64" value="" style="endArrow=none;dashed=1;html=1;fillColor=#FF8000;strokeColor=#0000FF;" parent="61" edge="1">
                    <mxGeometry width="50" height="50" relative="1" as="geometry">
                        <mxPoint x="5.684341886080802e-14" as="sourcePoint"/>
                        <mxPoint x="5.684341886080802e-14" y="170" as="targetPoint"/>
                    </mxGeometry>
                </mxCell>
                <mxCell id="65" value="" style="endArrow=none;dashed=1;html=1;fillColor=#FF8000;strokeColor=#0000FF;" parent="61" edge="1">
                    <mxGeometry width="50" height="50" relative="1" as="geometry">
                        <mxPoint x="570" as="sourcePoint"/>
                        <mxPoint x="570" y="170" as="targetPoint"/>
                    </mxGeometry>
                </mxCell>
                <mxCell id="54" value="" style="endArrow=none;dashed=1;html=1;exitX=0;exitY=1;exitDx=0;exitDy=0;fillColor=#FF8000;strokeColor=#FF8000;" parent="61" edge="1">
                    <mxGeometry width="50" height="50" relative="1" as="geometry">
                        <mxPoint x="20.000000000000057" y="410" as="sourcePoint"/>
                        <mxPoint x="20.000000000000057" y="30" as="targetPoint"/>
                    </mxGeometry>
                </mxCell>
                <mxCell id="66" value="AZ1" style="text;html=1;align=center;verticalAlign=middle;whiteSpace=wrap;rounded=0;" parent="1" vertex="1">
                    <mxGeometry x="220" y="299" width="60" height="30" as="geometry"/>
                </mxCell>
                <mxCell id="67" value="AZ2" style="text;html=1;align=center;verticalAlign=middle;whiteSpace=wrap;rounded=0;" parent="1" vertex="1">
                    <mxGeometry x="230" y="560" width="60" height="30" as="geometry"/>
                </mxCell>
                <mxCell id="68" value="" style="endArrow=none;dashed=1;html=1;exitX=0;exitY=1;exitDx=0;exitDy=0;fillColor=#FF8000;strokeColor=#FF8000;" parent="1" edge="1">
                    <mxGeometry width="50" height="50" relative="1" as="geometry">
                        <mxPoint x="630" y="710" as="sourcePoint"/>
                        <mxPoint x="630" y="330" as="targetPoint"/>
                    </mxGeometry>
                </mxCell>
                <mxCell id="69" value="" style="endArrow=none;dashed=1;html=1;exitX=0;exitY=1;exitDx=0;exitDy=0;fillColor=#FF8000;strokeColor=#FF8000;" parent="1" edge="1">
                    <mxGeometry width="50" height="50" relative="1" as="geometry">
                        <mxPoint x="759" y="709" as="sourcePoint"/>
                        <mxPoint x="759" y="329" as="targetPoint"/>
                    </mxGeometry>
                </mxCell>
                <mxCell id="70" value="" style="shape=image;verticalLabelPosition=bottom;labelBackgroundColor=default;verticalAlign=top;aspect=fixed;imageAspect=0;image=data:image/png,iVBORw0KGgoAAAANSUhEUgAAAEAAAABACAIAAAAlC+aJAAAAAXNSR0IArs4c6QAAAERlWElmTU0AKgAAAAgAAYdpAAQAAAABAAAAGgAAAAAAA6ABAAMAAAABAAEAAKACAAQAAAABAAAAQKADAAQAAAABAAAAQAAAAABGUUKwAAAIkElEQVRoBe1ZCWwUVRjemW736rbbk7agKOVSUKBSLEdE5IioBRICingQRBEEU5TIpWKMVqMEQTkqnggoVBAVEDAioOFqPIoCgiDI2VJ6wLbd+xi/6Wtnd2d2Zt6wNEbTl037v/99//Xu9w9zMq9A918u7H/Zed731gD+7RFsHYHWEYixB1qnUIwdGLP4/30EGEN82szJcSm2q+upnJ8243d1spRSKiOQ+vRE27gR2cVF2mJgWX1muqnnzcQJEKjqWBVblB6LYIzyXQh+Z7/7miGnvffkmYqpzwcu20XyoSrDmHp1t/TLNd/ey3BTRyYuLtTUSHGBgPfYSVfpQeeBMvfBIzqOEwGEKhOv53x+oapMqAQAYdUYWIvJWjDU9kBBfPt2TcaCnL+m1l9+iQyC+7ej+rZt9OmpOoYhAN/ZC/aSLQ1bdgSdbpF/cbbE7OWv1m/eYV9HNffUA+BjSLVlF0cfB+s9d6XNmAQAYP7ySsfOfc7SMnfZEc7jBYcsgFN9RoBmjAZTbndLfm7CkAH67DbgBGrtNYs+aNi+GzQpxHtDlxzf6fPnHyrkvLwS5UIVAFREHYeM+YWJI4aiFX1sX7PR8WOpLhgxMcIDCPnBMgkD822PjDb14BdJ/abvql55hzfR2Pe892culD85N1BzOSQiT9EGwBuQrAd4kPnGnJolKxu27pI3IduSeN/g1OkTKme97j507Oq8h2oNAUSNgdHrOT/tgpOGQsSv2nso1La1YReqmDLPe+qsoeMNZG+NxXuYh3gs3kODthEgXaiwpgmAMZuSx4+yDOoX374tTPjOnMfitq/9mqxsghH+8gEUFzEGA/28F2RBaAsg4/np9vVbvcdPKcSQMLh/2swn9G3Sw82A9l+sqnnrA8eufSI+qohBp9dj1WIF28beW1W0VIqR48QVtu0i1ybiJxYMSZnysGVAnr1kM+d0O3buBY25ZOnfu2Hbbs7nA942flTGi4VsggX7UvWCFTWLP7R/+pXn4BHsm0Bah90RrG/wHD4u0oyR4VxuHNXtVi405/XAduw98bcII1elDYC1JmQtms+ajNVvFHtPnIY6zuUhMbh/OeTYfQAc4y1dM1+bhdMKu3t10VLshpzThR+I+k04s1yWvrn4Off/GqiqieIQx+FkwACaenar37id9EgUWCSLdhEnjhwal5zkLjvcsP0HQQPslT/2HHqacFImjkUv2td8af/sawHTRHAczy/ZDEDyxPvFrc11HGo4BLFfJ44a1sxT+U8XAMsk3c+nj66s2ijSF3Q4BQ7uQjxmtRgjAOo+/wa0OZeHyZUrq79AE2+Obbp3yCEJnyoAc17P+HZZvnPlzr0/K6hjk6xoDdRekcPgCoQmApPDOPf87DtXAXPm3j3kMOF8ugD65kLG8f1ehStkuNKYaI5zfL8HGsz9bqPRQxWAJb8XdLkOlNFojB1DDBGjqtrUA8CjzNC5A45M9+9HVdVdEwAM4fFg6NQBDwNVhRQIPKYYxl9ZrfDIyFr8Es4EYozmDQkMltPFGS9H9Q+GApXV+raZ+swM3/mKqBiBqT4C+iz+7o7XiSAjJQTvpU1yHGURX3klBPXZGXLiAl/lKiHtTvI6EeQJEf3ej4uK0QCA9AokhweY0qLggPoUEqCaCLyJ0+dOsxYMhlTDlp3Vry/DtNakgRKsEgD629ynJx6prp9+q3jqBUqlgCU9OBKnKXEahPf0OZzE4Es7WKSTjHD28iJznx6wCLsigKiqvgZwi4QMecWKhBWquJOhterlt/EDQaoKeFETmf3+i0oLj4iojABA2H9wfmFDwKygnwa4UUKWvx01FlIFSTpYeRzwTNNnZcAob1qtqI8AUgN4gmFLNt7aVU1bqP3yhyWew3/Gd7geP8+R46iG2tQoGEIMyERxXv6KrlzUA4A8slH4a87nLxSUBa+T8slzCLj8idlCigF9r9z9EEFqDH+JUVVzdAE0XiKsQwaoqgsHCAefQIS3ytIMQwxdywCQq8J0xGQwN16KZG1TNGANkGUgh4UJGMLOAaNymHA+1QjogsG69fxVPvnh0eHCqrSqu1INxETdhq0wKm2VctR3ISJT9+W3yRPGmPvmJgzq59i9X6oIHNXJHVWKz1o3+5pwV3+MQLDeAXPRwRIu3QjodMG6+tpln0A87dnHeZORRfmhE4ltqhERvICvW72IpFahNu2ZSWiuXboS5qJKSZkqd6EIAZbJLJplX7cJGQckQrA08U6PAGitsCy8RyoF23TF1Hl4YSObbRs3snLem/QvJy0BNPtHcmlBj/fi9PkxxhDKLyGGKfOUvj80Wxf9F08GUbO0SrxHt8UlJSIDJwVo4qDX0fd8rjKnPb6kIB+hSRxgbQEI3ocy4HS5A1m3WCYiBq3fsjQFIPXeeFPH6zessAzMl/VPsSHhznyIG7vmhGJozhkrykU00mbmeO+Li0RfH9IKJ5l732K9eyBycoFqfFPiL3DhBRtryuTxl99fG84Ejctp+uypKZPGQS1rMTt27RfyfHyuckAeMiCc2yOSilqlWsR4WLX7aIHIe14dEl6j70md9igSj6h5/zrt2LHHWXrQ88cJsrWTk6Hp6GVZY7fOSC3iE5Oh043ABxsctctW1W3cJnzXCa1p1W+KkG8sVAEAmfL4OOvwQVEz4Eg5Jo4ebhtzX1xGKlGKzvNXXPJVXELeFxznvl/is9vgRcGYjAQQqKq1b/gGCdDAlTrCEf5qjYE2ABjAnsPnkGUKLsBIRaGDcWmNv6H5c2UkGEvfVVqGz6yu/b8qfBnRFIOGACKdUaphWuNFgi5HugU4pE8wILif0R8aQgz42Fqz8D0FYy0SgGAvYg0IXDoCMSRPfKB2ycfKz5qWDYDO1ZhQ2g6ymEy1jHBrAC3Tr/RaW0eAvq9aBtk6Ai3Tr/RaW0eAvq9aBvkP/Vb8Nru54t8AAAAASUVORK5CYII=;" parent="1" vertex="1">
                    <mxGeometry x="590" y="210" width="50" height="50" as="geometry"/>
                </mxCell>
                <mxCell id="74" style="edgeStyle=none;html=1;" parent="1" source="73" target="70" edge="1">
                    <mxGeometry relative="1" as="geometry"/>
                </mxCell>
                <mxCell id="73" value="" style="shape=image;verticalLabelPosition=bottom;labelBackgroundColor=default;verticalAlign=top;aspect=fixed;imageAspect=0;image=data:image/png,iVBORw0KGgoAAAANSUhEUgAAADAAAAAwCAYAAABXAvmHAAAAAXNSR0IArs4c6QAAAERlWElmTU0AKgAAAAgAAYdpAAQAAAABAAAAGgAAAAAAA6ABAAMAAAABAAEAAKACAAQAAAABAAAAMKADAAQAAAABAAAAMAAAAADbN2wMAAAHsUlEQVRoBe1Xe2yT1xW/59omdhpgPBtKKLHjjFG2jmI7WUbXpg+1hdgQ1qHu1TFtazWmAao6dZq0R4W2dZqial1VtfzRTVsfiEVt1jiPvdoVLRsjtksfFJZiOyFsJFAYKYEkjv3ds9+1/aVWcHAI+WeSj3S/e++553HPueeecz8hilD0QNEDRQ8UPVD0QNEDRQ/M2AM0Y84pGP9aX2+tGCnzkSHukETrWfB1IF0qBC0SxOcEi0HMB5n5bfQdQ2KwyxuJJKcQVxA9awb037TpuqSVdwrBD2KTCwpq/pDgPBG1MBk/rerueO9D9PRGV21AzHPnfCLHz+Hpr0LlHK2WhTiK7lUhxWsyJWNkSZ0+q06dna+WfkRKKmcplpOQtwolNggSn9Q8AAOntNcixQ8ru4O9GVTh71UZEPM13CmYfgU1KzIbEM2suMn9RnuksOoMRe+nGiuVYTwimL8OjHbAMJN4wB1q2zcdGTM2IOr1PwLmn0GJlvEPVvQDSeomJrkW8+txDtqo5WgJtDNo/wHhAeC7bLbSP6840DwK3AQcq91QYTEsTTi9+7LIZ87xwM5C92NGBsQ9DQ8zUVNWEeKWcDH5ZszlxI4uPxjCRp8nqZ6cHPdxn/8BZvEE2B2QudcV9n2ZxKNqKnFXbEDM59+FIP9FHoHvQ+HLRKLLEPKQ3To+UFEx74MjR4TDMefiIiEtq5i4DsZuAF1thp+SCJdfskztrj7Yed6UGavZ6BXK8hfQzRdET1eFgt8y1yb3V2RA1LfxHmLZOUkI0iHtdjntv6fmZlzEwtC3rmF1iughGPs1UFvQjpMUm13dbW+Z3DFP4Gak3T9iXoqUu9MdaX/SXMvtp23AibqtjmRy9DCO3pUj4ClXuG0HhAB95RD1NnycBD0Lzhq0ESXoi9Xh4CumpGiNfwsp8TLmF8lQa1yHOo6ba2Y/3ZgVieTY9ydt/vGqcNu3Z7p5vQF3uP3w2KjjMzpMMC2Vgn8XXRe43dycu7utBSniRcyvUVa5x8Tn9tM6gei6TW6SfASOtmlmGPKcO9z2lVxBVzuO+gJNxPww5JyXTLXOSPBfWubRmi2L5qjkUQyXoLLXO0PB/RpvwrROQFrUNnPzYBy0JXiXKWC2enco+J2st+cp4mdZPJre2+rulrPQ8ZTWg7uwfbK+aRmAtPZ5kxFHtmPlO+3nzPls9koa27HLPsj8dNwTftCUjfqC8EHGEvTZeO2ma0287gsakE5pCNcsU68z3PZSroDZHKdTqRQ6jAD8XfMUnKEOXWdadRQogxsz65mvNXeSb4wK22heFDy6nsf4shmnt77erkZKr5dsWWYILifFC5EuF6BCzyPBSTw9xpRQMQvLNysjwZ7J8hxK/mGU+D1c7I/GvZH73h3d+tKad5vHET77of9eEsqHfU5c6IIGIM1VmYYhpemMcAnovG5I2o3j96oLhGeEkAp2pg3H7tMWIw4zlms8tkEs4t7AQFyIIAzdi6SwP+4LPDbK/BD49ZsIwC/aHaPjMQ+Kp0UdABNwUqfcCUjrmJjlGcS8DV2Iv/U6Bl1hjz1fWe+p8y+3JsW/M+yk3/b9KEInwTMIo85i57gz/AGRtKIal8GWG0DjhXL9r2BCPwb6/aTtzFZlWJ+uxuI0MtQTMP0nWDNwOnWoziGMM07Sg6kg5vX3YW2lvlxVkXbnVHRxr/9zxHS4b+5w9LbXX09NRZeL7/VtXMtC3guD7k/ryCz2or649LDHE1hsJcYT5RI443I6ynXlv+wJ6BvPBp+AF2ww9W9VobZbLhFVAHGi7u6FiZT9GsNqKJuSKefB1tParblsmFCsxt+Yrboj0PVaep3ToXQXxhfweNyDjKP/5H6EeRme4EurD3W+n9eAWK2/Whi6qNA2ENu1MCg5CQG7nE5HS743T/TGLUupZBwvUvKB2AuWarRytBK0XLgIaW9CcYfBal91pDOmF7UReImGMPDkEmfHz+BU0jUAEaFPZHFeA47Vbr5BpowfwwObQYT94p9JiFYIXwWFqzHW0A8lLYzKLA1xVElyYu1LwN+Bph9mk0H/Cwxjf3jq8Fzw4v94AiCa8eqUe/rLhl9xJ5bYxlMj64Uh005LU5EYckWCf4cO0AoxpQExb+ALWP8N6PRzYQxx+RxZVJN+r4c9HttCUb4Tx7gDayvR8sEYlPwTWvZLxQdYWvpstpL+yT8uxz/RsGC8RN5iIbEF4bAVgkozwmgAuvewki+432iNapyuA7Eb31pMtsS1JCzLkLnKoUNX5bIU05JVkeAZzDOAd/6ptHfgXbLK7a6DrafMNbPv89y9TMk5j0HxNhOHPoQE+TgPqZbqaGciB19wmPmftt8Po78J4jU5DEPZ8Vz0l5wq6E9Whb0rdEbMNeBVGHA7GHQKfweb6kHhuIBwsiMDLUEIfAxrOs1lgQaY1feQmX4LIZB5ddDrC9yqWHwDou6BpMVZaVqufgsNosGhOCXCrynTr13h1h5NM2GAPtpUSfo3UYeSQy/mgQsoQl0we19ZItFc/vafcCFnF7Bj6lvbOF9Lray2DedLGLkaJwwwkSc9gdIRUi5cuAqcHrIIj0qW/0UhOVHpsh8rJNCUU+yLHih6oOiBogeKHih6oOiB/wMP/A+Txu2nI1459wAAAABJRU5ErkJggg==;" parent="1" vertex="1">
                    <mxGeometry x="460" y="210" width="48" height="48" as="geometry"/>
                </mxCell>
                <mxCell id="81" style="edgeStyle=none;html=1;" parent="1" source="82" target="84" edge="1">
                    <mxGeometry relative="1" as="geometry"/>
                </mxCell>
                <mxCell id="78" value="" style="rounded=0;whiteSpace=wrap;html=1;" parent="1" vertex="1">
                    <mxGeometry x="350" y="1094" width="310" height="110" as="geometry"/>
                </mxCell>
                <mxCell id="82" value="Web Cllient" style="shape=image;verticalLabelPosition=bottom;labelBackgroundColor=default;verticalAlign=top;aspect=fixed;imageAspect=0;image=data:image/png,iVBORw0KGgoAAAANSUhEUgAAADAAAAAwCAYAAABXAvmHAAAAAXNSR0IArs4c6QAAAERlWElmTU0AKgAAAAgAAYdpAAQAAAABAAAAGgAAAAAAA6ABAAMAAAABAAEAAKACAAQAAAABAAAAMKADAAQAAAABAAAAMAAAAADbN2wMAAADc0lEQVRoBe1Z30tUQRQ+Z+6uoBIlUkmCreuWhOkqQj3oLkY+SARFvfUQGET0EPRQD0FF0EPRHxBR0EuFBPUYhCT4q5LAzIWlHtzU6iELxYg0d/fO6cy6s7tel1Cu7N7iDixzZ+acme8758zc2XMB3FJcC6BePtAS2kqS7gBgF/eV6X4n1Qx2jgAfbvH8ujA6OppQ2AwNsGJ7zQMGf4zbXt3nwLqUMe1fMr2LczOfhhU+TxZkyvIghembHHs1ne13zpO/KXQcEZ5IASpKbihkOQSWwyYNXviD4aNAsrHo8BFJkOydiLwcAUNOs4WBQ6lc48oloPtAgUegp8B0nVAIxZX6lradqaC3AMpLIGV5BZ5gAAX2W3QK2pREJxlJbcIUe9gDP6yL5yeQllLgJ94NXrMqFbJdFwy183q1ak1MIoFYubqluXLwX2i5BIrtJdcDrgdsWsANIZsGtK3uesC2CW1O4HrApgFtq7sesG1CmxO4HrBpQNvqrgdsm9DmBHn/UiKiVPMS0Wn+S3fI5hp21evVBIhCkpFkZCsTDfkJEDwjhEustyP9U3MUs3xZKouPlPwWDVYQeQlMRIbe1jS2V3sMI2BVKHgbk1Qan4/EXkfj/pa2VcvnEvjGo9s4+3UWBE4vS9IqhYJ3kAGL3spOf3MYQFJnan0JMxpHDgG6y5F2mdNBtzn49bgzawH3NLDcHYGBpvApKagLATOpOy3ohJoPlVkkehSLDD93Ap4NwZDrAQg0h45w9KjMryM9wHm5WROhZ3J86I1mnyFQ1xy6yLnQW3rAwbXJ6equj2PDLxTG7CYmOJ8GfZUz01PpZ4dVeICPl24kPMfALASWX1oQGx+6XiDU2NramjXgXxblz0kmD0t+D7xHKbr5uVqLr2kCLbyBteAryof5JOxay5wsu4Ag96XuNxaFotxGfb6OEsaxJvBpvGUSsDaVXncCgfLy78qY+QxqgZdt8oelBHn4hmYpRQmhaDQarwuGT/B9d7cFT94mw/5pzhsDokLutQrkEljkwVJfQ0fVVLT/q1Vwo9ux8cHH653Tv7m9KqVDtKB1MwTYN318RB02POZnfzC0pAWcVDNG9Z1YXdX6NK4MAUPIM0kp7vPAQRZ05JuYsS0QUI9Y2HRTE1i1Kfhs9iYSleqUcFyJRHpVmK9r8zuOxH8H6A9AVeg5hwgz5AAAAABJRU5ErkJggg==;" parent="1" vertex="1">
                    <mxGeometry x="120" y="1067" width="48" height="48" as="geometry"/>
                </mxCell>
                <mxCell id="130" style="edgeStyle=none;html=1;" parent="1" source="84" target="102" edge="1">
                    <mxGeometry relative="1" as="geometry">
                        <Array as="points">
                            <mxPoint x="330" y="1040"/>
                            <mxPoint x="590" y="1030"/>
                        </Array>
                    </mxGeometry>
                </mxCell>
                <mxCell id="84" value="Route 53" style="shape=image;verticalLabelPosition=bottom;labelBackgroundColor=default;verticalAlign=top;aspect=fixed;imageAspect=0;image=data:image/png,iVBORw0KGgoAAAANSUhEUgAAAZAAAAGQCAIAAAAP3aGbAAAAAXNSR0IArs4c6QAAAERlWElmTU0AKgAAAAgAAYdpAAQAAAABAAAAGgAAAAAAA6ABAAMAAAABAAEAAKACAAQAAAABAAABkKADAAQAAAABAAABkAAAAAAbMW/MAABAAElEQVR4Ae2dB7wVxfXH59m7KAJiQelFERQREVRsoNglJiomMTH5J6YXY0zi35KeaJK/6c1Ejb13sVFFaaIIIl0FlKLYQKyR/3e4cLm89/bM3i337uye87kfuO9O2dnfzJ49c+aUhitOXmOUFAFFQBHwAYFNfBikjlERUAQUAYuAMixdB4qAIuANAsqwvJkqHagioAgow9I1oAgoAt4goAzLm6nSgSoCioAyLF0DioAi4A0CyrC8mSodqCKgCCjD0jWgCCgC3iCgDMubqdKBKgKKgDIsXQOKgCLgDQLKsLyZKh2oIqAIKMPSNaAIKALeIKAMy5up0oEqAoqAMixdA4qAIuANAsqwvJkqHagioAgow9I1oAgoAt4goAzLm6nSgSoCioAyLF0DioAi4A0CyrC8mSodqCKgCCjD0jWgCCgC3iCgDMubqdKBKgKKgDIsXQOKgCLgDQLKsLyZKh2oIqAIKMPSNaAIKALeIKAMy5up0oEqAoqAMixdA4qAIuANAsqwvJkqHagioAgow9I1oAgoAt4goAzLm6nSgSoCioAyLF0DioAi4A0CyrC8mSodqCKgCCjD0jWgCCgC3iCgDMubqdKBKgKKgDIsXQOKgCLgDQLKsLyZKh2oIqAIKMPSNaAIKALeIKAMy5up0oEqAoqAMixdA4qAIuANAsqwvJkqHagioAgow9I1oAgoAt4goAzLm6nSgSoCioAyLF0DioAi4A0CyrC8mSodqCKgCCjD0jWgCCgC3iCgDMubqdKBKgKKgDIsXQOKgCLgDQLKsLyZKh2oIqAIKMPSNaAIKALeIKAMy5up0oEqAoqAMixdA4qAIuANAsqwvJkqHagioAgow9I1oAgoAt4goAzLm6nSgSoCioAyLF0DioAi4A0CyrC8mSodqCKgCCjD0jWgCCgC3iCgDMubqdKBKgKKgDIsXQOKgCLgDQLKsLyZKh2oIqAIbKYQKAIJItDhQLPv0aZtF2PWmCVzzYxHzYIpCXavXRUdAWVYRV8Bid1/gxlwpjn4dGMa1nXZuaXp3M9MuNWMv9HyLyVFID4CyrDiYrjVdqb9AWa7lmb1W1aaePftuB162v6QM8zBn2wy9gb745o15gl4ViFp6x3s8th2J7NqhXlhqnlvVSFRSO6mlWHFwrLboWbI181mW6zr5P13zGN/M8+PjdWnj427DDD9PxU48P6fNK8tNHPGB1bIa0H3w8xRXzJbbrvu/j76wIz4vZn9eF5vtxb3tengbpfW4jp5vMb+x5shXzWbVPB8OFfn/mbLbcyLT+fxhgPuqU1Hc8oPzaYVODSu2GDQbYHJO280Lsnx34PONYefs+Flxp1usqnp0t+8u9IsnZvj+0731vSUMCK+e+xjjjh3g76mspc+J5kjv1j5Q56/s9k5+Ydm8y0d90gFqlG5IMQC6HNic/faYI78gtmjR3NF+lsIBJRhhQCpSRUUE8d/1zQEg4fwxV6grH5u0kFOfth0c3PyhWb7lqFuh2pUpknOqcEc/WXDAggilg2LhyWkFAGB4GcuQmfFaNLQYBfcdjs77rb3ceaYL+eZZ4HDsd8wbbs6cKgspjIqPxrmlhrMMeeZXsc67o8jmuO/k2scHABEL1YdVtXYDRxu9jkyVKs2nSxfeyGXhkgNZsjXTI9BoXCorNRqL7P9Lmb+5MrfcvIdRjz4q2a/Y0LdTotdrYS+aHqoylqpjIAyrDIUob6gPEbgD7/XQyHduoN9Pj/+KFT/flRaK0f0DPdkNr0jAIGP58ygdPOtzInfN5wahyc0WUvnmTeXhG+hNY1uCatYBLwVh367Cm5V6rrjQebMX5odWlVxoYxXPep/zH6DY42R5kfl6FyCyT3rV6Zj3yoxabDLacc2VbYqdnVlWGHnn3Ouky7cYFMTttnaeq32NsOvMLt1q6pRRitzNop6Lj71Hmo4+M8B7d7dTu4ue0W5FayOT/7BRqYPUXopUhvdEoadbRTMe/UOW7lpPbYMPQ43b79qXn2xaaEfv2BGxHYYRuOkNR9bXxyncn23rmbbFtY+C1N4T6nHEeakC6zlXWQCAQS0eRMid1CshsqwQs33ASeYvqeFqilU4oHvfLBV36Bq9U6lhSxwyo8MFu1uWmNG/MHMm2QdCZ3Kvl07GSSUBZMNVuB+EW8gtsacwDCtMQkB/D21Jg0HojIsN07YiA7lEDqh3TNq+K4DzbK5ZuUK96UzUmPn3c3pPzEwlzA08p9m+sNWkMRvrn0fdwuUOPDxl56xJuC+ELv7T1xq9uqV2HgR3hfPsAK4koyAMiwZH2sVefqPzRZbO6q98JSZN9EKC2EIaWXfo6wvy+KZHuyG9u5thl1qvbvD0PgbzJS71lXEAYW9Ybue7nZbb28tJJYtMG8tdVeubw3kqQHDrUkHYw5Jk+80H6w2O+0mVed12KGPmTXOfPCuVE3LlGFJawCz7GGXOJYa7d9aZm6/zNouvPuWdc136m5oQh0EN4wkeKrfeVMaQx3LYKm4NB/zFbOZy/OmNEhY1fjrNxrv4ucsrw9z2oAbJq7CwPLKLMvmskmt25tTLzJdB4SaYm6BGxn5dzPxNhungVa8qARij8kLb+bo7N6+MPiaFSnDkqAe/BXTwXVWjfLl9kvNW8ttP5jVLJtvOh0kegJXXBB91n5DrM4VtvXhexUFGfi6a2cz7GKrtArDfxnvsw+bkf9oZtzs9bhNNsJO4kJ77ms6HWyWzTOrXndWr2kFvCBxD+TMgXsJSUzoPb9aF7qDRQLvxt5YVnghzm+7s5k/KeQVilhNGVbgrHN430yApybVH/qDefGZDb++8Yr9E57FCzMM8ZRiSIkzB5sCHtSP/xumUbp1EHYO/YwNRLFNi7AXeuZBG1cniLD1p6uQKrBtdjQ9j7Zy2cszM4EG5iz9PmFOON+GUQ3Ju8Fh9ZvmtkutWqpMyNErX7XaOpnadLBtWQlKzSKgDKtZWKw//fHnuxXtT99vJt3RuId3XjdznrAaWZ69kMTmC11PjyOtsmPForptCngguxxiTvq+3auGfzgfv86M+4/jRrFr52C03X6OaqViLs0usttAK2e9/nKoJmlUQiGAqhE0MP2Vguc0uTbBv275X/P6osYFHESg+bLxo0Xae397jrzyNbFSUQsbrjjZWxuY1OYMyfzs37jli5efN7dcFCgFIKewiYjgv0Lk0mkj7KeW0aOQ73ArIcDxzntUASvy4EN/NDNHhW2C1RLqanlb1Kiv1xfbIMtoo2up2GIDiMzLJ/wrpzzs6Y/YrXGQlQb3/smfug9nELL+810bpFSpEQLKsBoBYs2OP/UzgwZHJhYTS4qFJRNcAKW185CxaSf//ciGppx6X+q7A+SIfY4wBw2r2kfE6mh+udF2uOldNP2FM0ccBkLul8vN31xqJt1uFdL//bD8Wypf8FcnjhWau6pEqtJQOOB75M+Wt8rE7vjTv3GfuqLWvOmHqd+vPNQMlirDajwpx33TIAjIxGNz84/MkjlyrXWlLdpaDUgYrXOz3aEUw2CCz5LZSdpAwJcxkmIDyO4vAj/FiOyun5nlC5odsuNHoCBCaUg7icq+2C/Pn2LmPmkwIgkSYSrrh/zODpS4N5362Y9sfCB0yGHLfZcbGGsYYlfIS9EZGuy5kTakslIlAsqwKtEwB5y4No7oRr8188fDfzJI/uGJ1zVqbDoPrxhq2jnSHJYTOLLAJt5cFiUPDfuRnXY3qHVRysCtnGFCm46h9Avck6OGOPkUUOUM/pplENEI4Q6eBRqwCRh6lJOKBtOijT3uQGEEGhG2fuWR41c09V4z7lqDUBye0BUQi8ZJo/5ppWylMgLKsMpQWJUwVldODQvapUf/uqFV+G9sMzkXjyxqVV4IWePVlyznQo+LqovkF++9Y//lg257i22sdxu5DxCd+BezCZw/WrU3u7Rzv9Urr9L0O3LN6H9Z/VoixDns4Z+L6/rLkDimePUFCwWW4iDA1sxCsdqeYBBxHwT4bLX2X5RTQAGf4t8IcmXTu4ZjPvKXiNv2Y86zRi0ywYs5bdSwWWWUlGGtg2KH1lbR7jRfxqwRRXtV79Iy1nxBt81TigMaPMU74vDrvivMioVJDhweyn65Zbsk+6xNX3DDx683zzwQfZ+O3I0C3mlVS+K46843b6819KvNrWX5KmrWYGcHHfDpl7m1zpyy33qxfXVHpzXWRhTdBFE3eVZ9Id7z7Hru/43BYiNZ4kh0xmNm8y3sKQfc3BfiPOTOn5qFz8YaL+eebGy7HeaQ9di5Y/LCUWyUnW+sAWaxsTIsOysE2Ha6vKFov+PHyZgFoYLBUGvhNLN9K0NQwIwTqqK7f24Pv1J6YOgWU1tYAF7QkXXeNcPwpWlmxJXmqXuS8UxgJbzyvPWjlBURhKABGdaMkjIsa86+/1D3SuDEOtmovlgGck6P58oOu2SUbb32knngd2birTb4SdrEJWaNtU8vCqbwFvZpj6qyf7jqg/9nHQOTNenEPgbJ3Xn+wK4Z7STW/wWnojMswtriMOgM24RFOys1DSqzLaxVMYDICHE8z7EX6uSQ5/RJDRs3cnwSeYZb7ulwFU7qimH64WQWVoUhWLKsqnzp5S+EsoDfs+e6U9FywwJ+KbTSHavu4b92679xW0V1ldKGqHLNIfbjC4KLbN0Sjq4xLzxt4M5EFyBkaB0J+w8ML5B8MTtwvk5SGifHr2gbUbFhOZE2sSUkihEBPGRC03/9BQbr/8JScRkWR93DL3crTTgpv+67hpOamhG6Z2LUYKeDSaes2khwSNgBzBhpz7yylsQFJt7rOMvH44Qhrgoo3kzs/bGzg2vX0h+I1KqcU2ODIhPc8/rvWbuNYlJBGRYv8NP+1+x9gGPSsfG58cKI9tyOrkMUs4JxZEHEIBxlSjIX72oOqhY8ZZUjkW01QtxK3CpYACB9wMcRu6rydgx/YeQptn6oFNFV1fL9VDlC9HckWMIJQSY46Z0/iW5OIXee8dKCMqzDPmv6nuqeGg7yna5h7l6SqEFSFjgXR5l8wSQiMiEyoJZCm86RPOsenZF3xGEibAsrX+xCSulII98COqkSFDApvmSBcD4lr7iTiGI69hpnrRxWKCLD6n742vSCrtkkbgyK5wwSJtropEufHXe1NtyYoVqjdv7dxu4iMfXe8Flttw/sIzAH50O0lrT9h2uJGO54xJsvQcHmkW1+CQrQKH3Y36H3sVbvYLLa+gMQhRkcMIJFuuTHDFLIt+kDv10XHTCDt5DekDZLr+ts9ow7fhgfLqSPx10xnup1gzxm+F2HdL2u1yBrc12YLx45fPJEvCZbIVC79BU4Y/L6wTeoUOSPcXES04Im6JQQeSuRR+6/oqA6giRg1j5iIYA39X2/cR9Nouo6+YcZtVmLdf9i4wIxLBS3RGJyRjVh43DXz+P534iIa6Ei4ESAXTyLkKUoE7Z7J18YJXSX3G2WSwvEsI4+z5BqWCZebvf/ttB2LjI+WlozBFCxsRSdObHxnT7qyzUbVP0vVBSGRSwqbHmcRJaqZP1vnFfUCopAEAIsxUZp05qtSc4OMpMXhArBsMgHMehz7gnF/zYl/xv3tXNUA2sDQrby8SgcRWbhZ0GyLJ1EWLGQCT6cXWW8Qv5PCTHVOeF77tAlBMMjiqZSHAQwLxh0rjV2LROmmKOu0i12GY8oX1iWWGxgUyoQtiwnXmCuP7/Wvp/CkFIqyrnzM8Y4p//E7e5AVCa8Betl35zS1NayWw40CHox9Dtm540TsuPOvd9g+7ZYkuF8zrUEKsK1bPidqTYEjRzSmkPDvfaz8T+y7LEQ4fYbNckzw8L/hqRypP+WiQWBowMRhxMhWGTXgaZdL9NyD+vcn2CuhESGl0Yn6H3xcyIV+ybNKRj4kXzOJBBFhiV1Re6JoLVYq++5n9mprXUkSIR9YPhKChJ4lhzjkMj0bMNnhdhC+jsLebZ0H3i2zdnrJAJdEdIkEUKaYE9UfhPCCp8fY5682UsPmDCA4O14yJlr01Y3uKtz4EUw+CduzK0ki89Q/08Z/CjKLusfvm/IIlFVvhIBRwLAH3OeUL6uCLUXqW3zSrmVsHjLHfEF96wRn2DCLe5qYWoceIrNnMrmqEy8D1u3N72Hmu12NsQ8yqYjSHm0VX0hqPRBp5kTv2cF2JCpgKhGHOReQ+zzTCp2uHluCHuow88xQ75uM4xUCkEsBlLyfPiueWV2AveKUTsylDNjJknLMYlINvR+AqNPqIt8MqxS5rvyiy4IK5KREFHTaeoS1Lzyd0LBsF6bfXRZwbt2srknttnBrqRYIeErL1mn76DKq35dAvfNqx4E3n+4cO97tPngPetSkwj4VQ8iuQZEgznkLHPct2wC+kpWVXkFgm0snZdM3B6CSRC1YsfWld03853ViNqL+BP5oxxuCfG/OfsKt0U7+gVOVd5NIvgv/rdnXR4qYBPBEsgDOuUeq5LwjpCqsGXrc5I7W0fIWyNuBLktiJBHaHPvCCNkoOjcP5BPVd4RbykWWyKBAG3YrCsMSZ5kQl1IHDdnZnK5kwyW5o1h8QL/1E9tIl+ZeEJu+H4yEUWIkQC3gmdVRTAsAnvOneCHVp6ANvsfb8/7CIeQOOGGgg7x6fv8UMlzGMcBAmg411gjoBCuCRbq9LZp1KrZP0mqSNgs3h8ysQ+1Kek+lGt5Vpo3hnXsN2yIYQetMff8yjKL+MQe8JQf2dCg0YgXL2aBZHB6+floHaTbit0fQbj2OcJ0OniDIjmlS6LSYkaAAtOtbKq30NaxtDgMjZxTEsv1u36WzC4Yye6kC9zBo/OX7D5XDOvAk20mYSeNvyExRfuhnzYHDXNe0F2BwMRwLhJqLZlb52DqdqwNBsUtp11dDqlDJoj3Vpk5422kp8UzMwFF285WcQ6fSiRFSIJHeP3PMIec4V5ao/9tnrrbXc2XGvlhWMQPwhqoWbV35WSQ3O3ey5N5EkIGh6y8uvM7ilICFs+fZBbPqLV6nuRaWB7i4YFU5YxpId8IEfIgDN/jELlzbMziaWbh9FrrYtjmk6KmQ1/T8cDk47fcd7mZPT4OMOvbYmZ4gVWiyYTa9I6fWCTzQTlhWMT5PuvXbrU3tgU3XWiwjolPHESe8Qt3+O3IF+L4jKC9bBWJtv7KLEMujMQJ5o7PBwoR1DG4WxJ8OT6xyX3yRvP0A7Ynct70P9M9Ke6LAsVCy7lQyrz2olVdp3G2yHkfFrC797CGGkDhfPO5hx1Qg+XHImQpxifUWCizmEGZ0BLeQK6dl+VafpTmgWFttZ3lVjx7MuF/w0lNIk8+5jAkOIkTW10eatNSGAFiC8Y1fFh5nAEhi9kjznDJuDhx324nKzfxYdjIPhiIkZuzbOPa9IpV/7LGTH/MhmkF5zIB1MBPm57EyQhhWVpuJX/hgQcEHngAwZcAQayERtgMNw02CSCWcXx4z9nwyu3svzXLysPdJZiKCT7LUuToUCa4fD5y7XjPsHgUh11s88rIhIfErf+bjG4bVfQnf+r2+MEpB7vBINscebQhS7kpy7betkeNH71vPvrQfuG55SRrw2dLq4fC1CM9kYHRLpphxlxtzUGbJWwdiVOOg056hMwFFOi/LA6gsf4D/haKzc1mW9ovPNhAUWncm/iQwJ954VoyoaFjQSZyvIDCEYdZp9UhiTbu+HFNE5fJCEQr9Z5hccCMfbmTHv5TYh4SuPvg9OOgNTZiJBsZzgEwknQuX0dvGS4m+w6+R+SadRIWj3iu5DgKClxyxqNmyt12R0kkbqdQiQNNUuGMsDg5hgTmLnrs7zb1pNfkt6U7VleEiHUapEy9L7GVwRVPvcj9in78Bssf0R2Q9e/Zh6wtDIs4Z2yLN/aIK82EW8PustkHYbWwcJrdkxLzJ0+EZDflLnPfFYYjHSb9jZetlg2DfpkwjqdV2J2s2BdeO+xz6VCmXTta679ErihfKL3SCs+39C6SWs/4KHC2JRNzOfpfcpUqSlH9OPkjp/ITb93QJ1s2DClIGsapIm9Cpy/YhpaZ/IYKafY488yDEfO1cIxw26WG3EW9jzVdD01UiVYPuJbOtVavJK9sZKwPH0cXjl2IQCykVu0NPSRCLHIODTgLEoiHhUfGa+273wxrq+2F2VlXxLohYzA2e4mQU1PAC3bE75u5FAsamYsPkdhwAO52mE2c5xeh5CbcAhGXuMeYhLbroT8aTISwSu11bFrJnGMOUmiOH/ussWbaQ8FZwdfYZYBqVdblO5eTMIZGRSxy53EhTax63ufjQr8ZFt6z7LbYpgnEmiAY4+2XhdKzCP2UijhtQVEqrDOcV/bY1+4Eg4iwUI/8xQp9pC8mchb/JnlUF3TVGL+jzJ430T6f1pIzUYLxsVvng3oL8ROXF6e8nOj1q+4M6fKFKdaKivcfGiuZOGSQuRULKRHvQobBtQirKyzL0lB5WBIxp5BvPNVSvxkWYsu8SdYKWSaURyie8KuKn3WSM3s8SOQrHvYZ6ysv2wqx9NF38GFfgGdPl/425h/HedkhLAbw0+bDJk6+l/hjRmfP57G/2bPXzodYY0gCtmSHUFGhepvzpOVTjbZ+QYPkTPbQzwQVrvud2U8kyC37a/zDwmhIefGEHL9j6PUr9v6UEIlm+OVuIywQRlK47nxrthOTMPg65w+Ot9mDV1oFc1XEATxRaNhEYGiO9tT5tqyq85CVeTKxU10E+5hhli0Ia+QVsvMqqjWYNh2soLrnPtaSsy58HPGH3NrW1P4Zq2aqlmXjdYhbq0CYPlzzjQQkLAzrzr7C2mo4KR+mWN4zLOYJ27lhl4TSg6A6uemHbmHeOfd4LGKvIBAnYv/6SnRHeTaJqLp27WJwZENJTyjLlIg9AipYTOoJ2ER0ML5U+2SmNLByt4gqqGZgXnBzTlqJiiFrAMoNI3wh4hC8CXfOpXOsMO7c9AVdghF+/s+OTAKcD465OqiDsL8jVeFuISvaS32hf0QrgtTsO+WBYTEHnOkO4+xJPCIpTRUHOvf/Ju6s4a9/7l9s+EeB0FI9dY9QXkURUiRiHc9q6V/4F7oerl7Vo4v09M7rZtXaz9vLzWuLLHvC6ToR28UqbiZeVQRPnJDhXAQv50VVMljfdufqpDDYNFt7YkXBoeDXiB6lf+MfJpRuzumEz6Wv+koCoWZOON+qQZ3Ee5qTWRZADignDIuZ4Kk+/TJ7Xu6kRAz2yF45+GvSpVBP/P0L0d/SUtfry7jlbVvYZxXOtelae26+IJLwQH74gfnvemtvjrTYDkeWF9ZfLdP/I2uwLeLg1Vq0Y9e+1tYfNBAYQQMfAIvGh+Z9uPabCZxyClggHX/xHw5fGTJ3EbYwJvU73Qwc7u4DmfG2S2rtSO8eVtQafivdK++a1yOvEZxmnIe7A86yKt6YIahYcL2Ok2Q6zo+Jz4m9UnrELSclFKQ3yNr0DDtGXMoC7XOUg1sh78wYGXekuOOwjJ3EMToPBY6ouaHmEjN5e3MIvWzUCbwrE+rtod+OHoat1Dmv7rHXyNcxfU5O15fQcXktrjkCLC1ZucmIxrBswrmsBw0fa4njvu12DmW/b7lVbKO5oGHU5fdcMSwQZO8Dz3JGaick9tFfigs4bnSymIYDijNcUdxBaPssIYB5inxCgi0bhxsx6agvOzT69I9GggchfzHd88awmCpeLHf/3H1CR0TN7ofFXDnmyZscPfQ9xVFBi/OEQN/THHcz4WZHBWdxmHWL2u7uX7i3Gs5rZbBCDhkWKCP4PPo3N9q8qWLGtCpFlROuhFFCqmFVhEtrUY0RIEipfE5NIEYWTBziYDTMzuDRvzpk/zhjqG/bfDIsMCXQB2ESZEIXcMS5chV3qVPIQjevVAQESD0pk3OpyM0pHfR5t+4Vf8/4R5DOkdSrQm4ZFoCO/IfbFwcdE9GB4xDG0LLDfaeDqrMSijMYbVsvBLAEJFeFQCwSAvLEIbwgnCpRrjLqn3EukvW2eWZYeD9gI+p0niL+X0w/mFII86CpxhoIvYNSvhHoPsgRJY1AVHGIJXrkFxwdsNTv/62Nd5pjyjPDYtowYh7peuEQ2PuAE2JNMQGw5HNJgo4q5RsBbO4EYnnEzJRzwIlu5zO2FJw45ZtyzrCYPJRZzmBYpHgL4z4atBSwWnxONFwm7B++gUp5RQBdu2yuzCLk5C4ysTiJLi0TqeFyrLoq33v+GRa3+uhfDO4pAuHSEcZuWOgBTadsDSi/gYWetSj7CDgmd40NfBiHBgx3hHv8YHWoY/E4Y8hI20IwLNJAjbvWAXiPI2JlD8W8XlapEp3OmZXAMUQtziYCDQ5dOMcycdyGCA3WY5Djzsdem0DcJMc1slFcCIYF1Lzi5Oh9pH468KRYcyIL5MQtIkCKUv4QYFplfYK8MJyA4OAl5yXDOZFgzQWhojAsXP+cqSj2GxLL/sAZNhf7BqX8IdCpn3RP6DcXBMfLllquLSMUB4lLZBp1lUMdITf3q7QoDItZIUIDAX8F2nwr03uoUO4o4lBZCOVO447iynb0rsVZRUBmWCwJp2GNcGek3WRZCkScZdmhVWjrY1GBGBbTw1ZfTsqGfUOclBDy0TUx52TPWB8XUMHHTDRB0twLJC8JoSFFLMX9RYMbgi86lbPyJbwrLRbDwkrl+bHSHNkgVjFsppy7QtkYWhqZlmUSgY59pWHZ/eAUqYJc1vMYG0pXIFIZOYMpCc19LCoWw2KGSA4uhy2Pw7DsrnCqtAzUEVpCx8MyEpQJFHM/KC9FlnFSme6FW8haUeEY1uuLbXItgTDyJHp6ZCLJikCksVLKDwINNqmPQHFiM+CAIRuj4l/hdQ5nATehqHAMCyycuSHCBPYPwlQOz8aWk4WolA8EWu7h2LIR4jEydRvoaOpcxo72fhYXkWEtmW2IdS0QWYgjEy89MtMIRDRupXwgIItXLIM4iZ3ltyYJnEmbWEAqIsNimmVXCYQgEklFJlnIkld55Itqw9ojIL975GUgj5bNoCyJO2O9yf37W1pQhvX8GId1TBwhS16pu3Xzd7XoyDdCQJ7KhTFit8viFWc7LOBiUkEZFr7Qsv2xvGLktUKiAYFatHGYAgpttSg7CGDPuWNraTgvi8tAammM/L6cP9nhzC937nVpQRkWcyZbvZPwRpbJhVnH2uvD94PLG6L3HNypltQaAWsv2hB4UYSgN6KGpqJn2cB47oTA6+a+oLgMCxsZOUSRbGIjrAwMZFYsFMptmnUl3xGQJ/G1l6L798kLD2NU2QPMd2Dl8ReXYbErlM1k5HUjwyqfQsrOHHLPWpoRBFqKb51XYVhRSV54LNo4zolRB5WVdsVlWMyAbOS5p2jELE+gzLDkl7Pcs5ZmBIFdRBdCeQHIt+BgWKJlstxzDkoLzbBkN3ciWMlxjoTpl9drZO2YcEUtqjEC8iS+9mLE4bDqtttZaisvWqllLsoKzbCwvpOl61ZRrbFki0EWpaCvzcW6yvtNNDji077+SkQEZANA9BjyuzDiVf1pVmiGRaiZV2ZLcyWvHqHl6jcNoT+CiACSW28XVKi/e4AAQRSE1HBM/eq3It6FrC7ASUOOjxTxqv40KzTDYprkHKiRGRYHhbKDzrai2O/P+inoSOVdm536NRGRkYV6eblGvKRXzYrOsOS9204xwjbIDGu7nbxaJjrYjRGQ3zcrX9u4djV/7bSbVDuybZfUqVdlRWdYcuJJ+UUqT/QqcdXKK17uWUvrjoD8vpHfVfLgrX4zmOT3a3C7/JQUnWHJryzLsIKtmeVVsFKM2RD5/FG+qJbWBgF5+latiDiKhgbHwbT8fo14Va+aFZ1hoR0XDgpRrG6zY8T5fH+V1HALMbOA1FLLMoCAnBjiPXHqheFv00LS5XNEGFmXL1zUr6KiMyxmS14E27aIOKG4UAi06RZCoRZlHYHNxOmTp164N3mx8XJVUoblcHyPnERHXrXyitd1mXEE5OmTp164tc22FArNB+9JpQUpU4blYFjyGhJWyUdCwAZjNttcaKpFWUdgU3H6ojMsUXATdBdZxyu58SnDknRY4Cy/S4WJkFetbgkF6LJfJK8K+V0l3J3c7YfvCk2LUqQMy8Gw5HepsEw++lAoVAlLAif7ZTJnkcMWCXcni/O6JQQ6ZVhmk82EJWQ+/kgqFcrwvxHov1G7FfrUopohILMkeUUJg5S7lVeU0G2eipRhmS23kSb0/dVSqVC2xdZCoUNxJrXUsgwggIWBQPLUCw0/EBfbFuJCFbrNU5EyLEeE9ciaTnnVqj7C66dI3p1F5iwp8UGvoW40eHHf0qhuTv+sj4SV2hE16pXIW5KqZhjVshCRotmusBFp2LTZkhR/5JWTeIQD+X0jv6uEW1WGJYBTKlKGZbbaXkJJXkNCS3nVRu5WuGKp6Mgvmp7HOGslUOGB35rnx1bXz4kXmPZ9qmsSv/ZNPzCJB72Tp0+eeuGO5G5JG65U9C0hnjdbBYem4s0se9gIC2jzOumwhNsRRqtFVSEgc5bIDAufHgITBREzqzyr6AxLDnT71nIT+ThP3mlGVo0Freby71tuW/6qX9JCICWGxSnh28ulMbfcQyotQlnRGZacwOb1xdHXgOw1La/46Fc1RhlWHPRCtpXfN/LUy5dYsUgql9+vUsu8lCnDkmZSXj1SS2Pk4H+yx7Xcs1yqDEvGJ5FS2Q9Znnp5API7Us4tJvecj9KiMyw5pdLrL0ecZbQYcvC/N6L27ByQ6rCcEMWvIAfS276lw1ZGGIDMsOTlKnSbm6JCMyxUmHIIbZu/NxLJ79h33zaRQyY5hyPrzpzNtUIYBN5d6ZjBnaMG135toXT91nsXXe9eaLOGvXpJAUVRMy1fIK0eoUxer/L7WejWWYRk1xDwDlq5wrwjBkF1dt6owrvVh6njxhM/50KSFcIKo8ZOafeN9L1b10aQbPiTBbBs/oY/w3+jFQqywACBDaZdTzN7fPj+8laz0AyrHQwrmBY/V7VhZLmzejEsQYE16TbzzIPlAdbny6irEr7ujm3Mmb8M7BO71vuuMCm9HtjUCwxLFrEDR2zskmPhCdZqe/UuNMMKeB0LiOaliPDHnfpJN7NwulQql8kMK7JqTL4opYIC6/13nK09q0BA4U9cGhwEfY0Z8Xszb2JaNyXzwTjHeQuflcbMohVSIkotc1FWXIbFS4x0mAItnCYUOopad5QqyGtdaukqEySs9/LFsPDXG3aJadE2EJFH/2aeHxNYGr9Afuu0bh/9CjLDYk/d/oDonfvesrgMq8fh0ty984Z5NarGfftdTItdpc7ltS61dJUJDCuyyb7rmnUox1/y1B8ZgSmMvcZMG5HuwOS3DukFBc2aPLLlLxrZbKL7ILmDPJcWlGHxYHfoK83r7MejJ+/dc1+pZ3T58tG11NhVJjCs3EhYnCoc/10jHPBPvNVMvtOFVOxyJlE2H5WXgXT9NWYWyy+YOvZ1xEQKbup9SUEZFu7BctDIat16KxfCnj0r/2r8HUfcxIMHlK9RBB3W4K9Iysen7zePX1/GI8UvaMdln2p5GcgjkzezLN3a+LfLg6xLaREZFjrL/Y+X0EbaXzpXqiCXya/WxTPk1rFKBQkrH0r3wz5r9j06EKLnRpqR/wwsTbxgkTiV2B9EJpafnDN1/xMC7VciX9SLhkVkWJ37mx1aSbMza6xUKpfRM2ftAi16TiiMWxTEsDBHkpNixL1wTdofeLLpe2rgleY8YR76Y/SNfGC/wQXyu4dlIC+z4I5tiSzj03OX/nIH+SwtIsNi3QvEfm3GSKHcUWSNUYMJrceyecHFsUu2CgjVkJ5hfewhh+1gnyPN4ecEVn5hqiE+V3p77WYvvHSe+VBM5tZuv2bbhfoRaVEINUMXB54Sqp+cVSocw+pwoNm1szSJWO7IIT6kxsZ0OUQqf3lWdGNUqd/1ZUESlu/7QdTMg78a6JaApeU9v4weCGg9eFX/jxrrlVlSqy4DpFK57K1lDiMylnEB7RsKx7AOOVNeJ2bqfY4KQjE2Mg7reVHrIfQcsihI6e41w9q9uznhe4HWkkisd/6sbhteWY2FuC3b+snTOvVeudwMOMtRIX/FxWJYWAm3EU068eTidR2ZEK9kK+QXnorcd6iGQRKWvzYNrfY2p14UeKS7YqG5/TIjJ5sJBVzUSvKEshg6ixK3fFmWouzN2qaT6XiQ3EfeSgvEsBoa3G+kp+6JNcHdDpWac/i4/AWpQvyyIIblqYSF3hpz9qCbenOpufUSQ+CEOhIMRbYglZeEc+TOBYmQxcIuDhWIYXEcvste0syy8maNkyrIZYQN2L2HVMUao6ZMQUp3HxmWdRW8LNBVkOATt15scEioO80RYydg4LrtTtHHyFmhbN+ABLrvUdH7965lURgWcVcGDnfMzoRbYh0z8S6V33VpMyyuHpT+wLtTwnWuggEeTgQUu+3iWGcjjqVQTbFslc6kdDusmu42rsu555O3bPxTk78GDA8OR9Oksu8/FIVhHTTM8MYWCPFKtnwR2tqiBtPrWKkK0Zbl2GxS43BldusUsDvwS8KSXQW5l9suMen5Y4YDe0MtojzKvla9hgTOy4Zegr9h9S7vOpHg+g0Lbp+vkkIwLKzs+pzkmLcnb44lXnHALEQO4Nppi1dcIkjXQ5FHEpbsKogh2x0/Tl0V6FgrTYplIQtH6Pb7N2kT+gcrZN3sqN3n5FhGqo7es1RcCIZ16GcCj5lKc4EuPI51O50cIPr6UKEGDCvIpoGreyRhCa6C2Ovf/QvzyuzSpGXoX+fk4kkTh1ic8nENMimLvAi0We5vkrCQzpOa0f9yWBXLKPEK3Vt8hWKtU4MtjCBhlRgWeweGulNbQwCcLba1Cq8ttzYkfCXpfClI+XsrDeqhJXONTRcUnNFTRiNOqeAqWAof+tK0ON2n1ZYtISYIQgAJJCyQl3d2wuAweR/zb3P6j4UqpttAa0K4JHvcXBp09WV5Z1gNZtC5DlQwbV8UI7govVtX6gDlUenahBCoAQkM65ivGJLlBUYKbzI4tpCEInh5pj02Xflak+J0fsDXJMhVkCd2xJUOy+90BhW2V6ZYYFgsj95DzagYjtlE9Zs/SbS6Yql/3tz4/bAD9rRezhlW98NM2y7S1PDeJthbHGIjJp8rcwCfXqDeypEL+XJkf+zKTkrfuamOfe1n4Nl2MzvlbocFY9Meqv3Fugp+NrAR5gvdD7cfOKn9IAmutGIgAoXszRfYY9IFTDETTYKvIGKRPHlTLGXimKttrHfBMrm0mYhjmhM0+Oz8nmeGtfmW7o39Mw9EF9RLs4hcIEsu0x6Mpc4Pv1ZQVydOPB4lTvHi0+bhP6UlbeHCIrgKclM2Nc7Ozdwc75uScwJHaa++2EyFmv3ESIhxKpjOsAHH6z5OrC52lKQROUBUh7GnRhDLCBNPA/wU1ngaw4zUZ9/TpDceXfKudp6/yFdGEtl/qFQFPfGzD0sVkixLU+uEku4z/2dwHU+D2naVBAfhivBTJGg2koxt2KVGDpUh9JNI0fSHHQ7YqA6Eg5EwY3DKaGgng7bVYfrPfp3cMixMGZwzB7eCZ8UhrCUwcRSIFHKosfNBPGxEUrcxXkSFXb1udu/e1jL+jF/U7YCfBIiy1TtL5YATY8HDcp3gMnGw7+ldYl0ly41zy7CcpgxWwH4g1tSg5HYcV68xk++IdYnMNW6wYZgOPTtz4yoPiNAOn/6dFEO5XDONL5OYblHOhWEJZyNhhvS0S4mBiQMbw7xSPhkW2wSnKQO6dvQOcQiVhKDnpue5E1K3bt9o/CEEH24ZBQfhDXhX//ejjVqH/wO3ASFOcfh+UqqJJHjyD9yO7mlcHat3Jl0gFowcP1JoWypiBp3HRJg4yEHfnFfJbIV8Kt2dbxgMo2Ke3GHT5LCeXxNXQVbtooENERxq1RvWJZis9OxQOEpjQ8rn/dXmw3cNCXsaMalNN7PWWFvvaN3CW+1lY+8Qz4sfnXTMedYpF+OjzNLBn7QI1MagpBIEPFKJwS0QywbdeRy3bZaubPbFnp2d+80/Ekbha1GItenbrREhSLKIQWZfY7AUjUkEApQPB+dNqvW5FfoyPlUR/MsytZXWG66kf0E8IaoXW91d2kk9oe0+6n/Mtd+KZXBbeQF8bkq81bJXGOuHaz8fmY8/MpttabkqH1QzLfesQj1/xBfM26/aU7NaEibpssEUy4bF88ifYw2KBXz2FZIykUeAE5IFU2JdJYON88awONo/zOWjMHNUXKsiEpH3PNoxm7xpfSS2ihxrznjMHlkgpKAQCSKEsq4DYwXkKfc84VYTEi6kP8DnNLDHEYbIKjIRKeH475irzoslzsiXaLaUwxw5rh6Lh0BXsst0sz2Xf8SY47lRBuM1gdhnEOq+xnHuhfEkUpQ3HRbmeSxogdDgPH6dUB6qCJ4oGz3Nn2ztg/wlFCUTbzN3/rTxFrLRHRE9TrBjbFRZ+lNUVFc2RCTE3gpDVoS7677r9issiTOVPdTgO1MvizZhXqvOcWLSJdtbIY3uK3I05yUyWCFXDIuH5+DTHSCTE3jV6446cjHCtvz+ZMs57j9yH36U4g6CQ4xABKhIyTJLuGi5CL5w44XW3wXABbLvsN2F8lSKxl3rGJVTceEc1qoVZoorwTUycjJvFOdoalUhVwxrnyPMDq0l5GBVzjmW2qM0aDBoRmR67jFDrPF8EH4eLz4j3Yrs9S21TKRsjfX4feRPkjEBTyzHmjUmYp+Rp0smFhLLKQ5Nvsvx9uVxYO+cJ8oPw2Jd9nOJV2wGZSnaObUc57duL9UiX+n4G6UK3pWNFzO/15lhrUVz+qMG6ySBOvSNyxqEzoOKnrjBkcuHhRQz4zwnFU79Rr9P5ErIyg/DwuVNdvElXwDq9jiEpTLOwDKhTEVWzxORNt1GmwkgMG8REMg4oEUqPz9xo+S0QK6t2tsl4QvtTiEx3OEp4QTLeYLE7PBo5IZywrAQrZ3aK95FsrLDOalcgiAtAnEkb22dc0dy9j05HkZtwOBwc8aj0qXqknMUPwdMRgRiOfX/pFDuLmJJOx2qEbJi7j3d46hVjZwwLFS/coRixASOeOMQ/TsdwXjP1zFHXpy7k9suniGVy0xcaplomXww17pjohcL1xn2uiwJmTB5k5eu3JxSciOyvAWyMZr7COU+FeWEYfV2RSh+4qa4s4LpsGwCjp512kNxr5LN9nIMP/JdZ4GIONjIjr9yVPXiqsSckU9gWFSDPlc50ijfnUFHbIzJXFAeGBaH1nv3kmbDilfxUi6328/tTzv6qrwZ6ZUxlfc1ePZkgbAde/etwIHUi2FhtznqqsBRlQowcYgZGAfpEq8sgQhlgZyVA8oDwyL4rBzwBEPqOISZn9OUAW+MbIYbj3Pj5bZoiARCpZ0RWh0cyadeDAtkWBhO9yACecumyE6EHekL18ZodnaS/QreMyxMmTG/EoiE5gsmC+XuIs6eZcc6diKj/+3ux98am20ujR2f6owQjodBFJMdBHUb8neWh7BdpRMWWEwTBxY5S10grN5l71ehbXaKvGdYeOrKIfQIehXncND6dpzhmK+p9zryiTvaZ75Y3vS982ZWbkAQo4jcUEcissXT9zmuzzKLw1BY5HJ8Nx4TOYyEY3zZKPaeYeF/KxCWdfJpt9C2VES8OiLJCMSTEHPLKXSekSKBETDC1W9kZJg2Tk4QEW+nvsSWTWaaLDMWWxxiqbPgBSJOlu/kN8MiFoqsrZw52oaCikxkt+/rWkOYd+XSlKESNNKxCJQRCYuzF9KOBFHdB8kicVqls9hYcpGJpc6CF2iv3nGDygud16bIb4bV+WCH2wGHynEIiztZSsd6PqYEF2d4NWsrW/EIdvA1GyEXkt2wZcuM2oyTpSIncGax9Yvn9igveNzXOh1cm3tN6yp+M6wuoohLvCFCkUQmRPT9Bjtaj7k6loLM0Xs2ivHtaNMpcChvLYsFcmC/1RegzRSINGV1J9RMJHCWab8hDhWE3JwFL4fZklUocudZKPWYYXGa3q6nhGHMjJIHnSaFr+PC2HYRgCX3dOinJceOeWII85qBgzqZXGFBxDlmRoxOWDCySSARE1l4cUhe9jwy2TFDiXCbHjOsPXs69oPyzMlgWfFqiFQFg8Ax10gV8lGGxWyXAdKtyDkXpJbJlRE9+fBzpO7gEcRczgixbOQooDGFLDJ1C8SukAfHX/KYYcmB21EWkMgrMvU+ziFeEe1IdrmIfOnsNCT+yUkXSsPBG+mVWVKFGpShaD/1fx2BOuK8uhK/BZYN0Y0FQsjqdaxQ7ih6/WWHpkx+cBy917vYY4a1574SeHOflErlsk03d4hXeIE4DIvlCyRa2rqDOfxz9rXJyzNBokNyKct5zEb+vQoVHumt8EkgwW2CRP76Uy8ye/SQuiTBTMwMSVLvkcoIYM8SEqjXEIfjqtCWInnxe82wNpPvPLOlGDTI1ueLpkcfO4pJ2fKIHA1vL4/ef7ItgQJewIdT7ZeeNvOnGIIrkC0mMsGkBgw3+7scnhBb5LAzjQaAjgm9OLl2SN5HzHu2aUvnRd+pYblOCgbchuW8pPCFx/7WaCD1/5OTCpaQcKSDcQOLULZREG5DXvzkc2PNyO5WQuf1LfKVYdm3REMgdIQVlQNuBLZcW8B+UCCegYnxnBOFzuMUwWjQN5VUTgQRfHmW3a8tmW1WLA5lKQYLaNvZOoh0PVQyaCqNEDX2mKsjDpZ0O3wwGUGvBM8iysIrz9s8Riux7Vzj7hMnXiLSEfp1+5buyuQlZN+aQWIJEWxeEIp7HRedYbH4iXwbmPGowebBy5rUGXKOfGZYwbfIUyq7bgU3tdoQOSLdnCdiyS/CpRMs2q6l6TrAfkpE2k40enz4Aq9BFsOOEQ6FeMJn2xY2hSpby8AlvvHIeBju+lkCgVXZeu/e3X5KhJU2I0QFg3j4/jt2hIwT/bQd5DZmq+1tXi8MLMIfci2eaeT4zhvfVk3/4h7ZuAlGBhjrEpE9miDP4uddxYFJECnDCkImrd95ugSqaqvSqB9hDZVqOuPeNuowC39y6MknEeUFD8M9v6xuMxgSAcwmmVZ5ZkN2RTVeWnf+JG4I//CXi1CThSQvNjxpIgew5REQGJaclyDCvdSsia9K953aShDFSaHe7VCp5yVzYm02pa59KGM7fP9v4sZurcGNEhzq9susLJllcq4lmZ3JtyY/Av7GxvKSYfEqZssjUGQDd7pl3yFQzDQWQs/ZL2K/dtMPHCdQWbgLLE5uuTiWD2nN7kK2b0DY5Bg0GsmPAN3KPmfRLlqDVl4yLFm8IhMEGpBotCe6/GBCvpg9Pri4TiWMqgaEk9p/vm0QCiJTDcZJ3sk7fmJG/D7UIUPkG0mwIUaeMiyRd/E8AjwIgdSQiVxHgcMLLvCTYYnBXtHaRqY9RNsu/CqkRRD5qvEaIvxf801DTC45kHHki7wy29x2qXn0r3H1QSSRvvfX1ppBtvOONk4U9s88aK7+usPxJVrn6bViOckmCJEZFmOWH4Sddk/vtlLs2ctTwhYiw2LnEplkE8SM+KM1vTssmwgcPvYaG3geswa0rRjaxCSU63PGm6fudQQLD38V2+ET9oP6v8cgQyBzTmOFc/2QPePri/THNpAjRR+JRUXUlyCKw7B4EMonsE3791SN5SXDkreEkRkW+UvkWYxz+Nh0xST+CxyBHSsfktCR1YpIYXi6YvEEgwhPoFcyjMIAdfWb4dtVURPTisl32g8+gLgr8LjyXO28R1ijCq6E0SOmRpwDLpxuZO1yFcOqU1V5URHkC54ubxuDBi4/CPJDFNRn3X/3kmHJ4gPhaKMRFlhC5G82HRg3ekGEMeGYjM+k2+14iY3LuueDXQ88ovRB50q191fZh7/0IWIUKqpa7nk5xcPknY+lBrNja8u2+GBptW6c21jmizrmvXfsv4yWoJ3MwusI0SFMTNf2m/V/ls23e+2g0IMsSJalzHqC7lB+EOSHKKjPuv/uJcOSDzgi+xzI+SxZNGkoX2qwArDARB6JY/pfg0HCgHBY4SNHX6nFSGp7DRYVS0swjGJZRmNY8oMgP0S1xaCKq3mpdOf1K1Bk6xsnwxIuqkWKQGQEZH5EAMVoJD8I8kMU7Yo1aJVDhiXH4Rcw3WpboTDneXGkO9eylBFw7N2ipn2UHwRlWCnPakX3sjQrv1gqumn8dXNRcEONoqQIpIGAbDYYpN5yjkR+EOSHyNl5vSqohLUBeXllyO+rDb3oN0WgSgRkzhJZFJJXrDKsKmcpRnUZa3n6hcvKK0OefqFbLVIEZAQ4JRRIfo8KDeUHQV7tQrf1LfJSwopmluIE2rFutnJ2oBUUgSgIyLyDYD5pUEoPURpDrezTS4YlCztEWYpGsp3k9rtE61VbKQIOBGQP58gpYOUHQX6IHCOuX7GXDCslWVfOJB4mvmX95lGv7DEC8rtQXpbCbcuCm/wQCd3WtyiHDIv4mdFIlrBkB8ZoV9RWigAIyF4y8rIUAJQfBGVYAnQJF8lYE8A/GsmyN566VTnlRRuDtioaAuwH5ZDcuF5Go21EH1L5IYp2xRq08lPCEv3y8b2KRnh14T8cRDi1ycnQgxrq74qAgIBdVMHpVMjTEdmDFd9MgXDY8pG8ZFirxHcO3rPRCDUk6VsEkqMnCw21SBEIQkBeVETOkA+vg7rl95Z7CoVGfoiklnUt85JhEQJJoJZRGRZ9vviM0LHZrZtp30eqoGWKQFUIdDjQkK5RoJfEBSk0pIj4HALJD5HQsL5FOWRYrdpHh9S5PgZ9PoGYc9HHpy1zhACBrlhOMslvULmtnH9IGZaMXpKlMtYkbZbj8AlDWUasJTHCMm+tA04QOtAiRSAsAgec6FiorPPlL4TtrVE9HoGtd2j020Z/rli00Z++/OGlhEXUJNn8V450LM3NGhsJU6ZDP2Oi9y93raWFQYDYx4d+2nG3dilGjVMoL1Een2gpWh0jTr/YS4ZFqEw5hNDuPaIj9/xos3KF1BxJ/qQLbfROJUUgGgIsnpO+79AtEAB25uho3dtW8iPA48ND5CN5ybAAWo6fiS5TCHYszxOWDU/dLVexwvapFxn2nkqKQLUIYCd42kWO/Rp9Trk7Yih32rL4eQQEkh8foWHdi3xlWLJ2HIYii8Qy7s8+ZN5cKlcxu7QzZ/5S5SwHSlrcCAGMBM/8hWnZrtHPjf8kpB+LMDKx+GUFlvz4RL5uDRr6yrBIESjLtJ37R0cPyxeS6Mn90zshleFZpKVRUgTCIEBScRaMHImbflh4D17p0NLKl5MXP/3z+HhKvjIskoYuny9h3vng6LtC+sVgb8pdUv+lMvwqzvqV2fcod02tUXAE9j3anPmrUN5d6NpfmRUdLfaDMsPiwUkp5270QYdu6SvD4gZlE5XtWpqOfUPD0FzF8TeY1xY2V7Dxb0QTHPJ1c/x3bTYtJUWgKQIsDJbHkK8F5vKqbEJO3CduqPyh6u8sezlejfzgVH292jbwmWE97YBq/+MdFeRi3Lju+pkJ6XqKg8VnrzSIdUqKQCUCLAkWhux/U66/6nVz588kh9ZyTeGLc9m/6HpwhM7rXuQxw3p5pnn7VQlAMrZH9iss9YvB1+2Xhc2BvkMra+5w2sVuJYU0aC3LCwLoqoZdvNYCplWoWyIVBYstpnkU/oMse4F4ZHhw/KVNB3e71N/Rk5iLXOcCbbKJWTBFKHcXEY0IhQJvSMyvwhCxjXoNMRxdv/qi8TSCR5jb1DoCAuzIMApFUSB781X2gCXnnT8xS+dV/hbl+4CzzK6dpIZP3WsWzZAqZLzMYwkLZGc85jjLQ9MZOdpMeeYWP2fu+rkJH46D0LSI5ef+1Qw616FNKF9Cv+QDAVjVEefaqe891GwaOqs6Swvlw+LYgg9LnQUvEOeDMx4Vyj0o8lvCen+1dXYXAjYiYW29o5n7ZNyZt/BFiwAAF0tJREFUeGupldQ6HmS2DK1ZRyLbrat1PCQLOUnD31oedwzaPrsINJi9epvDP2uOPs+G9AgpjJduB4v2Wy82S2YncHNHfUlKec8F0F5NezCBC9WxC78ZFsAhS3cdKAHYqp2ZPzms7lzoiNDasx837XqGOpku98MZM2qFHkeYHocbJK83Xo5lX1PuVr9kBAHsM/cfao77hsGTmYmu1r+C4Hy3XGR4HcYnYjMc9UUpFiCXGHeNkQMHxB9G2j14z7CwCd7nSLOlkGW+wbRoE8stqzwH6KSeH2MIlS0H7ijXr/yy1fZm7952WXMOQBLpleJxQWVD/Z5BBAg/u2dPM3C4NVZof4BhciPQ9EfNfZdb6TsROu6bjtMe1O2P/d2hQklkJKl24j3DYluOCqBTPwmlFrta0SaMUZXUy9qyjz8y8ycZjGXa9QplVtOoQzYLmDvDYXsdaxgV4iE7Am5ByQsEmD74VN9TLZ9CS8VUVrX7K98jdpsP/s5MvsOwnBIhDoX6nuboadRV0aMtO7quYXHDFSd7/7ggh5/ze4cFA++xq7+ewMawPDWoVzkG2nv/8g8Rv6CGQ7OAggz3rpA2XxGvpM2iIkDyEVRUuBMz3eGVmEFXY7pH/D7JuWZ45/zBbLVd0AXt7+wEr/6GWfOxVMeLsjwwLIDuMsCc+D0H4DCFO3/qqFNtMRkEDv+cwQIrEVqx0Cycbk+dcQyKnNwpkZFoJ3AB1OcYzWDWJAdHD48Vm7Ix/zZzngjfIlRNAofIsRno5d5fJ3/dUINLulLoo9ekL5xsfywC9JeyaolJxekPS4gEievCBw8aZrcJm20Rt2Oc+PmULJUJF0EMkKVzDEFQCTsZ3qgi7iCK2h4HGs5z23Qwu3Yxu3a2G/YEib0/G8BJdyR/5IIdg5NbkQ5qTuyD8gTRiNNVTiQsIEClPexSBxQ89tdfkMpBCUJWv9Otciq89Y1jrJXFa2zgZvjXEljYXPPqC3G9Nyr7Lux3Zorw//Cmtp3tv9bIMzjdVmSUCK/23GNm4m0Or4xo/XOAM/zXbifW2y61Cod8UH4YFvPBQQkGBDIhudzwvbS81WFbSFu89FJhW+tvjGcAnlXiX+Qlc4buWt9O/7fnaGz0ShwKbpX2NGGlCaviXCUNwqJi+OVuu+jnRlqVWW4oVwwL4wa0j7KrOjOH5fptl6QopGzf0h4h9Rxsto502l3t2sL7DP/7hdNskCN/w4ZUe9fh6zML6KHQmu/Vq0YBF99920x/xDzzgCPWdvhbaFoTVvuJH7ujVOJNzVkTXoq5oVwxLGaF/Tw6SCfV4LWDSovDZhRSsmbNOdTwFTCPQJH30jQr/+P/iN6ksAT4SFIlJoVaKo29XrPYgv/T95tZ41IH/9hvWP2DkzhlQseaJ8obw2JuwmwMqfb49WbirbWYyjYdTY9Bpvvhjqi1yQ4FbsXxOT5JWPnn6QUro8TRfoe+NsgP9gfxz0Dka1WW4gUxa6x5blSNDJ0O/qTBydlJM0fZyKU5oxwyLFbtZ/7PbL+Le6YI0TfhFne1RGpgYYhJdNdDrQwY35Yn/JA+/q/dKsK55k00PFe5JLKBYDnc+RDrOBXNkjMaLNjQLZhs5SneDeBcG+r/KXPIme5LoTi75ps5fFflkGExmezCzvhFKEv0Sbebcf9xT3+CNdA+oFIhiC2cC2OfmhEbRgIhzZ1gPSLzYaGKshL7O+QpUlrhK1MzAj32WRgKLHo2RU1os7dDTsyDXBbtNCQpwU0/qJG41+w40/sxnwwLvKwp6fmhlBdT7zV4LdSF8O1A7GL/QsyJmm1hMHdGSY8WDx8jH/VcAIU8tc8RVkVVrbNx5FkGKAIqIEm9MNVGOqsDNdjANaGyjq8x916eEzPRpjjnlmFxq0jOyM9h6NmHzaN/rafjAoEc2naxdtW7dbeH7pIvd5j7CVcH3RbSFpzrlSRim4S7ZqxahOvZ5ygbnKM2e2rwwfANsZRj5SVzDCGz60Xw5aO/bPYbHOr6T95knrgpVE0fK+WZYXE2dNIFjgwi5TnjcO3+3xgOpOtPDdaIkbiRbGxR2PMhz0WqRB5g2BY+ANncKrJxxkWBQ7GddksVBvPhewajcD4c9hH8E2PdyJniExwo9lYnnO8IfFy+HMrKe36diWGXh5Tsl1wzLGMf9U9cak+4wxB6ynt+ZQ0yM0VoZ/Blw18EEQyDbBK4pqRXRm2MpxHWQ3gyZoR2727tQtD3pXfLxPDA/8m6EMwxKxZlLnIGk37i9w2WfWGIiSMqPGw3x5RzhsXMbbG1GXZJWJ6FEfmof5ppI7I742hwkLngX+yPUN7LPvrRbgMdDWyLyF/obutCm29prUBK8VsSHwBxOzCyZRfMmwlhKstaPGIQHfGFsOb4cKs7fpz/NAL5Z1is+Kp4FvUxYHnkL5leyqXHGOGrTSers0f9DP9KVgxBg8MmETNIUgfVjHA5hk+xAUxWi4fwiCUtRw2Y1C6blzkxqim8vJaOOc/tZ1ZuWBBuxf0WgmFxn9XyLNQ6eGDFScBbXky1+cINElsOD3CYV4K6Ho4U2SeSixhhJFVCbCQEXZf+SR78MYmc68GkiNjjUQYjNsKEWgs/icXhVqzAojAsbpVHmqSBrIaQhOESFg/jr6/bzijkOJtWQ2ePFWXXATYkZlLEYw/b4mgiccLFD1bFv0kRW9rZ482c8QaG5RexFx5wtrVdCG9WVihuxWwWiGFxt1gPENwW/Uh4Iuja6H8lkHcn/BUTrMlbmhCDfJLyZ0TOIq4TMlf8sM4c1SNPwaqQrRIhjvYYGB/v+FTp9jlbGPT56oJBomd86I/1tLdIZOKq6qRYDKsETb9P2PQBVTnEIl+M/GcqgbSqmq3IldENwba6HZaMzEW83SdvtjZc0dgW4gO2VP3PqCLPqHDjRDecPc7yKX/D7BDW6sgv2L18FbTGjLvO4KdRNCoiw2KOMZUe+u3q7JvQ5qCExipv5QqPFwniDCptOFf840WMAEBjNgF/w2cFgFUdYllV/KDDHPbhb0ziGQQrfwl7hf5nmn2PrE5zh+HCA7+zzqEFpIIyLGYa/c4pP6pOAqcVp+DPPGi3RV47ErM1xgUPzkXun/DqkmYfDxIIYVeNi6KDbTXYK+J7gB1ZHEKmwyiBNwdXrKPpeZxbKLXdpoUNq937uKpdstBRkCa6Pu5B8W87dg/FZVhAh5SBx4Och7VZhGFbBJOcfJcheJ7XRIhUnF16HhPWNDHoZtFtjbs2UCWPQv2wz8bVoyHYTn/YWuTzxHpNO7S2rIq3RQTvUSJDPPa3xFIZ+ghjoRlWacK6H2bI8R3B8AfrHvQ4U+/LnHF8tQsRAy7EH5K8hnQJCOofG4Kx12z08keMhVVhKRaHMC7huBaRqmYhXOKMVmiL2TqG+7wgI1jMYRaHuysMq+CkDMsuAIJnEcIRw/FohC0i+8QaxJmMNrzwrTBD5UydJypysHO2bM+PNgQagwgy131Q9C0nXgf2fXBv6iZg4fGJVhNJitizGMRGPg8lotmIK/1WnkaDrmkrZVjrMWkwfU40A4aHiqK1vs1G/6MGtsEPRtk4JF4Tzsa9hphexxkC40Wjkr9LhC1P6XLoB6c9aJ4Z4X1yRtwPyIrCCyDyEQfeUVgCPnWvS0UYbZ48bKUMa6NJQ9QiMSoml3EIO6CZoy3z8tQgqHTvsBt0WweeUvW5RBzo0E9NuctmcMiyi5/zBjF/g0n1GFSFtXqzfbKExlydVtKdZq+Y/R+VYTUzR3vsY478YgImS0QCINwHH3/PdNC28OCRuyy8p0gzgIb4CeaOVRGM3l9FFQo7jD/5xDwJBS0WzMh/2DhcSo0QUIbVCJB1f2KHzbaIHWJkYb6yX/yHUUjzIRO9jzmcMX0ggisGtwn6+pTx4eEkG0gi1vPlPmv2hXzRBJLnVIHIsRz/xScStbEHJKIkdn9KTRFQhtUUkw2/wK3wHcFYBj/ERMiGDZht3XGJY0kQS+82PogPqNLjm32WwFyx0KrnrQ2XV8RmmfM+xHCs2BIMkoF7NlF9cNhEGaoUhIAyrCBkNvwO2+pzktn/hIQj88K8OF7EeZUP8S1XeWJAj7SFMyYmoDu22QBRtd8QOZ+40YbciubcU+3l4tfHJJ0jVDznSXjBYV8EuwRhDJgsYBzDeaiyKgGlUpEyLCdE6yoQRxyeBedKZJPY9KocjWF+uXxtiF6+ZNw8kicWlTwJ8px5thvdKbmISa2GWj3juipMamFMfFqv/TfygWmj22/0JxtA+NTT9xkyhimFQUAZVhiUNtQh5nLpyB934lSpxL8QwQiMifyVzWjrbI4wN+03zKDKcRLKu4m32+czmxthjDmIQE0ofSQp/iWSeqqEqzamG9MeynlE48QxVIYVCdIGs3cvs98Q0/GghHcHQaNhfROFbtF0e3JE7PlMEdIHii0ErqCkW+iPEalQV2XNARMrFjIV7bGv/TftN1BpypArya4Gn7KRxcI7jWdqvus6GGVYseBnQ7Tv0Tb/UphE07GuVNEYBRDLfd4Ee+aYHQfglu3MoHPM3gdUDHTt1xenmtFXG/TrGSEcv3FpIFwHHo5x1HDV3g6vGc7+YNzZFJarvZ161VeGlQDySBYcbON+gcBVm5R5pUFzrgQ7IMzIgqeykpQcXoAPClsqiJ0sx164lWSB8BXt0MfyqfZ9qgsrFHPwKKfmTzSzHrdGLWqpEBNMmivDio/hhh5wwSMMG4byHfvVlHOx0WC3COdiu+F1uK4NUCb0jdM95gI+xaYv2aM9eYAc/DEXRGrGhAWnSKWkEFCGlRSSG/VT4lwE+exwYOrq240uvMYeNc7llT62ptluNhpDBv5gr0eQws79rAa9lkQi3gVTrBGs8qmUYFeGlRKw67ttMK3bW3UJRoZ79IgSAml9R1X+T6C76VZj4nugu6puuxSYEPU/1udVhcCu6iqNKnPouXimDSsIk1r+oqrSG8GT8J/KsBIGVOiOxwnLQ7Q8JOMiK0TQmZrQQ4QibBFx0INzERo0x4TPEKcfuD2mZCXXCDq0UUiyHH2gocPuNztHH43Gmb8/lWHVZ05J6ATPslY/a21/dmqbukSAPRdsC+2vj86MQZOE/RdnHT2PtiZU6dIa88YSe4ywbK1ZHNwqm9Zk6YKQgd6VYWVgEoyNdwrzsoaLa/nXdi3TGhXxlUjYRz5nHjmvCRt0onfikg3rT4lwllpCOvv1trvo0ZXqjoAyrLpPQTMDwLyrzLz4EiF8czOdbvwTBqhP3WNPsnzx5isNH09GbEdwkML3OHFi+1xmT7imq8FU4gjH71AZVnwMU+4hTbU9BvT4yrBVzP4GpxRQEE+gZE3SETmJnFHSRpHiUK3PU17NcbtXhhUXwVq2R21PPBPOHDv0TTI0FR4zsC2MPLPpgostLsaoSFUJ+vfBmxZMtipzMlyonVQt13DMaynDiglg3ZpjatTpYJvthlQ3bJTiE9wKnvXU3YYQAhkhOJQN7DM0lHO1c8xsfhGmcGnCTs33/GzOm81rBWVY3s8svsdYchNEfM+eCXAusgoTm4nA6vWNzYR1AuHkSeFDeIyYBJ9CkiKd/bxJBsNOJa8RUIbl9fRtNHjcUAithy0SfsgxCdOHEtuq/SaRDWCJVYUJWSPfJqZn2KA9P9ab4Ijy7WgpCCjDyuEy4MifhID7HBHXipK94cTb7D6xNoaRaOjY/fU7Pfaw3zYzR1lWZZXoSvlCQBlWvuaz4m44VsOZkfSC6OnjELFPCWcMC0jPAAIdHPn7CKoVM0oPRufTRlhXvtpw2DioattoCCjDioabT61wW+l1rN0qxtEHIa2M/peNCZE4oXob9HnrcRmZ2MDOHGMDeJJXTSnfCCjDyvf8brg7dEOESCUsPaquyEQEm7HXJJYgllyHh59jDUEjE9IfujbsyPLkbxQZjSI0VIZVhFnecI/EhOI8Ea12ZIkGqyVMHybcGisYObLewaebPicb4vBEI1yLOMpk95fxZBbR7k5bBSGgDCsImZz/jvUp6m3C2kUj/OxG/9uQSz0CwTEHfc5E9pfERoG8O0S4VyogAsqwCjjpG26ZEF2k6iJKajQiAtSjfzNvLgnbukVbc/SXol/uhalmws02E61SYRFQhlXYqd9w4+Qx7n+GTbYegXBCxPRh0u2OrRlb0YOG2WT3nF1GoPmTzZM3W89kpYIjoAyr4Atgw+0TXHDg2RGjIHA89/AfDREOmiUY4uCvmV0imbNyLjnuOrNEpapmkS3ej8qwijfn4h2Tp2vgcJvxuFrCSmvqPebx6zcK/IA8RW8HnBTFZ4iIg49ftzZ/X7VD0fr5RUAZVn7nNvKdNZjuh5qBnzaka6+W3njFjLhynZoJg9Vjv2mwXaiWSLw47lqbckZJEWiEgDKsRoDon+sQQDgKn4a+EjXinU+6w/5w0GlVx63HdXHirda0Sk3VKyHV72UElGGVodAvzSBAgBcUWzYNfRIRbJq5wPqf2FE++5BNZ68BFdZDov83g4AyrGZA0Z8aIYBK66j/MW3j+SQ26rPyT3wAR/7DLF9Q+Zt+VwSaQUAZVjOg6E/NINBgwz/gSZNg2E+uQrDTMf+2noAam7gZzPWnJghE9Yxo0pH+kHME1pjnRtqkFYedY3oelURSMvaAj1jlen0jBeZ81nJ3eyph5W5K078hLLYGf9XsvEf0K63AbuvPNp66kiJQFQLKsKqCSyuvQ4Bge3gvY7yOCXtVhK8ylvEcBWrqh6pw08olBJRh6UqIjgCRto77VhX5e1Crj/i9efXF6FfUlgVHQBlWwRdA3NtHwur/Kesk2LCJ1FVJsCLKgkaDkWDSMhcCqnR3IaTlIgIwIIynFjxlhn7LEIyhWcL8/YHfGVxtlBSBmAiIr8WYfWvzwiCAc/K137Zx35sSZ4v/+Y5yq6bA6C9RENAtYRTUtE0QAu32M31PM2062PJlC2zYmTTCwAddXX/PPQK6Jcz9FNf0BgkHykdJEUgJAd0SpgSsdqsIKALJI6AMK3lMtUdFQBFICQFlWCkBq90qAopA8ggow0oeU+1REVAEUkJAGVZKwGq3ioAikDwCyrCSx1R7VAQUgZQQUIaVErDarSKgCCSPgDKs5DHVHhUBRSAlBJRhpQSsdqsIKALJI6AMK3lMtUdFQBFICQFlWCkBq90qAopA8ggow0oeU+1REVAEUkJAGVZKwGq3ioAikDwCyrCSx1R7VAQUgZQQUIaVErDarSKgCCSPgDKs5DHVHhUBRSAlBJRhpQSsdqsIKALJI6AMK3lMtUdFQBFICQFlWCkBq90qAopA8ggow0oeU+1REVAEUkJAGVZKwGq3ioAikDwCyrCSx1R7VAQUgZQQUIaVErDarSKgCCSPgDKs5DHVHhUBRSAlBJRhpQSsdqsIKALJI6AMK3lMtUdFQBFICQFlWCkBq90qAopA8ggow0oeU+1REVAEUkJAGVZKwGq3ioAikDwCyrCSx1R7VAQUgZQQUIaVErDarSKgCCSPgDKs5DHVHhUBRSAlBJRhpQSsdqsIKALJI6AMK3lMtUdFQBFICQFlWCkBq90qAopA8ggow0oeU+1REVAEUkJAGVZKwGq3ioAikDwCyrCSx1R7VAQUgZQQUIaVErDarSKgCCSPgDKs5DHVHhUBRSAlBJRhpQSsdqsIKALJI6AMK3lMtUdFQBFICQFlWCkBq90qAopA8ggow0oeU+1REVAEUkJAGVZKwGq3ioAikDwCyrCSx1R7VAQUgZQQUIaVErDarSKgCCSPgDKs5DHVHhUBRSAlBJRhpQSsdqsIKALJI6AMK3lMtUdFQBFICQFlWCkBq90qAopA8ggow0oeU+1REVAEUkJAGVZKwGq3ioAikDwCyrCSx1R7VAQUgZQQUIaVErDarSKgCCSPgDKs5DHVHhUBRSAlBJRhpQSsdqsIKALJI6AMK3lMtUdFQBFICQFlWCkBq90qAopA8gj8P34d1H2dwflqAAAAAElFTkSuQmCC;" parent="1" vertex="1">
                    <mxGeometry x="250" y="1067" width="50" height="50" as="geometry"/>
                </mxCell>
                <mxCell id="92" value="VPC" style="shape=image;verticalLabelPosition=bottom;labelBackgroundColor=default;verticalAlign=top;aspect=fixed;imageAspect=0;image=data:image/png,iVBORw0KGgoAAAANSUhEUgAAACgAAAAoCAIAAAADnC86AAAAAXNSR0IArs4c6QAAAERlWElmTU0AKgAAAAgAAYdpAAQAAAABAAAAGgAAAAAAA6ABAAMAAAABAAEAAKACAAQAAAABAAAAKKADAAQAAAABAAAAKAAAAAB65masAAADwUlEQVRYCe2WWWyNURDHf7dqaXWhqipCqRJ7W1vqwU6CoqGCByG22MKDByH2EBKpChERhNhjjV3tgibW0Apa0qrGvhSt202r5iit+33nfr3JVX1g8j2cM9v/mzlzzowtLqaEqiCPqgBVmP+B/1rm/71Ue7qY29p1aRFFSATBLagmRjY+ZJJxj4cXyfngog8HNZsr9zgymm6jSLtJxl1epPA1X7kIDqNZR1r34tou7p9zcOrKpuKIuwyjVXf2zuXjSweHz5KQL/kcQ+dQw4s7xxykFW4qKC5JbORgDi8zopb5zXrO4eV0HU79ptT0pkEYfvXLhFaLCiLuHMPNQ9g/WrnIfsv1A8TMU3HnvMe7Dm/TORVPQa6VlRWwzUZoF86st7IvlckZ12vM7SN8eo3Ng/7T6DuFU2usDK1S7RtIXvbPUrLyAUWFnN+oUIVKvnFpC0064BdkZWQFXDuA/C9Wxs5kXwt4/oDWPale05mKkybhWYMe4xi+kFepTi21AjkdqTLJdspV2vVl6jba9tEqojljQY1dTO5nts/iS5bezMyt5UO7fkQMxKMa34q5e5Kds/ELZMRSVWvvMowWGuDwARTmcXyVUdXZPiiUyEGERZF+ixNxvH6iXrdOQ4kayYNLXNhE9juNqQa4TW8ubNSoalmxSwhoRFICW6erSpRLLP8tD9zJ1fjWIyJaVXj6bRLWGa01wHUb8j7TqKfdy4k2DSc+VlVySDgRg2jUBi8f8u2quCTbV3dw4yAzdmqANVUtd0OO2UWSgU1Qx8TRczxP77B5MsXFbJmi1r0nMWoFRQV6T5qIXz2mYUvSbukNNFwbQc2JH1YuEbDks+qAZ+4pZxpWmohTr6m6kDRWKmmAH14mL4chc9SrW3mkSbWAHV2hgp64AfsndaHNJOe6b76Z7cixHNj1wMVFJO4hcS9S4d7+ju7+0E4P/NN5iWrDhv7/O25pSB6a4yrXkodM0mMmSyOzuoFTgj0LnwAK7Hj5GmSqRHKz8W+gf7ncAwa5e43bq3EsfKARWN7ttBvqYXmZYhTJ3l3g1ETVGxJ303GIakSSWOXUUz2c0p1kMhFpyhUNsEtTpsbuF0s64OiVPLpMZvKPG+ivilFu4+c3qmHIr8gwKiObmSyLy6xu4kjhJKxVbTQwhP0LkNlBJnCZvApz6TVBMQ8sMtn8YLgbcanX6rXoMVbN2FJlglonWGU76TTX9yM3U0t/BrjMtYxp0hll+LIeTEXf3VSXQZYuJFz5XCF3q9oVDK3Of2BtWiqDWWWp/g6ffx+cr3WDNAAAAABJRU5ErkJggg==;" parent="1" vertex="1">
                    <mxGeometry x="270" y="970" width="30" height="30" as="geometry"/>
                </mxCell>
                <mxCell id="99" value="Nat Gateway" style="shape=image;verticalLabelPosition=bottom;labelBackgroundColor=default;verticalAlign=top;aspect=fixed;imageAspect=0;image=data:image/png,iVBORw0KGgoAAAANSUhEUgAAADAAAAAwCAYAAABXAvmHAAAAAXNSR0IArs4c6QAAAERlWElmTU0AKgAAAAgAAYdpAAQAAAABAAAAGgAAAAAAA6ABAAMAAAABAAEAAKACAAQAAAABAAAAMKADAAQAAAABAAAAMAAAAADbN2wMAAAIq0lEQVRoBe1aa2xURRQ+s33wsMTEB68YaRAfMZL4Bh+gQSNBpC2FovwwYojiA0XaLoREjBJ/ILstEOszJjYxGrUouwVEjWgCxiBBjVHjE5+xRVETlUpb2h2/bzr3cvfuvdvbbkF/MMm9M/fMmTPfmTkzZ+bsihxP/+0IqKHoXotWyUq5VLTMjik5Q4uMh1znYRdtfNBZW0bLPlGyrT4te5QosBaWClKgoUpfA0A1EFIBGOMGCKUd6FuhcEtdSu0YYFuXfVAKJCr1FDRcBynTXUlavsXIpgFqL/I2AGvr6ZX2smGiO3tkPBQdjxkaj7qLVEaqkE9024rsRLsV8bR630OLVByQAuurdHmvlgQkz6d0reWAUtIUE9lcm1afROrRMjVW6skZkbmQsRQyTrXkTUVK4stT6vuosiIrkJijZ6iYtEDwSXg60HEjACRWtqq/o3YWxPdIhR6FAYhDiVrUn4DnD52RmvgW9XYQv58WSYFkpb4LDTfiKcaTKiqSu5a/qtr9wgr5Xne9HhsrkScgowpPD55l9Wn1eH8y+1UgUaUbsFdwdAR2+3BdSh4Yit0jCBh3s4YqWYO1cj/rtZLGeErVBfE6NMxeeOLIW/Cd0PSm+pRa/egsGRXeorAaDgz7YF+Q1Mm+7eyHCg6dAWvzb6BlMQXWpdVLDZX6cuwWu0DbWtotN9+7Xf0VKrnACvR1I/p6EWJ6sCZmhq2JwBngbmMXbLExG4AnHizcM5GxTUV3qexJztHnkH40EgeMfUN2MbEQU1A/gQrYrZK7TYo27zSEIO+MnQ1V9mCmKp36oc5t3ynIPcliyunCC8hUWie1Gx8dmcMyacVrar/TKlmhb4EKzXhasNB6QaetathqfaZTnlIjpMnh9ecwhy44s/XYdr/01+X7trvTN+A5ATKm+p0dt8WsBI3oYWkujV7wWUwi//SUyrLibpkKejl2i3t6SuTZEpFFPj73kyMF78x0h3lHfBFDokI3wk9wcRPbVd6mWQrwbAPg0/EcoJPyMnrLGPGJAE+3X46Hjmdx10jpKD0st3r53HJGroSSiwFiuEsbQIFYikSWoMl0YvSenbIUsAczQUdNK9PhHhZTOc30r+VjKDsXO8R3Fk+zzbMymB6ayOIs4gA+6O0BvAlS1mCwFqCpe/hzFzGdCKaIp0puM5sjyH/xoJbLPeAjNBk8S0ZZTEoqiNWR5CrQOEemgDgOi/PbsINZUYnswlDuBV8t3PzCB7eofxxB+XLf7pWPNbQuvll9SmxgGGuxGl7XhHSRzAaD6Jhw2wpMy19RFHBJYOUQEOF1z8XYXjahRJoXtCjuclmJ2OidDVYR7pTGKRkmLkxT0PKByQNea2v0idhmE9xqA6oLJ2lJAsczP3bJcy/XAKY/WWwuVtS7JoTB5xWQBzZe/wJTUbfMhvHV49kJV89dIVLCwuMi7j8pGWGYlCwMVMJic7GC2VUAZaMAb1JhPUFzbPUmlULIk1Di6QdrdGkYf0H0ACU82PoGGx24awBlQxxenEcBHCXMhqjka4zpaVDitrJumYxLybwRh+X37hEyNhB0Rk4x60tLWbJaTwjkIbHX9ROr8LUK1sCZEJjTzVwTxHao27QOVMDURHy9h9nYiAW3FfxTcQ3c1jVMlmPZvZOvPUxvHkDOy8fDOsjdHeuVmbCPHSgv/KlbPgQ5GdTOOwM0nbN4AUf+VRBzFk0hjCIY2b70BTrsxC7xQxbPkY8yFE/G04HntyPknBJncBipkHUhspGm3Ld9isVGkmvmOQqY6EGIAmYxYhhhDtUwn1soCWn96aUSt9teuaH4Xp5D4CZcWBb5qt1PbKOcwasxu9wgeFCEFcnSulb1KsvExu6RchVARRtAEZxrX/wMSbyVHQLvbfWt6vkQnkLIR8Cn1WOOIGAcZ8pa2h2auwvB1uikqPJFTmVOHpM/Le0HjNIVUcEPxhObkfeAZ78Y4ItN/zFE92xyFcAC3EaaCTo5tb4cF4w0dqEbsGjPx7R+5Ksu+JNWACEYS5iNDzyFY9DM5cnBSpqrQO0WczzejxmYmJirz2OlPyUrZDJOfM2wxYeeul07PsHPNujvzCG5vahYJgWBt5jOgPD9Fqvpx1XAhEq0tJKKWag2tb4XRuYCkE7BVN578BfZsaFCj/GxBH5G9cTxN1WHPW/lyInh2G6IwOgN67gKsBK2+rJteTcjZrYcmEGJaT1K9uJif9QOd07HxALTXcpvD0ZTnaWAvensRM1oVMQNh+flLkYt27Gi3kXVaTDCXckqvdDDllN02+XURCNYLKPBvdN7G2Nrrx8w0jCyK2Aqu2HrtbhQPx54L47Jrwd7ZX6Zks/QqByLa23iOt0adqmHCU3ihj6YxEs9sbAtsfll5CjAWz8cyiYwzmesErefaq/NGQEZGY2I7OsQWI7vLtxZV+FSXxp6qbfgYQYHTPuILxNq7IuXMui7yR+RoJgcBUhkiBtxmBkoVplYZUpWk+4mJbMAnulnnBCra1NqD0+loZd6MIK/K5MxZyfTMMrLxkkZ7P2DmILahE5sUGjRPRJQEtYAtJ9/X6v6JUhwoTQElRfANBkRzBtaDFWAAHDevxsjx2AVg7uLsP9/DnvcgfILZWOkfsnT6jD5hjrZuGgz5A5HX4FOzekzrwJkOtbhdTjLhzBIxmThkvsNr/erAJWwM7EBRa6ZFEKOdwbuTmQeZPL/wAFg9wV5ZL/4SAqwkf8nJpAasNCTQ/ETExZoPeTxh4yj8xMTBJvk/5EPxF8x3U0MOpm4jeWLkvFsw+OB9bB0UkxH70e+Pvl978CfWUX2wWbTmNK9vHxj8bc792vepEAfxwsJ6BfbUyUPZk46Nj+zOr05ORS5FmBq4GUZkgy+0DvMufl+bMWtULoFDuqt3OpolMhrIJ84ekyG+0zELNP3VwOYFm9Pfbc7Je04Tpi/GuDstI/neR6Jczx8vk6O1/1PR+BfJBwjTOVOgK4AAAAASUVORK5CYII=;" parent="1" vertex="1">
                    <mxGeometry x="380" y="1125" width="48" height="48" as="geometry"/>
                </mxCell>
                <mxCell id="102" value="EC2 Instances" style="shape=image;verticalLabelPosition=bottom;labelBackgroundColor=default;verticalAlign=top;aspect=fixed;imageAspect=0;image=data:image/png,iVBORw0KGgoAAAANSUhEUgAAADAAAAAwCAYAAABXAvmHAAAAAXNSR0IArs4c6QAAAERlWElmTU0AKgAAAAgAAYdpAAQAAAABAAAAGgAAAAAAA6ABAAMAAAABAAEAAKACAAQAAAABAAAAMKADAAQAAAABAAAAMAAAAADbN2wMAAADPklEQVRoBe1Yv08UQRT+5vYOoxiISNSQaDSoCVTaGUKsbGgsbIxWVppYwCn2UtnJRa0w0f/A0mhs7TRiCTGh0AQj5EAjRn7t3fg92L0sc7sLuzcHrLmXbGbmvZn33vfe7PwCWrS3EVC++cVRDOoqXrB93udZKKc0cKu7hA8WdIWqyPncJjgvqvsYoQnfRjPKfEDpRuS7OuGoMVQD/FTV+bs47BzAEgfbzGidL7UM+BIbzosu1208CL5PcWUdgLjO+1HWArDXWcl8BoKrkNVgrvag2vYLMyqHZauKDWVNA3BmDCu0ddawZ72ZGMDPIk7rHK5Do8OGN9xwlh2F10fG8TmNvkQA5kZwvKrwic53pTEWNkbOMlWNh+URDHQ/wcewPnG8RAAKCld4tumi0UlG7lWc4p3KqGuQfYeQwzWWzQVA5w+KY1phsnscj6TeKJXvY1hpDBHIoTS6Mr+MtgCkSbvNMa0M2IxmGl2JltE0BrYbU3XxxsljjlPhy3Z9w+R1AOQmFXYZ6XmOv2EKdsL7fjt6iXRXMOsCs6Inrp/IK+3QJ0tbz1ZBAFPs0yfXQH4mVcgI9jXloe3FIoa4Z7yk8ERohxTMchEzPAnc8HftmlPyesDNRC7gYXdYAZCYAs7LiZQmGqacUuiFwjNquiTaagC8p4+LDZvwFHjTQSK/fLQUPYWS2PvxAMcKFcxxTK8/bjeWURuR9/2tK3cDQJ3RtAy1zsljUKYAGL5vNDMFQLVlPAPZn0L/YwZq+0DYD2LyuIn82VgTNQYWiiiZcr+tHUysLeGb37ZVKpf/gOGx0Yw35QDvvHNLP1X1R/WmobeUWQeAAq0au0oiAJ0lLP4exYX1Cq7yEh75rJLLYzoKXCN8VYHik84WSgRARnY8RpmFHNBiabuTZezgCKHKEwCfQ4Jk4AmK9mGdGTC9yhQAyUCmASDrGeASmu0MrMk+YFCm/oGwKZR4GTUCENmUC7gnzM0P4xwc6LY8eS4/1rWUQl6du7fGOvnsowusr22W2ivbV6FX1earOAf6uutT4hm1Uizcw1cqOmVF2VYl73lNvSyspmVAlPPV+SZD9JThsgJCIs+fYFpr3BH9LdoPEfgHUrfEVIngvg0AAAAASUVORK5CYII=;" parent="1" vertex="1">
                    <mxGeometry x="570" y="1125" width="48" height="48" as="geometry"/>
                </mxCell>
                <mxCell id="104" value="" style="shape=image;verticalLabelPosition=bottom;labelBackgroundColor=default;verticalAlign=top;aspect=fixed;imageAspect=0;image=data:image/png,iVBORw0KGgoAAAANSUhEUgAAACgAAAAoCAIAAAADnC86AAAAAXNSR0IArs4c6QAAAERlWElmTU0AKgAAAAgAAYdpAAQAAAABAAAAGgAAAAAAA6ABAAMAAAABAAEAAKACAAQAAAABAAAAKKADAAQAAAABAAAAKAAAAAB65masAAACe0lEQVRYCWOsWijGMBCAaSAsBdk5ajHdQn7AgpqFVC+KC2jY6+QpSlhxc4h8+/nuwcsTh69Offr2IqnmkGAxIyOTnXaOlVbaoStTjt2Y9frjHWFeJXkxsxjHRWfvLNt3sfff/z/EW89IfD621c7WkvNcfjDl07cXyBZwcwiH28549PrsngsdyOL42cTGsSi/qo125oqDaWi2Ak3/+uPtikPpxiqR0sIG+C1DliXWYhvtrGPXZ3/89gxZM5wNjOyDlyfa6eTARQgyiLVYUczi4atTeIx7+OqkgrgFHgVoUsRazMMp+vL9dTTNyNyXH25ysQsxMjAiC+JhE2sxIyPz33+/8BgESdLAlI9HDbIUseqQ9VCFPfIsxleA1ITf5GQXIC9gv//60LpC4z/Df1za8RWZQFurF4nj0olfvDn2GTCh/f//F5eykRfH+IIaVygBy21PkwYpId1XH27tONv47N1lTJUESxKSg5qTTSDRddX1xzumbnE9e3d5vMtyPi4JTIsJipBssZqM86NXp0/fWvz5+8uL99ZefbhVW96XoDWYCki2mJWJ/fffH3CD/vz9ycLEBucSzyDZ4ptP92jIuKpLuwBzi6K4lYFSyLVH24i3D66S5MT1+furJfvj/cw7Y5wWvv10f/WRrLef78ONI55Bso+BRgMr5smbHRkYGCdtsr/97ADxliGrJMdiZP242HgKS4gWWlmMy0FwcfIt3n+x9///f3CD0BgECxCSExfcgn2XeuFsTMbgDWp8Pv7x6yOwdsP0DTEiv35/xRMRQBPwNQSA8UR84w3NNUBb8Yc2Ph8DdeKpydFsIpVLfqom1SY09aMWowUI7bgAIgfJCsZyc3UAAAAASUVORK5CYII=;" parent="1" vertex="1">
                    <mxGeometry x="350" y="1095" width="30" height="30" as="geometry"/>
                </mxCell>
                <mxCell id="105" value="AWS Cloud" style="shape=image;verticalLabelPosition=bottom;labelBackgroundColor=default;verticalAlign=top;aspect=fixed;imageAspect=0;image=data:image/png,iVBORw0KGgoAAAANSUhEUgAAACgAAAAoCAIAAAADnC86AAAAAXNSR0IArs4c6QAAAERlWElmTU0AKgAAAAgAAYdpAAQAAAABAAAAGgAAAAAAA6ABAAMAAAABAAEAAKACAAQAAAABAAAAKKADAAQAAAABAAAAKAAAAAB65masAAAEgElEQVRYCWNU0bdjGAjANBCWguwctZhuIT8a1KNBTbMQGE1ckKBVlJftaq46sH3V1VN7DmxbWZybyszMrKGmsnTuRHMTA4gaHw9nINdATwvC9XB1AHL5+fmkJMSn9DSdObj58slda5fMsDI3xhpdLFhFDfV1/v//N2navC9fv9pamWUkx7x7/3H1+q1G+jr+3m4nz1wA6gr29zQzNvB0dbxw6RqQGx7kA7Ty48dPi2b2CQsJdvRP//Tps6a6qqiIMFYrsFu8btN2IIJo2LXvsK21uZW50fwlq06cPg/xATMTE9ARZ85fNjHSAypjZWU1NtRdvnoTkKGuqgR04poN24DiQL1YbQUKYrcYKAF0tbGBDg8Pz4uXr4BuFxTgBwru2X+koapQRlpSSICfjY115rylMya0cnFx6mqpc3Jw7Np76Pfv3wcOnwgN9Aa6YOvOfcdPnfvz5w9Wu7Fb7Opo29tW8+79h7v3Hwnw86ooyV+/eQdk8YEj9ZUFQE/zcHNdvnbz+Kmz//79A3rd1Fj/9Zt35y9dBaopqW7NSo3183IFxsXrN2/L6zoOHzuFaTcj1obAkV1rf/365eoX/fffP6CeDctn//37NzgmA8het2zWw4dPODjZ79572DNp1vJ5k0+dvWBlbnL95u261j64BYyMjMBk2NFY8ePnT4/AOLg4nIElHzMxMQkJ8j9++hxiq4qSgqqyIi8vD0TPnn2HLcyMTA31Tp+7CBQB2upoZ6WrowGPTmAUAMX///8PTBDAoBYXEwE6Am4fnIElqIGht+/gMVcn25kT2799+26or33m/CVg8MrJSj16/AwY2oU5KUA3AVMW0BRgCs9Kjfv0+QvQGiBXWVF+zZLpQPtev36nrCRvaqQ3Y+4SoCPg9sEZ2IOag509OjwA6NG79x9u3Lr758+fQIu37z4A0QZMO9+//9iyYy+QC8zf0WH+Dx8/PXjkJETW2sLEztpcQlwUmLX2HTp+4PBxiDgaid1iNEW04GIJampZAyxPtDRUOTk5bt99cOMWKFMgAywWG+ppX7h8DWvEIOvEzw7wcXOytwZma011FRkpST1LdzT1zEIS8mhCpkb6DVVF3759u/fgEdnW37h1F5gmgEXK/YePjQx0lqxcj2YLFotv3bl39vyl2vK8xJhQPj7et+/ev//wEU0bQa6sjFRsRFBeRuKvX78fPHwMSfPIunAmLmB2TImLSIoNA1Y4N2/fO3zs5JVrt65evwVMwLiCQUxUREdLDVhzWJgaamuq7T90rLV7SllBRk1zD6bTcVoMcR2wHI4JD0yOCxcSFICIAOurV6/efvz8+SMw8375ysbGBiw+gSW5vKw0UDFQDbCMO3T05KLl644cPw0sOhQVZO/dfwTRi0wSsBiilIWFBVgg21mbATOohpoy1pIIWFZfvHLt5OkLW3bsefP2PbIdWNlEWYysE5g9REWERISERESEuLk4P3z8/OHDxxevXj9/8QpZGUE2yRYTNJFIBVgqCSJ1Uqhs1GIKA5B47aNBTXxYUahy5AU1AD0k0AuulD18AAAAAElFTkSuQmCC;" parent="1" vertex="1">
                    <mxGeometry x="110" y="940" width="40" height="40" as="geometry"/>
                </mxCell>
                <mxCell id="120" value="AZ1" style="text;html=1;align=center;verticalAlign=middle;whiteSpace=wrap;rounded=0;" parent="1" vertex="1">
                    <mxGeometry x="330" y="1064" width="60" height="30" as="geometry"/>
                </mxCell>
                <mxCell id="114" value="" style="group;strokeColor=#0000FF;container=0;" parent="1" vertex="1" connectable="0">
                    <mxGeometry x="340" y="1067.83" width="340" height="170" as="geometry"/>
                </mxCell>
                <mxCell id="115" value="" style="endArrow=none;dashed=1;html=1;fillColor=#FF8000;strokeColor=#0000FF;" parent="1" edge="1">
                    <mxGeometry width="50" height="50" relative="1" as="geometry">
                        <mxPoint x="680" y="1067.83" as="sourcePoint"/>
                        <mxPoint x="340" y="1067.83" as="targetPoint"/>
                    </mxGeometry>
                </mxCell>
                <mxCell id="127" value="" style="endArrow=none;dashed=1;html=1;fillColor=#FF8000;strokeColor=#0000FF;" parent="1" edge="1">
                    <mxGeometry width="50" height="50" relative="1" as="geometry">
                        <mxPoint x="680" y="1237" as="sourcePoint"/>
                        <mxPoint x="340" y="1237" as="targetPoint"/>
                    </mxGeometry>
                </mxCell>
                <mxCell id="128" value="" style="endArrow=none;dashed=1;html=1;fillColor=#FF8000;strokeColor=#0000FF;" parent="1" edge="1">
                    <mxGeometry width="50" height="50" relative="1" as="geometry">
                        <mxPoint x="340.00000000000006" y="1067" as="sourcePoint"/>
                        <mxPoint x="340.00000000000006" y="1237" as="targetPoint"/>
                    </mxGeometry>
                </mxCell>
            </root>
        </mxGraphModel>
    </diagram>
</mxfile>